<?xml version="1.0" encoding="UTF-8"?>
<!DOCTYPE svg PUBLIC "-//W3C//DTD SVG 1.1//EN" "http://www.w3.org/Graphics/SVG/1.1/DTD/svg11.dtd">
<!-- Creator: CorelDRAW 2020 (64 Bit) -->
<svg xmlns="http://www.w3.org/2000/svg" xml:space="preserve" width="65.9532mm" height="77.9254mm" version="1.1" style="shape-rendering:geometricPrecision; text-rendering:geometricPrecision; image-rendering:optimizeQuality; fill-rule:evenodd; clip-rule:evenodd"
viewBox="0 0 263.24 311.02"
 xmlns:xlink="http://www.w3.org/1999/xlink"
 xmlns:xodm="http://www.corel.com/coreldraw/odm/2003">
 <defs>
  <style type="text/css">
   <![CDATA[
    .fil0 {fill:black;fill-rule:nonzero}
    .fil1 {fill:#DD4B39;fill-rule:nonzero}
    .fil2 {fill:#FFCB05;fill-rule:nonzero}
   ]]>
  </style>
 </defs>
 <g id="Camada_x0020_1">
  <metadata id="CorelCorpID_0Corel-Layer"/>
  <path class="fil0" d="M162.81 0l-62.39 0c-18.68,0 -33.88,15.19 -33.88,33.87l0 90.7c0,18.67 15.2,33.87 33.88,33.87l62.39 0c18.68,0 33.88,-15.2 33.88,-33.87l0 -90.7c0,-18.68 -15.2,-33.87 -33.88,-33.87l0 0zm0 20.31c7.49,0 13.56,6.07 13.56,13.56l0 90.7c0,7.48 -6.06,13.55 -13.56,13.55l-62.39 0c-7.5,0 -13.56,-6.08 -13.56,-13.55l0 -90.7c0,-7.49 6.06,-13.56 13.56,-13.56l62.39 0z"/>
  <path class="fil1" d="M69.63 300.86c-20.47,0 -37.11,-16.64 -37.11,-37.1l0 -200.76c0,-5.61 4.54,-10.16 10.15,-10.16l177.9 0c5.61,0 10.16,4.55 10.16,10.16l0 200.76c0,20.46 -16.65,37.1 -37.12,37.1l-123.98 0z"/>
  <path class="fil0" d="M220.57 42.69l-177.9 0c-11.22,0 -20.32,9.09 -20.32,20.31l0 200.76c0,26.06 21.21,47.26 47.28,47.26l123.98 0c26.07,0 47.28,-21.2 47.28,-47.26l0 -200.76c0,-11.22 -9.1,-20.31 -20.32,-20.31l0 0zm0 20.31l0 200.76c0,14.87 -12.08,26.94 -26.96,26.94l-123.98 0c-14.89,0 -26.96,-12.08 -26.96,-26.94l0 -200.76 177.9 0z"/>
  <polygon class="fil2" points="10.16,51.23 253.08,51.23 "/>
  <g>
   <path class="fil0" d="M10.16 61.39c-5.61,0 -10.16,-4.55 -10.16,-10.16 0,-5.61 4.55,-10.16 10.16,-10.16l0 20.32zm242.92 0l-242.92 0 0 -20.32 242.92 0 0 20.32zm0 -20.32c5.61,0 10.16,4.55 10.16,10.16 0,5.61 -4.55,10.16 -10.16,10.16l0 -20.32z"/>
  </g>
  <polygon class="fil2" points="131.62,103.98 131.62,249.73 "/>
  <g>
   <path class="fil0" d="M121.46 103.98c0,-5.61 4.55,-10.16 10.16,-10.16 5.61,0 10.16,4.55 10.16,10.16l-20.32 0zm0 145.75l0 -145.75 20.32 0 0 145.75 -20.32 0zm20.32 0c0,5.61 -4.55,10.16 -10.16,10.16 -5.61,0 -10.16,-4.55 -10.16,-10.16l20.32 0z"/>
  </g>
  <g>
   <path class="fil0" d="M170.78 103.98c0,-5.61 4.55,-10.16 10.16,-10.16 5.61,0 10.16,4.55 10.16,10.16l-20.32 0zm0 145.75l0 -145.75 20.32 0 0 145.75 -20.32 0zm20.32 0c0,5.61 -4.55,10.16 -10.16,10.16 -5.61,0 -10.16,-4.55 -10.16,-10.16l20.32 0z"/>
  </g>
  <polygon class="fil2" points="82.3,103.98 82.3,249.73 "/>
  <g>
   <path class="fil0" d="M72.14 103.98c0,-5.61 4.55,-10.16 10.16,-10.16 5.61,0 10.16,4.55 10.16,10.16l-20.32 0zm0 145.75l0 -145.75 20.32 0 0 145.75 -20.32 0zm20.32 0c0,5.61 -4.55,10.16 -10.16,10.16 -5.61,0 -10.16,-4.55 -10.16,-10.16l20.32 0z"/>
  </g>
 </g>
</svg>
