<?xml version="1.0" encoding="UTF-8"?>
<!DOCTYPE svg PUBLIC "-//W3C//DTD SVG 1.1//EN" "http://www.w3.org/Graphics/SVG/1.1/DTD/svg11.dtd">
<!-- Creator: CorelDRAW 2020 (64 Bit) -->
<svg xmlns="http://www.w3.org/2000/svg" xml:space="preserve" width="77.9231mm" height="70.7226mm" version="1.1" style="shape-rendering:geometricPrecision; text-rendering:geometricPrecision; image-rendering:optimizeQuality; fill-rule:evenodd; clip-rule:evenodd"
viewBox="0 0 435.79 395.52"
 xmlns:xlink="http://www.w3.org/1999/xlink"
 xmlns:xodm="http://www.corel.com/coreldraw/odm/2003">
 <defs>
  <style type="text/css">
   <![CDATA[
    .fil1 {fill:black;fill-rule:nonzero}
    .fil4 {fill:#0072C6;fill-rule:nonzero}
    .fil0 {fill:#5BA5F5;fill-rule:nonzero}
    .fil2 {fill:#FFCB05;fill-rule:nonzero}
    .fil3 {fill:white;fill-rule:nonzero}
   ]]>
  </style>
 </defs>
 <g id="Camada_x0020_1">
  <metadata id="CorelCorpID_0Corel-Layer"/>
  <g id="_1105567264">
   <path class="fil0" d="M54.4 379.74c-22.92,0 -41.56,-18.64 -41.56,-41.55l0 -283.8c0,-22.91 18.64,-41.54 41.56,-41.54l130.93 0c3.4,0 6.67,1.35 9.07,3.76l81.55 81.55c2.41,2.41 3.76,5.68 3.76,9.08l0 230.96c0,22.91 -18.64,41.55 -41.56,41.55l-183.75 0z"/>
   <path class="fil1" d="M185.32 0l-130.93 0c-29.98,0 -54.39,24.41 -54.39,54.39l0 283.8c0,29.98 24.41,54.39 54.39,54.39l183.75 0c30,0 54.39,-24.41 54.39,-54.39l0 -230.96c0,-6.82 -2.7,-13.34 -7.51,-18.14l-10.64 -10.62 -0.34 -0.34 -0.32 -0.36 -0.34 -0.34 -60.05 -60.05 -0.24 -0.24 -0.24 -0.21 -0.24 -0.21 -0.24 -0.24 -8.92 -8.94c-4.8,-4.83 -11.32,-7.53 -18.14,-7.53l0 0zm-13.83 25.67c-1.29,3.07 -1.97,6.41 -1.97,9.87l0 31.57c0,29.85 24.28,54.13 54.13,54.13l31.57 0c4.14,0 8.13,-0.99 11.67,-2.79l0 219.74c0,15.85 -12.85,28.72 -28.74,28.72l-183.75 0c-15.87,0 -28.72,-12.87 -28.72,-28.72l0 -283.8c0,-15.85 12.85,-28.72 28.72,-28.72l117.1 0zm83.73 69.92l-31.57 0c-15.72,0 -28.46,-12.78 -28.46,-28.48l0 -31.57 60.03 60.05z"/>
   <polygon class="fil2" points="80.72,150.2 211.85,150.2 "/>
   <polygon class="fil2" points="80.72,198.57 211.85,198.57 "/>
   <polygon class="fil2" points="80.72,246.93 211.85,246.93 "/>
   <polygon class="fil2" points="80.72,295.29 211.85,295.29 "/>
   <g>
    <g>
     <path class="fil1" d="M80.72 163.04c-7.09,0 -12.83,-5.75 -12.83,-12.83 0,-7.09 5.75,-12.83 12.83,-12.83l0 25.67zm131.13 0l-131.13 0 0 -25.67 131.13 0 0 25.67zm0 -25.67c7.09,0 12.83,5.75 12.83,12.83 0,7.09 -5.75,12.83 -12.83,12.83l0 -25.67z"/>
    </g>
    <g>
     <path class="fil1" d="M80.72 211.4c-7.09,0 -12.83,-5.75 -12.83,-12.83 0,-7.09 5.75,-12.83 12.83,-12.83l0 25.67zm131.13 0l-131.13 0 0 -25.67 131.13 0 0 25.67zm0 -25.67c7.09,0 12.83,5.75 12.83,12.83 0,7.09 -5.75,12.83 -12.83,12.83l0 -25.67z"/>
    </g>
    <g>
     <path class="fil1" d="M80.72 259.76c-7.09,0 -12.83,-5.75 -12.83,-12.83 0,-7.09 5.75,-12.83 12.83,-12.83l0 25.67zm131.13 0l-131.13 0 0 -25.67 131.13 0 0 25.67zm0 -25.67c7.09,0 12.83,5.75 12.83,12.83 0,7.09 -5.75,12.83 -12.83,12.83l0 -25.67z"/>
    </g>
    <g>
     <path class="fil1" d="M80.72 308.13c-7.09,0 -12.83,-5.75 -12.83,-12.83 0,-7.09 5.75,-12.83 12.83,-12.83l0 25.67zm131.13 0l-131.13 0 0 -25.67 131.13 0 0 25.67zm0 -25.67c7.09,0 12.83,5.75 12.83,12.83 0,7.09 -5.75,12.83 -12.83,12.83l0 -25.67z"/>
    </g>
   </g>
   <g>
    <path class="fil3" d="M81.12 71.94c-7.09,0 -12.83,-5.75 -12.83,-12.83 0,-7.09 5.75,-12.83 12.83,-12.83l0 25.67zm51.75 0l-51.75 0 0 -25.67 51.75 0 0 25.67zm0 -25.67c7.09,0 12.83,5.75 12.83,12.83 0,7.09 -5.75,12.83 -12.83,12.83l0 -25.67z"/>
   </g>
   <path class="fil0" d="M187.86 386.01c-8.02,0 -15.55,-3.6 -20.67,-9.87 -5.1,-6.23 -7.09,-14.35 -5.47,-22.27l11.18 -54.74c2.12,-10.33 7.17,-19.7 14.61,-27.14l140.67 -140.67c7.17,-7.17 16.7,-11.12 26.85,-11.12 10.15,0 19.7,3.95 26.88,11.12l33.24 33.25c7.17,7.17 11.13,16.71 11.13,26.86 0.01,10.15 -3.94,19.68 -11.12,26.86l-140.68 140.67c-7.41,7.42 -16.75,12.51 -26.99,14.74l-53.89 11.68c-1.89,0.41 -3.83,0.62 -5.75,0.62l0 0z"/>
   <path class="fil1" d="M355.03 110.7c-12.69,0 -24.62,4.94 -33.58,13.9l-140.67 140.67c-8.75,8.75 -14.7,19.79 -17.2,31.94l-11.19 54.76c-2.2,10.72 0.51,21.73 7.42,30.19 6.93,8.49 17.15,13.36 28.03,13.36 2.6,0 5.22,-0.28 7.78,-0.84l53.87 -11.67c12.04,-2.62 23,-8.61 31.71,-17.32l140.67 -140.66c8.97,-8.97 13.91,-20.9 13.9,-33.59 -0.01,-12.69 -4.96,-24.62 -13.93,-33.59l-33.23 -33.24c-8.98,-8.97 -20.91,-13.91 -33.6,-13.91l0 0zm0 19.02c7.3,0 14.59,2.78 20.16,8.34l33.23 33.24c11.13,11.13 11.13,29.16 0.02,40.28l-140.68 140.67c-6.1,6.11 -13.85,10.34 -22.29,12.17l-53.88 11.68c-1.26,0.27 -2.51,0.41 -3.73,0.41 -10.56,0 -19.06,-9.78 -16.82,-20.73l11.18 -54.74c1.74,-8.44 5.92,-16.22 12.01,-22.32l140.67 -140.67c5.56,-5.56 12.84,-8.33 20.13,-8.33z"/>
   <polygon class="fil4" points="356.42,200.38 388.87,232.82 271.55,350.16 239.1,317.7 "/>
   <polygon class="fil2" points="268.04,355.3 189.66,276.91 "/>
   <g>
    <polygon class="fil1" points="196.38,270.19 274.76,348.58 261.32,362.02 182.93,283.64 "/>
   </g>
   <polygon class="fil2" points="393.48,229.88 315.08,151.49 "/>
   <g>
    <polygon class="fil1" points="321.8,144.76 400.2,223.16 386.75,236.61 308.35,158.21 "/>
   </g>
   <path class="fil1" d="M191.59 376.1l24.31 -5.27 -39.81 -39.82 -5.06 24.77c-2.5,12.21 8.37,22.97 20.56,20.32z"/>
   <polygon class="fil2" points="233.74,312.74 352.55,193.92 "/>
   <g>
    <polygon class="fil1" points="359.28,200.64 240.47,319.46 227.02,306.02 345.83,187.2 "/>
   </g>
   <g>
    <path class="fil3" d="M264.98 248.8c-3.73,3.69 -9.75,3.66 -13.45,-0.07 -3.69,-3.73 -3.66,-9.75 0.07,-13.45l13.38 13.52zm49.09 -48.58l-49.09 48.58 -13.38 -13.52 49.09 -48.58 13.38 13.52zm-13.38 -13.52c3.73,-3.69 9.75,-3.66 13.45,0.07 3.69,3.73 3.66,9.75 -0.07,13.45l-13.38 -13.52z"/>
   </g>
   <g>
    <path class="fil3" d="M356.92 158.52c-4.24,3.09 -10.19,2.16 -13.29,-2.09 -3.09,-4.24 -2.16,-10.19 2.09,-13.29l11.2 15.37zm9.69 -16.36l-9.52 16.47 -0.12 -0.07 -0.1 -0.05 -0.08 -0.04 -0.05 -0.02 -0.04 -0.01 -0.02 -0.01 -0.01 -0 0.01 0 0.02 0 0.02 0 0.04 0 0.04 0 0.04 0 0.04 -0 0.05 -0 0.05 -0.01 0.03 -0.01 0.03 -0.01 0.03 -0.01 0.02 -0.01 0.02 -0.01 0.01 -0 0.01 -0 -0.01 0 -0.01 0 -0.01 0.01 -0.03 0.02 -0.02 0.01 -0.03 0.02 -0.04 0.02 -0.03 0.02 -0.04 0.03 -11.2 -15.37 0.39 -0.28 0.41 -0.28 0.43 -0.27 0.45 -0.27 0.48 -0.27 0.48 -0.26 0.51 -0.26 0.53 -0.25 0.55 -0.24 0.58 -0.23 0.6 -0.21 0.63 -0.2 0.64 -0.17 0.66 -0.15 0.68 -0.13 0.69 -0.11 0.72 -0.08 0.73 -0.05 0.74 -0.02 0.76 0.01 0.77 0.04 0.78 0.07 0.77 0.11 0.78 0.14 0.78 0.18 0.78 0.21 0.78 0.25 0.77 0.28 0.77 0.32 0.75 0.34 0.74 0.38 0.74 0.41zm0 0c4.55,2.63 6.1,8.44 3.48,12.99 -2.63,4.55 -8.44,6.1 -12.99,3.48l9.52 -16.47z"/>
   </g>
  </g>
 </g>
</svg>
