<?xml version="1.0" encoding="UTF-8"?>
<!DOCTYPE svg PUBLIC "-//W3C//DTD SVG 1.1//EN" "http://www.w3.org/Graphics/SVG/1.1/DTD/svg11.dtd">
<!-- Creator: CorelDRAW 2020 (64 Bit) -->
<svg xmlns="http://www.w3.org/2000/svg" xml:space="preserve" width="80.4176mm" height="76.8531mm" version="1.1" style="shape-rendering:geometricPrecision; text-rendering:geometricPrecision; image-rendering:optimizeQuality; fill-rule:evenodd; clip-rule:evenodd"
viewBox="0 0 1512.75 1445.7"
 xmlns:xlink="http://www.w3.org/1999/xlink"
 xmlns:xodm="http://www.corel.com/coreldraw/odm/2003">
 <defs>
  <style type="text/css">
   <![CDATA[
    .fil0 {fill:black}
    .fil7 {fill:#0072C6}
    .fil6 {fill:#5BA5F5}
    .fil2 {fill:black;fill-rule:nonzero}
    .fil3 {fill:#0072C6;fill-rule:nonzero}
    .fil1 {fill:#5BA5F5;fill-rule:nonzero}
    .fil4 {fill:#FFCB05;fill-rule:nonzero}
    .fil5 {fill:white;fill-rule:nonzero}
   ]]>
  </style>
 </defs>
 <g id="Camada_x0020_1">
  <metadata id="CorelCorpID_0Corel-Layer"/>
  <g id="_1276044368">
   <path class="fil0" d="M417.75 1282.61l-280.33 0c-75.82,0 -137.42,-61.61 -137.42,-137.42l0 -182.08 0 -1.15 0 -1.16 0 -303.05 0 -1.15 0 -1.16 0 -303.12 0 -1.15 0 -1.16 0 -212.59c0,-75.82 61.61,-137.42 137.42,-137.42l885.64 0c75.75,0 137.42,61.61 137.42,137.42l0 212.59 0 1.16 0 1.15 0 67.88c0,25.32 -20.56,45.81 -45.81,45.81 -25.32,0 -45.81,-20.49 -45.81,-45.81l0 -23.23 -442.85 0 0 213.82 263.88 0c25.25,0 45.81,20.49 45.81,45.81 0,25.25 -20.56,45.81 -45.81,45.81l0 0 -263.88 0 0 258.4 0 1.16c0,25.32 -20.49,45.81 -45.81,45.81l-1.16 0 -487.44 0 0 137.42c0,25.32 20.49,45.81 45.81,45.81l280.33 0c25.32,0 45.81,20.49 45.81,45.81 0,25.32 -20.49,45.81 -45.81,45.81l0 0zm116.65 -885.64l-442.78 0 0 213.82 442.78 0 0 -213.82zm0 305.43l-442.78 0 0 213.75 442.78 0 0 -213.75zm45.81 305.36l0 0zm488.66 -702.41l0 -167.94c0,-25.32 -20.56,-45.81 -45.81,-45.81l-885.64 0c-25.32,0 -45.81,20.49 -45.81,45.81l0 167.94 487.44 0 1.16 0 1.15 0 487.51 0z"/>
   <g>
    <path class="fil1" d="M532.22 1409.04c-30.85,-1.11 -59.32,-15.99 -78.12,-40.81 -18.74,-24.68 -25.28,-56.19 -17.98,-86.4l50.57 -208.98c9.59,-39.43 30.31,-74.79 59.94,-102.35l560.44 -521.56c28.56,-26.58 65.77,-40.45 104.81,-39.04 39.05,1.4 75.23,17.91 101.83,46.48l123.23 132.46c26.59,28.56 40.49,65.79 39.11,104.84 -1.37,39.02 -17.87,75.15 -46.46,101.75l-560.47 521.56c-29.53,27.52 -66.14,45.81 -105.83,52.97l-208.86 37.49c-7.34,1.31 -14.81,1.86 -22.2,1.59l0 0z"/>
    <path class="fil2" d="M1213.19 373.32c-48.8,-1.75 -95.35,15.58 -131.06,48.82l-560.43 521.56c-34.87,32.45 -59.28,74.1 -70.55,120.45l-50.59 209.07c-9.92,40.92 -1.03,83.64 24.37,117.13 25.47,33.62 64.11,53.75 105.97,55.26 10,0.36 20.11,-0.37 30.04,-2.15l208.77 -37.46c46.66,-8.4 89.66,-29.93 124.35,-62.22l560.45 -521.55c35.73,-33.26 56.38,-78.45 58.11,-127.25 1.72,-48.81 -15.66,-95.37 -48.93,-131.09l-123.19 -132.41c-33.28,-35.75 -78.49,-56.39 -127.32,-58.15l0 0zm-2.63 73.14c28.06,1.01 55.74,12.72 76.36,34.85l123.21 132.43c41.28,44.34 38.79,113.7 -5.48,154.9l-560.47 521.56c-24.31,22.66 -54.69,37.85 -87.4,43.73l-208.84 37.49c-4.89,0.87 -9.71,1.21 -14.41,1.04 -40.63,-1.46 -71.95,-40.25 -61.84,-82.03l50.58 -208.99c7.84,-32.23 24.99,-61.56 49.29,-84.17l560.44 -521.56c22.14,-20.6 50.53,-30.26 78.57,-29.26z"/>
    <polygon class="fil3" points="1206.15,718.38 1326.48,847.65 859.04,1282.7 738.74,1153.39 "/>
    <polygon class="fil4" points="844.85,1302 554.23,989.7 "/>
    <g>
     <polygon class="fil2" points="581.02,964.77 871.64,1277.07 818.06,1326.93 527.44,1014.63 "/>
    </g>
    <polygon class="fil4" points="1344.59,836.98 1053.9,524.66 "/>
    <g>
     <polygon class="fil2" points="1080.69,499.72 1371.37,812.05 1317.8,861.91 1027.11,549.59 "/>
    </g>
    <path class="fil2" d="M547.95 1371.43l94.24 -16.92 -147.6 -158.63 -22.88 94.56c-11.29,46.62 29.03,89.49 76.25,80.99z"/>
    <polygon class="fil4" points="718.82,1133.58 1192.18,693.02 "/>
    <g>
     <polygon class="fil2" points="1217.11,719.8 743.75,1160.37 693.88,1106.8 1167.24,666.23 "/>
    </g>
    <g>
     <path class="fil5" d="M847.78 891.97c-14.87,13.69 -38.02,12.74 -51.71,-2.13 -13.69,-14.87 -12.74,-38.02 2.13,-51.71l49.58 53.84zm195.52 -180.05l-195.52 180.05 -49.58 -53.84 195.52 -180.05 49.58 53.84zm-49.58 -53.84c14.87,-13.69 38.02,-12.74 51.71,2.13 13.69,14.87 12.74,38.02 -2.13,51.71l-49.58 -53.84z"/>
    </g>
    <g>
     <path class="fil5" d="M1213.85 557.48c-16.75,11.31 -39.5,6.9 -50.81,-9.85 -11.31,-16.75 -6.9,-39.5 9.85,-50.81l40.96 60.65zm39.52 -61.6l-38.88 62.01 -0.44 -0.27 -0.37 -0.2 -0.32 -0.16 -0.23 -0.1 -0.14 -0.06 -0.09 -0.03 -0.04 -0.01 0.04 0.01 0.06 0.01 0.11 0.02 0.14 0.02 0.14 0.01 0.15 0.01 0.18 0 0.18 -0.01 0.17 -0.01 0.18 -0.02 0.11 -0.02 0.12 -0.02 0.12 -0.02 0.07 -0.02 0.03 -0.01 0.03 -0.01 -0.02 0.01 -0.05 0.02 -0.02 0.01 -0.1 0.05 -0.1 0.05 -0.11 0.06 -0.15 0.09 -0.13 0.08 -0.15 0.1 -40.96 -60.65 1.55 -1.02 1.63 -1.02 1.67 -0.99 1.78 -1 1.85 -0.97 1.9 -0.93 2.04 -0.93 2.07 -0.87 2.16 -0.83 2.26 -0.78 2.32 -0.72 2.41 -0.66 2.51 -0.59 2.57 -0.5 2.61 -0.41 2.73 -0.32 2.77 -0.21 2.83 -0.1 2.88 0.02 2.89 0.14 2.93 0.26 2.98 0.39 2.99 0.53 2.98 0.66 2.99 0.8 2.96 0.92 2.95 1.06 2.93 1.19 2.89 1.31 2.84 1.43 2.82 1.55 2.78 1.67zm0 0c17.12,10.73 22.3,33.32 11.57,50.44 -10.73,17.12 -33.32,22.3 -50.44,11.57l38.88 -62.01z"/>
    </g>
   </g>
   <polygon class="fil6" points="534.4,610.79 534.4,396.98 91.62,396.98 91.62,610.79 "/>
   <path class="fil7" d="M91.62 305.36l487.44 0 1.16 0 1.15 0 487.51 0 0 -167.94c0,-25.32 -20.56,-45.81 -45.81,-45.81l-885.64 0c-25.32,0 -45.81,20.49 -45.81,45.81l0 167.94z"/>
   <polygon class="fil6" points="534.4,702.41 91.62,702.41 91.62,916.15 534.4,916.15 "/>
   <path class="fil6" d="M472.5 1007.77l-380.89 0 0 137.42c0,25.32 20.49,45.81 45.81,45.81l280.33 0c0.94,0 1.8,0 2.67,0.07l30.73 -126.96c4.83,-19.76 11.98,-38.67 21.35,-56.34z"/>
   <polygon class="fil6" points="626.01,702.41 626.01,846.68 781.04,702.41 "/>
   <path class="fil6" d="M626.01 610.79l253.42 0 191.16 -177.97c-1.15,-4.04 -1.73,-8.22 -1.73,-12.62l0 -23.23 -442.85 0 0 213.82z"/>
  </g>
 </g>
</svg>
