<?xml version="1.0" encoding="UTF-8"?>
<!DOCTYPE svg PUBLIC "-//W3C//DTD SVG 1.1//EN" "http://www.w3.org/Graphics/SVG/1.1/DTD/svg11.dtd">
<!-- Creator: CorelDRAW 2020 (64 Bit) -->
<svg xmlns="http://www.w3.org/2000/svg" xml:space="preserve" width="165.074mm" height="105.678mm" version="1.1" style="shape-rendering:geometricPrecision; text-rendering:geometricPrecision; image-rendering:optimizeQuality; fill-rule:evenodd; clip-rule:evenodd"
viewBox="0 0 3810.54 2439.45"
 xmlns:xlink="http://www.w3.org/1999/xlink"
 xmlns:xodm="http://www.corel.com/coreldraw/odm/2003">
 <defs>
  <style type="text/css">
   <![CDATA[
    .fil5 {fill:none}
    .fil8 {fill:black}
    .fil2 {fill:#009A62}
    .fil3 {fill:#1560A4}
    .fil6 {fill:white}
    .fil7 {fill:white;fill-rule:nonzero}
    .fil1 {fill:url(#id3)}
    .fil4 {fill:url(#id4)}
    .fil0 {fill:url(#id5)}
   ]]>
  </style>
     <clipPath id="id0">
      <path d="M442.62 1102.26c228.62,0 413.94,113.71 413.94,253.98 0,140.27 -185.33,253.98 -413.94,253.98 -228.61,0 -413.94,-113.71 -413.94,-253.98 0,-140.27 185.33,-253.98 413.94,-253.98zm523.4 575.25c228.61,0 413.94,113.71 413.94,253.98 0,140.27 -185.33,253.98 -413.94,253.98 -228.61,0 -413.94,-113.71 -413.94,-253.98 0,-140.27 185.33,-253.98 413.94,-253.98zm969.11 237.46c228.61,0 413.94,113.71 413.94,253.98 0,140.27 -185.33,253.98 -413.94,253.98 -228.61,0 -413.94,-113.71 -413.94,-253.98 0,-140.27 185.33,-253.98 413.94,-253.98zm950.69 -237.46c228.62,0 413.94,113.71 413.94,253.98 0,140.27 -185.33,253.98 -413.94,253.98 -228.61,0 -413.94,-113.71 -413.94,-253.98 0,-140.27 185.33,-253.98 413.94,-253.98zm482.09 -575.25c228.62,0 413.94,113.71 413.94,253.98 0,140.27 -185.33,253.98 -413.94,253.98 -228.61,0 -413.94,-113.71 -413.94,-253.98 0,-140.27 185.33,-253.98 413.94,-253.98zm-204.2 -608.31c228.62,0 413.94,113.71 413.94,253.98 0,140.27 -185.33,253.98 -413.94,253.98 -228.61,0 -413.94,-113.71 -413.94,-253.98 0,-140.27 185.33,-253.98 413.94,-253.98zm-755.14 -477.43c228.61,0 413.94,113.71 413.94,253.98 0,140.27 -185.33,253.98 -413.94,253.98 -228.61,0 -413.94,-113.71 -413.94,-253.98 0,-140.27 185.33,-253.98 413.94,-253.98zm-990.08 0c228.61,0 413.94,113.71 413.94,253.98 0,140.27 -185.33,253.98 -413.94,253.98 -228.61,0 -413.94,-113.71 -413.94,-253.98 0,-140.27 185.33,-253.98 413.94,-253.98zm-746.88 477.43c228.61,0 413.94,113.71 413.94,253.98 0,140.27 -185.33,253.98 -413.94,253.98 -228.62,0 -413.94,-113.71 -413.94,-253.98 0,-140.27 185.33,-253.98 413.94,-253.98z"/>
     </clipPath>
      <clipPath id="id1">
       <path d="M442.62 1102.26c228.62,0 413.94,113.71 413.94,253.98 0,140.27 -185.33,253.98 -413.94,253.98 -228.61,0 -413.94,-113.71 -413.94,-253.98 0,-140.27 185.33,-253.98 413.94,-253.98zm523.4 575.25c228.61,0 413.94,113.71 413.94,253.98 0,140.27 -185.33,253.98 -413.94,253.98 -228.61,0 -413.94,-113.71 -413.94,-253.98 0,-140.27 185.33,-253.98 413.94,-253.98zm969.11 237.46c228.61,0 413.94,113.71 413.94,253.98 0,140.27 -185.33,253.98 -413.94,253.98 -228.61,0 -413.94,-113.71 -413.94,-253.98 0,-140.27 185.33,-253.98 413.94,-253.98zm950.69 -237.46c228.62,0 413.94,113.71 413.94,253.98 0,140.27 -185.33,253.98 -413.94,253.98 -228.61,0 -413.94,-113.71 -413.94,-253.98 0,-140.27 185.33,-253.98 413.94,-253.98zm482.09 -575.25c228.62,0 413.94,113.71 413.94,253.98 0,140.27 -185.33,253.98 -413.94,253.98 -228.61,0 -413.94,-113.71 -413.94,-253.98 0,-140.27 185.33,-253.98 413.94,-253.98zm-204.2 -608.31c228.62,0 413.94,113.71 413.94,253.98 0,140.27 -185.33,253.98 -413.94,253.98 -228.61,0 -413.94,-113.71 -413.94,-253.98 0,-140.27 185.33,-253.98 413.94,-253.98zm-755.14 -477.43c228.61,0 413.94,113.71 413.94,253.98 0,140.27 -185.33,253.98 -413.94,253.98 -228.61,0 -413.94,-113.71 -413.94,-253.98 0,-140.27 185.33,-253.98 413.94,-253.98zm-990.08 0c228.61,0 413.94,113.71 413.94,253.98 0,140.27 -185.33,253.98 -413.94,253.98 -228.61,0 -413.94,-113.71 -413.94,-253.98 0,-140.27 185.33,-253.98 413.94,-253.98zm-746.88 477.43c228.61,0 413.94,113.71 413.94,253.98 0,140.27 -185.33,253.98 -413.94,253.98 -228.62,0 -413.94,-113.71 -413.94,-253.98 0,-140.27 185.33,-253.98 413.94,-253.98z"/>
      </clipPath>
      <clipPath id="id2">
       <path d="M442.62 1102.26c228.62,0 413.94,113.71 413.94,253.98 0,140.27 -185.33,253.98 -413.94,253.98 -228.61,0 -413.94,-113.71 -413.94,-253.98 0,-140.27 185.33,-253.98 413.94,-253.98zm523.4 575.25c228.61,0 413.94,113.71 413.94,253.98 0,140.27 -185.33,253.98 -413.94,253.98 -228.61,0 -413.94,-113.71 -413.94,-253.98 0,-140.27 185.33,-253.98 413.94,-253.98zm969.11 237.46c228.61,0 413.94,113.71 413.94,253.98 0,140.27 -185.33,253.98 -413.94,253.98 -228.61,0 -413.94,-113.71 -413.94,-253.98 0,-140.27 185.33,-253.98 413.94,-253.98zm950.69 -237.46c228.62,0 413.94,113.71 413.94,253.98 0,140.27 -185.33,253.98 -413.94,253.98 -228.61,0 -413.94,-113.71 -413.94,-253.98 0,-140.27 185.33,-253.98 413.94,-253.98zm482.09 -575.25c228.62,0 413.94,113.71 413.94,253.98 0,140.27 -185.33,253.98 -413.94,253.98 -228.61,0 -413.94,-113.71 -413.94,-253.98 0,-140.27 185.33,-253.98 413.94,-253.98zm-204.2 -608.31c228.62,0 413.94,113.71 413.94,253.98 0,140.27 -185.33,253.98 -413.94,253.98 -228.61,0 -413.94,-113.71 -413.94,-253.98 0,-140.27 185.33,-253.98 413.94,-253.98zm-755.14 -477.43c228.61,0 413.94,113.71 413.94,253.98 0,140.27 -185.33,253.98 -413.94,253.98 -228.61,0 -413.94,-113.71 -413.94,-253.98 0,-140.27 185.33,-253.98 413.94,-253.98zm-990.08 0c228.61,0 413.94,113.71 413.94,253.98 0,140.27 -185.33,253.98 -413.94,253.98 -228.61,0 -413.94,-113.71 -413.94,-253.98 0,-140.27 185.33,-253.98 413.94,-253.98zm-746.88 477.43c228.61,0 413.94,113.71 413.94,253.98 0,140.27 -185.33,253.98 -413.94,253.98 -228.62,0 -413.94,-113.71 -413.94,-253.98 0,-140.27 185.33,-253.98 413.94,-253.98z"/>
      </clipPath>
  <linearGradient id="id3" gradientUnits="userSpaceOnUse" x1="1925.64" y1="1248.36" x2="2019.78" y2="1445.95">
   <stop offset="0" style="stop-opacity:1; stop-color:#349C79"/>
   <stop offset="1" style="stop-opacity:1; stop-color:#28E066"/>
  </linearGradient>
  <linearGradient id="id4" gradientUnits="userSpaceOnUse" x1="1356.06" y1="-2.71" x2="2454.43" y2="2442.12">
   <stop offset="0" style="stop-opacity:1; stop-color:#0068C9"/>
   <stop offset="0.470588" style="stop-opacity:1; stop-color:#00748D"/>
   <stop offset="1" style="stop-opacity:1; stop-color:#008051"/>
  </linearGradient>
  <linearGradient id="id5" gradientUnits="userSpaceOnUse" x1="1889.02" y1="961.13" x2="1909.68" y2="1379.58">
   <stop offset="0" style="stop-opacity:1; stop-color:#0F5596"/>
   <stop offset="1" style="stop-opacity:1; stop-color:#3996ED"/>
  </linearGradient>
 </defs>
 <g id="Camada_x0020_1">
  <metadata id="CorelCorpID_0Corel-Layer"/>
  <g id="_2025908656">
   <g id="_5152423792">
    <path class="fil0" d="M2197.08 1113.6c20.68,-54.75 3.71,-122.86 -45.24,-148.44 -33.41,-17.47 -416.19,-8.08 -483.98,-8.08 -9.27,19.74 -46.29,85.47 -50.05,97.29 16.2,2.68 46.45,0.74 64.17,0.74l336.52 0c15.46,0 52.85,-2.3 64.95,2.98 21.54,9.4 15.44,34.14 6.7,49.52 -32.12,14.56 -42.94,11.81 -81.55,11.81 -87.46,0 -188.74,-2.37 -273.07,0.18l-130.72 257.57 114.77 2.32 86.98 -161.86c80.38,-1.48 161.08,2.94 241.64,-0.58 36.84,-1.61 67.51,-11.62 93.75,-29.39 19.64,-13.31 48.25,-44.19 55.12,-74.05z"/>
    <path class="fil1" d="M1951.05 1248.23c-9.55,-2.24 -100.93,-1.13 -114.33,0.21l120.58 157.08c36.22,46.93 26.9,43.57 57.24,43.47 24.74,-0.08 74.94,1.39 94.21,-0.6l-157.69 -200.15z"/>
    <path class="fil2" d="M1905.27 822.15c321.95,0 582.95,159.5 582.95,356.26 0,196.76 -261,356.26 -582.95,356.26 -321.95,0 -582.95,-159.5 -582.95,-356.26 0,-196.76 260.99,-356.26 582.95,-356.26zm0 34.77c290.53,0 526.06,143.94 526.06,321.49 0,177.56 -235.52,321.49 -526.06,321.49 -290.53,0 -526.06,-143.94 -526.06,-321.49 0,-177.56 235.52,-321.49 526.06,-321.49z"/>
    <path class="fil2" d="M1935.14 1898.44c244.46,0 442.63,121.11 442.63,270.5 0,149.4 -198.17,270.51 -442.63,270.51 -244.45,0 -442.62,-121.11 -442.62,-270.51 0,-149.39 198.17,-270.5 442.62,-270.5zm0 26.4c220.6,0 399.43,109.29 399.43,244.1 0,134.82 -178.83,244.11 -399.43,244.11 -220.6,0 -399.43,-109.29 -399.43,-244.11 0,-134.81 178.83,-244.1 399.43,-244.1z"/>
    <path class="fil2" d="M2885.83 1660.99c244.46,0 442.63,121.11 442.63,270.5 0,149.4 -198.17,270.51 -442.63,270.51 -244.45,0 -442.62,-121.11 -442.62,-270.51 0,-149.39 198.17,-270.5 442.62,-270.5zm0 26.4c220.6,0 399.43,109.29 399.43,244.1 0,134.82 -178.83,244.11 -399.43,244.11 -220.6,0 -399.43,-109.29 -399.43,-244.11 0,-134.81 178.83,-244.1 399.43,-244.1z"/>
    <path class="fil2" d="M3367.92 1085.73c244.45,0 442.62,121.11 442.62,270.51 0,149.39 -198.17,270.51 -442.62,270.51 -244.46,0 -442.63,-121.11 -442.63,-270.51 0,-149.4 198.17,-270.51 442.63,-270.51zm0 26.4c220.6,0 399.43,109.29 399.43,244.1 0,134.81 -178.83,244.1 -399.43,244.1 -220.6,0 -399.43,-109.29 -399.43,-244.1 0,-134.82 178.83,-244.1 399.43,-244.1z"/>
    <path class="fil2" d="M3163.72 477.43c244.46,0 442.63,121.11 442.63,270.51 0,149.39 -198.17,270.5 -442.63,270.5 -244.45,0 -442.62,-121.11 -442.62,-270.5 0,-149.4 198.17,-270.51 442.62,-270.51zm0 26.4c220.6,0 399.43,109.29 399.43,244.11 0,134.81 -178.83,244.1 -399.43,244.1 -220.6,0 -399.43,-109.29 -399.43,-244.1 0,-134.82 178.83,-244.11 399.43,-244.11z"/>
    <path class="fil3" d="M2408.57 0c244.46,0 442.62,121.11 442.62,270.51 0,149.39 -198.17,270.5 -442.62,270.5 -244.46,0 -442.62,-121.11 -442.62,-270.5 0,-149.4 198.17,-270.51 442.62,-270.51zm0 26.4c220.6,0 399.43,109.29 399.43,244.11 0,134.81 -178.83,244.1 -399.43,244.1 -220.6,0 -399.43,-109.29 -399.43,-244.1 0,-134.82 178.83,-244.11 399.43,-244.11z"/>
    <path class="fil2" d="M966.02 1660.99c-244.46,0 -442.62,121.11 -442.62,270.5 0,149.4 198.17,270.51 442.62,270.51 244.46,0 442.62,-121.11 442.62,-270.51 0,-149.39 -198.17,-270.5 -442.62,-270.5zm0 26.4c-220.6,0 -399.43,109.29 -399.43,244.1 0,134.82 178.83,244.11 399.43,244.11 220.6,0 399.43,-109.29 399.43,-244.11 0,-134.81 -178.83,-244.1 -399.43,-244.1z"/>
    <path class="fil3" d="M442.62 1085.73c-244.45,0 -442.62,121.11 -442.62,270.51 0,149.39 198.17,270.51 442.62,270.51 244.46,0 442.63,-121.11 442.63,-270.51 0,-149.4 -198.17,-270.51 -442.63,-270.51zm0 26.4c-220.6,0 -399.43,109.29 -399.43,244.1 0,134.81 178.83,244.1 399.43,244.1 220.6,0 399.43,-109.29 399.43,-244.1 0,-134.82 -178.83,-244.1 -399.43,-244.1z"/>
    <path class="fil3" d="M671.61 477.43c-244.46,0 -442.62,121.11 -442.62,270.51 0,149.39 198.17,270.5 442.62,270.5 244.46,0 442.62,-121.11 442.62,-270.5 0,-149.4 -198.17,-270.51 -442.62,-270.51zm0 26.4c-220.6,0 -399.43,109.29 -399.43,244.11 0,134.81 178.83,244.1 399.43,244.1 220.6,0 399.43,-109.29 399.43,-244.1 0,-134.82 -178.83,-244.11 -399.43,-244.11z"/>
    <path class="fil3" d="M1418.49 0c-244.46,0 -442.62,121.11 -442.62,270.51 0,149.39 198.17,270.5 442.62,270.5 244.46,0 442.62,-121.11 442.62,-270.5 0,-149.4 -198.17,-270.51 -442.62,-270.51zm0 26.4c-220.6,0 -399.43,109.29 -399.43,244.11 0,134.81 178.83,244.1 399.43,244.1 220.6,0 399.43,-109.29 399.43,-244.1 0,-134.82 -178.83,-244.11 -399.43,-244.11z"/>
    <g>
     <circle class="fil2" cx="1935.14" cy="1821.94" r="25.81"/>
     <circle class="fil2" cx="1935.14" cy="1716.56" r="25.81"/>
     <circle class="fil2" cx="1935.14" cy="1611.19" r="25.81"/>
    </g>
    <g>
     <circle class="fil3" transform="matrix(0.199311 -0.159211 0.159211 0.199311 2593.83 1600.32)" r="101.19"/>
     <circle class="fil3" transform="matrix(0.199311 -0.159211 0.159211 0.199311 2528.06 1517.98)" r="101.19"/>
     <circle class="fil3" transform="matrix(0.199311 -0.159211 0.159211 0.199311 2462.29 1435.65)" r="101.19"/>
    </g>
    <g>
     <circle class="fil3" transform="matrix(0.0395096 -0.252017 0.252017 0.0395096 2825.2 1250.18)" r="101.19"/>
     <circle class="fil3" transform="matrix(0.0395096 -0.252017 0.252017 0.0395096 2721.1 1233.86)" r="101.19"/>
     <circle class="fil3" transform="matrix(0.0395096 -0.252017 0.252017 0.0395096 2616.99 1217.54)" r="101.19"/>
    </g>
    <g>
     <circle class="fil3" transform="matrix(-0.0875795 -0.239589 0.239589 -0.0875795 2669.27 865.125)" r="101.19"/>
     <circle class="fil3" transform="matrix(-0.0875795 -0.239589 0.239589 -0.0875795 2570.29 901.304)" r="101.19"/>
     <circle class="fil3" transform="matrix(-0.0875795 -0.239589 0.239589 -0.0875795 2471.32 937.483)" r="101.19"/>
    </g>
    <g>
     <circle class="fil3" transform="matrix(-0.21159 -0.142488 0.142488 -0.21159 2246.85 596.754)" r="101.19"/>
     <circle class="fil3" transform="matrix(-0.21159 -0.142488 0.142488 -0.21159 2188 684.16)" r="101.19"/>
     <circle class="fil3" transform="matrix(-0.21159 -0.142488 0.142488 -0.21159 2129.14 771.565)" r="101.19"/>
    </g>
    <path class="fil4" d="M442.62 1102.26c228.62,0 413.94,113.71 413.94,253.98 0,140.27 -185.33,253.98 -413.94,253.98 -228.61,0 -413.94,-113.71 -413.94,-253.98 0,-140.27 185.33,-253.98 413.94,-253.98zm523.4 575.25c228.61,0 413.94,113.71 413.94,253.98 0,140.27 -185.33,253.98 -413.94,253.98 -228.61,0 -413.94,-113.71 -413.94,-253.98 0,-140.27 185.33,-253.98 413.94,-253.98zm969.11 237.46c228.61,0 413.94,113.71 413.94,253.98 0,140.27 -185.33,253.98 -413.94,253.98 -228.61,0 -413.94,-113.71 -413.94,-253.98 0,-140.27 185.33,-253.98 413.94,-253.98zm950.69 -237.46c228.62,0 413.94,113.71 413.94,253.98 0,140.27 -185.33,253.98 -413.94,253.98 -228.61,0 -413.94,-113.71 -413.94,-253.98 0,-140.27 185.33,-253.98 413.94,-253.98zm482.09 -575.25c228.62,0 413.94,113.71 413.94,253.98 0,140.27 -185.33,253.98 -413.94,253.98 -228.61,0 -413.94,-113.71 -413.94,-253.98 0,-140.27 185.33,-253.98 413.94,-253.98zm-204.2 -608.31c228.62,0 413.94,113.71 413.94,253.98 0,140.27 -185.33,253.98 -413.94,253.98 -228.61,0 -413.94,-113.71 -413.94,-253.98 0,-140.27 185.33,-253.98 413.94,-253.98zm-755.14 -477.43c228.61,0 413.94,113.71 413.94,253.98 0,140.27 -185.33,253.98 -413.94,253.98 -228.61,0 -413.94,-113.71 -413.94,-253.98 0,-140.27 185.33,-253.98 413.94,-253.98zm-990.08 0c228.61,0 413.94,113.71 413.94,253.98 0,140.27 -185.33,253.98 -413.94,253.98 -228.61,0 -413.94,-113.71 -413.94,-253.98 0,-140.27 185.33,-253.98 413.94,-253.98zm-746.88 477.43c228.61,0 413.94,113.71 413.94,253.98 0,140.27 -185.33,253.98 -413.94,253.98 -228.62,0 -413.94,-113.71 -413.94,-253.98 0,-140.27 185.33,-253.98 413.94,-253.98z"/>
    <g>
    </g>
    <g style="clip-path:url(#id0)">
     <g>
     </g>
     <g style="clip-path:url(#id1)">
      <image x="-2591.93" y="-938.82" width="7412.34" height="4629.75" xlink:href="Modulo 2 degrtade  _Images\Modulo 2 degrtade  _ImgID1.png"/>
     </g>
     <g style="clip-path:url(#id2)">
     </g>
    </g>
    <path class="fil5" d="M442.62 1102.26c228.62,0 413.94,113.71 413.94,253.98 0,140.27 -185.33,253.98 -413.94,253.98 -228.61,0 -413.94,-113.71 -413.94,-253.98 0,-140.27 185.33,-253.98 413.94,-253.98zm523.4 575.25c228.61,0 413.94,113.71 413.94,253.98 0,140.27 -185.33,253.98 -413.94,253.98 -228.61,0 -413.94,-113.71 -413.94,-253.98 0,-140.27 185.33,-253.98 413.94,-253.98zm969.11 237.46c228.61,0 413.94,113.71 413.94,253.98 0,140.27 -185.33,253.98 -413.94,253.98 -228.61,0 -413.94,-113.71 -413.94,-253.98 0,-140.27 185.33,-253.98 413.94,-253.98zm950.69 -237.46c228.62,0 413.94,113.71 413.94,253.98 0,140.27 -185.33,253.98 -413.94,253.98 -228.61,0 -413.94,-113.71 -413.94,-253.98 0,-140.27 185.33,-253.98 413.94,-253.98zm482.09 -575.25c228.62,0 413.94,113.71 413.94,253.98 0,140.27 -185.33,253.98 -413.94,253.98 -228.61,0 -413.94,-113.71 -413.94,-253.98 0,-140.27 185.33,-253.98 413.94,-253.98zm-204.2 -608.31c228.62,0 413.94,113.71 413.94,253.98 0,140.27 -185.33,253.98 -413.94,253.98 -228.61,0 -413.94,-113.71 -413.94,-253.98 0,-140.27 185.33,-253.98 413.94,-253.98zm-755.14 -477.43c228.61,0 413.94,113.71 413.94,253.98 0,140.27 -185.33,253.98 -413.94,253.98 -228.61,0 -413.94,-113.71 -413.94,-253.98 0,-140.27 185.33,-253.98 413.94,-253.98zm-990.08 0c228.61,0 413.94,113.71 413.94,253.98 0,140.27 -185.33,253.98 -413.94,253.98 -228.61,0 -413.94,-113.71 -413.94,-253.98 0,-140.27 185.33,-253.98 413.94,-253.98zm-746.88 477.43c228.61,0 413.94,113.71 413.94,253.98 0,140.27 -185.33,253.98 -413.94,253.98 -228.62,0 -413.94,-113.71 -413.94,-253.98 0,-140.27 185.33,-253.98 413.94,-253.98z"/>
    <path class="fil5" d="M442.62 1102.26c228.62,0 413.94,113.71 413.94,253.98 0,140.27 -185.33,253.98 -413.94,253.98 -228.61,0 -413.94,-113.71 -413.94,-253.98 0,-140.27 185.33,-253.98 413.94,-253.98zm523.4 575.25c228.61,0 413.94,113.71 413.94,253.98 0,140.27 -185.33,253.98 -413.94,253.98 -228.61,0 -413.94,-113.71 -413.94,-253.98 0,-140.27 185.33,-253.98 413.94,-253.98zm969.11 237.46c228.61,0 413.94,113.71 413.94,253.98 0,140.27 -185.33,253.98 -413.94,253.98 -228.61,0 -413.94,-113.71 -413.94,-253.98 0,-140.27 185.33,-253.98 413.94,-253.98zm950.69 -237.46c228.62,0 413.94,113.71 413.94,253.98 0,140.27 -185.33,253.98 -413.94,253.98 -228.61,0 -413.94,-113.71 -413.94,-253.98 0,-140.27 185.33,-253.98 413.94,-253.98zm482.09 -575.25c228.62,0 413.94,113.71 413.94,253.98 0,140.27 -185.33,253.98 -413.94,253.98 -228.61,0 -413.94,-113.71 -413.94,-253.98 0,-140.27 185.33,-253.98 413.94,-253.98zm-204.2 -608.31c228.62,0 413.94,113.71 413.94,253.98 0,140.27 -185.33,253.98 -413.94,253.98 -228.61,0 -413.94,-113.71 -413.94,-253.98 0,-140.27 185.33,-253.98 413.94,-253.98zm-755.14 -477.43c228.61,0 413.94,113.71 413.94,253.98 0,140.27 -185.33,253.98 -413.94,253.98 -228.61,0 -413.94,-113.71 -413.94,-253.98 0,-140.27 185.33,-253.98 413.94,-253.98zm-990.08 0c228.61,0 413.94,113.71 413.94,253.98 0,140.27 -185.33,253.98 -413.94,253.98 -228.61,0 -413.94,-113.71 -413.94,-253.98 0,-140.27 185.33,-253.98 413.94,-253.98zm-746.88 477.43c228.61,0 413.94,113.71 413.94,253.98 0,140.27 -185.33,253.98 -413.94,253.98 -228.62,0 -413.94,-113.71 -413.94,-253.98 0,-140.27 185.33,-253.98 413.94,-253.98z"/>
    <g>
     <circle class="fil3" transform="matrix(-0.199311 -0.159211 -0.159211 0.199311 1227.15 1600.32)" r="101.19"/>
     <circle class="fil3" transform="matrix(-0.199311 -0.159211 -0.159211 0.199311 1292.92 1517.98)" r="101.19"/>
     <circle class="fil3" transform="matrix(-0.199311 -0.159211 -0.159211 0.199311 1358.69 1435.65)" r="101.19"/>
    </g>
    <g>
     <circle class="fil3" transform="matrix(-0.0395096 -0.252017 -0.252017 0.0395096 995.777 1250.18)" r="101.19"/>
     <circle class="fil3" transform="matrix(-0.0395096 -0.252017 -0.252017 0.0395096 1099.89 1233.86)" r="101.19"/>
     <circle class="fil3" transform="matrix(-0.0395096 -0.252017 -0.252017 0.0395096 1203.99 1217.54)" r="101.19"/>
    </g>
    <g>
     <circle class="fil3" transform="matrix(0.0875795 -0.239589 -0.239589 -0.0875795 1151.72 865.125)" r="101.19"/>
     <circle class="fil3" transform="matrix(0.0875795 -0.239589 -0.239589 -0.0875795 1250.69 901.304)" r="101.19"/>
     <circle class="fil3" transform="matrix(0.0875795 -0.239589 -0.239589 -0.0875795 1349.66 937.483)" r="101.19"/>
    </g>
    <g>
     <circle class="fil3" transform="matrix(0.21159 -0.142488 -0.142488 -0.21159 1574.13 596.754)" r="101.19"/>
     <circle class="fil3" transform="matrix(0.21159 -0.142488 -0.142488 -0.21159 1632.99 684.16)" r="101.19"/>
     <circle class="fil3" transform="matrix(0.21159 -0.142488 -0.142488 -0.21159 1691.85 771.565)" r="101.19"/>
    </g>
    <g>
     <g>
      <path class="fil6" d="M1798.79 2006.31l0 231.81c0,7.2 1.11,14.03 4.58,17.95 3.35,3.78 8.21,8.02 14.95,8.17 15.04,0.34 30.58,-0.03 45.68,-0.03 30.63,0 61.26,0 91.9,0l-4.02 -11.99c-1.56,-3.82 -3.43,-2.74 -12.17,-3.84 -4.42,-0.56 -5.77,-0.47 -9.55,-1.72 -3.08,-1.02 -5.01,-1.81 -7.45,-3.22 -7.62,-4.37 -11.66,-10.97 -13.65,-19.55l-94.27 0 0 -219.96c0,-3.32 1.16,-7.71 4.15,-7.71l163.04 0c2.16,0 4.15,2.89 4.15,5.34l0 142.88c3.79,0 12.35,-2.11 16.01,-2.97l0 -135.17c0.01,-10.79 -1.99,-18.4 -10.47,-23.33 -1.9,-1.1 -5.83,-2.76 -8.5,-2.76l-164.23 0c-7.08,0 -11.75,4.07 -15.28,7.84 -3.69,3.93 -4.87,10.78 -4.87,18.25zm110.85 248.54l-18.35 0 0 -14.93 9.34 -7 9.01 6.75 0 15.18z"/>
      <g>
       <path class="fil6" d="M1978.4 2261.33c1.35,-0.64 6.82,-2.62 8.3,-2.96 0.33,3.91 2.28,4.69 2.37,8.89 -3.49,0.29 -5.29,2.12 -8.3,2.37 -0.24,-2.88 -1.92,-4.75 -2.37,-8.3zm-29.64 -129.84c5.25,0 6.73,6.28 8.08,10.3l10.05 27.9c3.54,9.15 2.34,12.2 9.14,12.2 1.52,0 3.56,-1.65 3.56,-4.74 0,-3.23 -3.57,-7.09 9.25,-10.32 2.38,-0.6 4.09,-0.08 6.41,-0.7 5.05,-1.36 9.22,-4 17.49,-1.38 0.9,0.28 4.53,1.73 5.39,1.73 14.59,0 15.6,-3.19 20.5,9.73 7.89,20.81 7.63,21.73 5.52,39.44 -0.56,4.71 0.27,6.07 0.66,10.71 -1.68,0.14 -5.84,1.79 -7.62,2.46l-46.11 16.73c-2.96,1 -4.88,2.04 -7.92,2.75 -1.09,-4.69 -5.01,-9.31 -8.3,-11.87 -20.83,-16.15 -43.28,-7.02 -43.28,-17.19 0,-9.43 29.74,-3.62 32.61,-3.56 4.53,-9.44 -1.36,-19.76 -4.08,-27.93 -2.34,-7.02 -17.22,-46.02 -17.49,-49.39 -0.31,-3.81 2.84,-6.86 6.15,-6.86zm6.52 72.92c-7.71,-0.64 -16.67,-1.61 -24.32,1.77 -13.23,5.85 -11.76,21.63 0.41,26.88 6.48,2.8 16.72,2.04 25.76,5.07 8.83,2.95 13.14,6.2 17.11,13.71l-7.68 2.46c0.61,2.65 1.52,4.46 2.42,6.95 0.87,2.43 1.78,4.76 2.67,7.41 0.92,2.72 1.73,4.59 2.52,6.97 0.83,2.52 2.23,5.01 2.44,7.63 2.24,-0.18 4.18,-1.08 5.93,-1.78 1.98,-0.79 3.95,-1.35 6.1,-2.2 4.01,-1.59 7.91,-2.86 11.76,-4.25 7.84,-2.82 15.68,-5.47 23.47,-8.55l35.24 -12.78c2.2,-0.82 3.85,-1.34 6.09,-2.21 2.11,-0.81 4.2,-1.54 6.27,-2.03 -0.05,-2.2 -8.59,-25.94 -10.08,-29.05 -2.12,0.18 -5.47,1.58 -7.11,2.37 -0.1,-4.59 -1.11,-0.03 0.18,-8.71l1.01 -12.04c0,-10.16 -7.25,-31.34 -11.25,-37.36 -9.46,-14.24 -19.39,-6.29 -26.63,-8.94 -6.88,-2.52 -13.28,-3.27 -20.83,-1.15 -4.97,1.4 -0.04,0.63 -8.03,2.05 -6.4,1.14 -9.4,3.27 -13.88,6.27 -0.14,-1.7 -11.52,-33.84 -13.76,-36.04 -12.3,-12.12 -35.4,-2.59 -26.14,20.8l20.33 56.74z"/>
       <path class="fil6" d="M1883.54 2125.57c-1.3,-0.87 -1.66,-1.24 -2.72,-2.62l-17.42 -21.11c-0.99,-1 -0.07,-0.71 -1.79,-1.17 -0.95,4.07 -2.31,8.45 -3.63,12.37l-7.42 24.6c-1.21,4.1 -2.84,8.24 -3.77,12.24 -2.27,-1.09 -5.12,-2.05 -7.62,-3.05 -2.14,-0.86 -5.74,-2.66 -8.38,-2.88 -0.86,3.7 -3.92,8.42 -4.15,11.26 2.31,0.19 4.92,1.66 6.95,2.54l20.92 8.13 12.45 -40.32 8.17 9.62c1.48,1.69 2.63,3.04 4.1,4.79 1.72,2.05 2.08,3.05 4.33,4.56l35.4 -44.04c1.99,-1.65 24.14,-9.73 28.38,-11.35l21.34 -8.3c2.58,-1.03 4.73,-2.09 7.37,-2.71 -0.36,-4.33 -3.25,-7.57 -3.56,-11.26 -3.58,0.08 -46.02,17.42 -53.43,20.09 -1.93,0.69 -4.61,1.63 -6.37,2.52 -2.24,1.13 -10.66,12.6 -12.72,15.15l-16.41 20.94z"/>
       <path class="fil6" d="M1906.07 2040.19c-3.63,-0.3 -3.03,-1.78 -9.49,-1.78 -4.23,0 -5.34,2.35 -5.34,5.34 0,5.87 17.79,5.26 17.79,16.6 0,3.5 -0.38,6.69 -3.77,9.27 -6.91,5.25 -6.9,-1.55 -6.9,9.7l-4.74 0c0,-8.2 0.35,-5.86 -4.88,-6.98 -2.63,-0.56 -3.63,-1.41 -5.8,-1.91 0.32,-1.35 1.27,-4.86 1.78,-5.93 5.01,2.65 16.6,5.74 16.6,-3.56 0,-7.23 -17.79,-3.55 -17.79,-18.38 0,-3.83 3.36,-7.12 6.97,-8.44 3.48,-1.27 3.11,1.14 3.11,-7.56 6.24,0 5.34,-0.94 5.34,6.52 3.45,0 5.2,0.29 8.3,1.78 -0.16,1.96 -0.77,3.56 -1.18,5.33l0 0zm-39.72 9.49c0,14.29 4.94,24 18.17,30.45 7.28,3.55 16.86,3.55 24.13,0 18.34,-8.94 23.6,-29.53 12.49,-45.52l-2.97 -3.55c-21.6,-21.46 -51.82,-1.73 -51.82,18.62z"/>
      </g>
     </g>
     <polygon class="fil7" points="1806.2,2306.22 1791.16,2306.22 1791.16,2327.42 1805.02,2327.42 1805.02,2331.87 1791.16,2331.87 1791.16,2357.68 1785.41,2357.68 1785.41,2301.83 1806.2,2301.83 "/>
     <polygon id="_1" class="fil7" points="1820.21,2357.68 1814.47,2357.68 1814.47,2301.83 1820.21,2301.83 "/>
     <polygon id="_2" class="fil7" points="1857.58,2357.68 1853.62,2357.68 1836.37,2316.61 1836.37,2357.68 1830.96,2357.68 1830.96,2301.83 1835.26,2301.83 1852.17,2342.19 1852.17,2301.83 1857.58,2301.83 "/>
     <path id="_3" class="fil7" d="M1893.91 2357.68l-5.66 0 -2.27 -12.35 -12.86 0 -2.28 12.35 -5.49 0 0 -0.15 11.49 -55.85 5.66 0 11.41 55.99zm-8.67 -16.74l-5.66 -30.31 -5.72 30.31 11.38 0z"/>
     <polygon id="_4" class="fil7" points="1928.29,2357.68 1924.34,2357.68 1907.08,2316.61 1907.08,2357.68 1901.67,2357.68 1901.67,2301.83 1905.97,2301.83 1922.88,2342.19 1922.88,2301.83 1928.29,2301.83 "/>
     <path id="_5" class="fil7" d="M1964.46 2353.54c0,1.22 -0.45,2.22 -1.35,2.98 -0.9,0.77 -2.06,1.16 -3.44,1.16l-16.28 0c-1.41,0 -2.56,-0.39 -3.45,-1.16 -0.89,-0.77 -1.34,-1.77 -1.34,-2.98l0 -47.56c0,-1.22 0.45,-2.22 1.34,-2.98 0.89,-0.77 2.04,-1.16 3.45,-1.16l16.28 0c1.38,0 2.53,0.39 3.44,1.16 0.9,0.77 1.35,1.77 1.35,2.98l0 12.82 -5.75 0 0 -12.57 -14.37 0 0 47.08 14.37 0 0 -13.74 5.75 0 0 13.99z"/>
     <polygon id="_6" class="fil7" points="1995.71,2357.68 1974.5,2357.68 1974.5,2301.83 1995.46,2301.83 1995.46,2306.22 1980.25,2306.22 1980.25,2327.05 1994.1,2327.05 1994.1,2331.51 1980.25,2331.51 1980.25,2353.29 1995.71,2353.29 "/>
     <polygon id="_7" class="fil7" points="2010.75,2357.68 2005,2357.68 2005,2301.83 2010.75,2301.83 "/>
     <path id="_8" class="fil7" d="M2048.96 2357.68l-6 0 -12 -29.92 0.79 -1 10.2 0 0 -20.54 -14.7 0 0 51.46 -5.75 0 0 -55.85 21.41 0c1.41,0 2.56,0.39 3.45,1.16 0.89,0.77 1.34,1.77 1.34,2.99l0 20.88c0,2.77 -2.08,4.14 -6.27,4.14 -0.41,0 -1.01,-0.01 -1.82,-0.05 -0.79,-0.03 -1.37,-0.06 -1.73,-0.06 3.72,8.91 7.41,17.84 11.08,26.79z"/>
     <path id="_9" class="fil7" d="M2084.86 2353.54c0,1.22 -0.45,2.22 -1.35,2.98 -0.89,0.77 -2.04,1.16 -3.44,1.16l-17.72 0c-1.41,0 -2.56,-0.39 -3.45,-1.16 -0.89,-0.77 -1.34,-1.77 -1.34,-2.98l0 -47.56c0,-1.22 0.45,-2.22 1.34,-2.98 0.89,-0.77 2.04,-1.16 3.45,-1.16l17.72 0c1.39,0 2.55,0.39 3.44,1.16 0.9,0.77 1.35,1.77 1.35,2.98l0 47.56zm-5.75 -0.24l0 -47.08 -15.8 0 0 47.08 15.8 0z"/>
    </g>
    <g>
     <g>
      <path class="fil6" d="M2831.95 1776.3c-19.64,0 -32.63,29.77 -3.13,41.41 8.3,3.28 21.88,5.13 21.88,16.4 0,11.13 -10.12,11.72 -17.19,11.72 -8.37,0 -12.5,-6.35 -12.5,-14.84l-12.5 0c0,14.47 9.4,23.43 22.65,23.43l0 10.15 10.15 0 0 -10.15c10.37,0 21.87,-7.97 21.87,-17.97 0,-23.79 -16.22,-21.05 -31.27,-28.88 -14.66,-7.63 -6,-22.68 2.37,-22.68 9.75,0 15.62,2.88 15.62,15.62l12.5 0c0,-13.79 -8.02,-24.21 -20.31,-24.21l0 -11.72 -10.16 0 0 11.72z"/>
      <path class="fil6" d="M2742.12 1752.09c7.18,0 15.04,3.98 18.96,7.6 1.56,1.45 4.52,5.54 5.73,7.55 1.42,2.34 3.17,6.75 3.43,9.85l-56.24 0c1.1,-13.15 14.89,-25 28.12,-25zm194.08 0c18.19,0 42.02,-1.66 48.37,23.14 3.01,11.73 1.27,54.54 1.27,70.6 0,47.91 0,95.82 0,143.73l-15.24 0 -96.43 0c-5.23,0 -10.46,0.03 -15.69,-0.02 -18.86,-0.18 -2.98,13.52 -20.08,29.13 -13.17,12.03 -31.05,10.64 -45.18,-2.55 -5.23,-10.85 -7.38,-7.63 -7.37,-28.12 0.02,-26.89 0.92,-204.7 -0.42,-212.06 -2.39,-13.17 -6.31,-15.23 -12.08,-23.85l31.29 0 58.04 0 73.51 0zm34.41 249.97l87.1 0c-1.05,12.61 -13.59,25.02 -30.45,25.03 -18.88,0 -37.77,-0.03 -56.65,-0.03l-96.43 0 -25.82 0c4.91,-7.34 8.81,-11.52 10.55,-20.69 0.95,-5 -1.94,-4.31 15.27,-4.31l96.43 0zm0 37.5c18.88,0 37.76,-0.04 56.63,0 16.82,0.04 29.45,-5.68 38.4,-18.63 3.52,-5.1 7.03,-12.76 7.67,-20.47 1.13,-13.6 -5.88,-10.9 -17.95,-10.9 -19.01,0 -38.02,0 -57.03,0l0 -195.29c0,-18.62 -0.33,-31.25 -14.65,-43.94 -14.19,-12.57 -28.17,-10.74 -47.49,-10.74l-73.51 0 -58.04 0c-19.28,0 -38.57,0 -57.85,0 -10.46,-0 -17.55,0.68 -24.48,4.42 -6.48,3.51 -11.38,7.54 -15.6,13.31 -3.92,5.36 -7.39,12.77 -8.26,20.65 -1.56,14.04 5.06,11.62 17.1,11.62 19.27,-0 38.54,0 57.81,0l0 195.29c0,18.74 -0.02,29.89 13.85,43.17 2.01,1.93 2.88,2.12 4.9,4.04 5.35,2.97 8.35,4.91 15.02,6.51 6.16,1.48 14.31,0.96 21.68,0.96 15.12,0 30.24,0 45.36,0l96.43 0z"/>
      <path class="fil6" d="M2891.32 1852.08l64.84 0c6.29,0 6.29,-12.5 0,-12.5l-64.84 0c-7.89,0 -7.89,12.5 0,12.5z"/>
      <path class="fil6" d="M2891.32 1814.58l64.84 0c6.29,0 6.29,-12.5 0,-12.5l-64.84 0c-7.89,0 -7.89,12.5 0,12.5z"/>
      <polygon class="fil6" points="2862.69,1889.57 2862.69,1877.07 "/>
      <polygon class="fil6" points="2862.69,1889.57 2862.69,1877.07 "/>
      <polygon class="fil6" points="2862.69,1927.07 2862.69,1914.57 "/>
      <polygon class="fil6" points="2862.69,1927.07 2862.69,1914.57 "/>
      <polygon class="fil6" points="2862.69,1964.56 2862.69,1952.06 "/>
      <polygon class="fil6" points="2862.69,1964.56 2862.69,1952.06 "/>
      <path class="fil6" d="M2820.47 1895.82l130.88 0c12.7,0 12.7,-12.5 0,-12.5l-130.88 0c-15.94,0 -15.94,12.5 0,12.5z"/>
      <path class="fil6" d="M2820.47 1927.07l130.88 0c12.7,0 12.7,-12.5 0,-12.5l-130.88 0c-15.94,0 -15.94,12.5 0,12.5z"/>
      <path class="fil6" d="M2820.47 1958.32l130.88 0c12.7,0 12.7,-12.5 0,-12.5l-130.88 0c-15.94,0 -15.94,12.5 0,12.5z"/>
     </g>
     <polygon class="fil7" points="2724.6,2072.03 2709.56,2072.03 2709.56,2093.23 2723.42,2093.23 2723.42,2097.69 2709.56,2097.69 2709.56,2123.49 2703.81,2123.49 2703.81,2067.64 2724.6,2067.64 "/>
     <path id="_1_0" class="fil7" d="M2758.56 2123.49l-5.66 0 -2.27 -12.35 -12.86 0 -2.28 12.35 -5.49 0 0 -0.15 11.49 -55.85 5.66 0 11.41 55.99zm-8.67 -16.74l-5.66 -30.31 -5.72 30.31 11.38 0z"/>
     <polygon id="_2_1" class="fil7" points="2788.54,2072.03 2778.57,2072.03 2778.57,2123.49 2772.82,2123.49 2772.82,2072.03 2762.77,2072.03 2762.77,2067.64 2788.54,2067.64 "/>
     <path id="_3_2" class="fil7" d="M2822.08 2119.35c0,1.22 -0.45,2.22 -1.35,2.98 -0.89,0.77 -2.04,1.16 -3.44,1.16l-17.21 0c-1.41,0 -2.56,-0.39 -3.45,-1.16 -0.89,-0.77 -1.34,-1.77 -1.34,-2.98l0 -51.71 5.75 0 0 51.46 15.29 0 0 -51.46 5.75 0 0 51.71z"/>
     <path id="_4_3" class="fil7" d="M2859.85 2123.49l-6 0 -12 -29.92 0.79 -1 10.2 0 0 -20.54 -14.7 0 0 51.46 -5.75 0 0 -55.85 21.41 0c1.41,0 2.56,0.39 3.45,1.16 0.89,0.77 1.34,1.77 1.34,2.99l0 20.88c0,2.77 -2.08,4.14 -6.27,4.14 -0.41,0 -1.02,-0.01 -1.82,-0.05 -0.79,-0.03 -1.37,-0.06 -1.73,-0.06 3.72,8.91 7.41,17.84 11.08,26.79z"/>
     <path id="_5_4" class="fil7" d="M2894.48 2123.49l-5.66 0 -2.27 -12.35 -12.86 0 -2.28 12.35 -5.49 0 0 -0.15 11.49 -55.85 5.66 0 11.41 55.99zm-8.67 -16.74l-5.66 -30.31 -5.72 30.31 11.38 0z"/>
     <path id="_6_5" class="fil7" d="M2934.27 2123.49l-5.41 0 0 -35.37c0,-0.5 0.2,-1.96 0.58,-4.39l-10.61 34.49 -1.15 0 -10.6 -34.49c0.38,2.45 0.58,3.91 0.58,4.39l0 35.37 -5.41 0 0 -55.85 5.32 0 10.52 36.32c0.06,0.18 0.11,0.72 0.17,1.6 0,-0.35 0.06,-0.89 0.17,-1.6l10.52 -36.32 5.32 0 0 55.85z"/>
     <polygon id="_7_6" class="fil7" points="2965.7,2123.49 2944.49,2123.49 2944.49,2067.64 2965.45,2067.64 2965.45,2072.03 2950.24,2072.03 2950.24,2092.86 2964.09,2092.86 2964.09,2097.32 2950.24,2097.32 2950.24,2119.11 2965.7,2119.11 "/>
     <polygon id="_8_7" class="fil7" points="3001.28,2123.49 2997.32,2123.49 2980.07,2082.42 2980.07,2123.49 2974.66,2123.49 2974.66,2067.64 2978.95,2067.64 2995.87,2108.01 2995.87,2067.64 3001.28,2067.64 "/>
     <polygon id="_9_8" class="fil7" points="3033.81,2072.03 3023.84,2072.03 3023.84,2123.49 3018.09,2123.49 3018.09,2072.03 3008.03,2072.03 3008.03,2067.64 3033.81,2067.64 "/>
     <path id="_10" class="fil7" d="M3067.85 2119.35c0,1.22 -0.45,2.22 -1.35,2.98 -0.89,0.77 -2.04,1.16 -3.43,1.16l-17.72 0c-1.41,0 -2.56,-0.39 -3.45,-1.16 -0.89,-0.77 -1.34,-1.77 -1.34,-2.98l0 -47.56c0,-1.22 0.45,-2.22 1.34,-2.99 0.89,-0.77 2.04,-1.16 3.45,-1.16l17.72 0c1.39,0 2.55,0.39 3.43,1.16 0.9,0.77 1.35,1.77 1.35,2.99l0 47.56zm-5.75 -0.24l0 -47.08 -15.8 0 0 47.08 15.8 0z"/>
    </g>
    <g>
     <g>
      <path class="fil6" d="M3278.9 1479.88l-9.34 -9.73 26.7 -26.35 9.71 9.38 -27.07 26.71zm38.18 -340.92l5.85 0c6.95,0.72 13.58,3.99 19.14,9.53 7.79,7.77 10.71,20.98 5.37,32.11 9.84,0.82 20.12,10.84 20.12,21.51l0 38.86c0,2.72 -3.17,4.07 -5.31,5.1 -2.38,1.15 -4.35,2.1 -6.48,3.23l0 34.7c4.81,-0.4 7.87,-1.99 20.81,-2.84l10.44 0.05c2.98,0.07 7.17,0.82 9.7,1.41l0 -33.31c-2.59,-1.37 -5.19,-2.39 -7.81,-3.99 -2.76,-1.69 -3.99,-3.61 -3.99,-7.81 0,-14.46 -2.35,-39.35 5.37,-48.07 3.37,-3.82 8.82,-8.69 15.45,-8.84 -3.95,-7.47 -3.57,-17.21 0.21,-24.77 5.31,-10.6 14.86,-15.99 24.41,-16.87l5.63 0c5.43,0.5 10.59,2.47 14.66,5.75l3.6 3.34c8.03,8.3 11.21,21.99 5.62,32.56 10.86,0.24 20.82,11.65 20.82,26.37l0 30.54c0,4.19 -1.23,6.11 -3.99,7.81 -2.62,1.6 -5.22,2.62 -7.81,3.99 0,69.59 4.85,61.77 -22.21,61.77 0.81,3.03 16.68,17.94 20.63,43.91 11.67,76.89 -67.78,126.16 -128.2,94.19 -2.94,1.97 -8.39,8.01 -11.28,10.93 -7.43,7.52 -8.48,5.06 -13.71,1.56 -2.66,3.97 -12.43,12.78 -16.48,16.83 -9.95,9.95 -14.25,14.97 -17.76,15.79l-2.02 0c-2.91,-0.69 -5.93,-4.37 -12.15,-10.58 -6.12,-6.12 -10.58,-8.67 -10.58,-14.4 0,-2.93 30.39,-32.51 32.62,-34 -3.5,-5.23 -5.96,-6.27 1.56,-13.71 2.92,-2.89 8.96,-8.34 10.93,-11.28 -11.53,-21.79 -13.36,-52.36 -2.55,-75.42 3.57,-7.62 5.77,-11.69 10.78,-18.37 1.37,-1.84 3.14,-3.78 4.26,-5.45 -5.22,0 -18.46,0.66 -22.75,-0.15 -6.9,-1.3 -5.7,-8.36 -5.7,-16.51 0,-15.04 0,-30.07 0,-45.11 -15.09,-7.98 -11.8,-1.96 -11.8,-43.72 0,-13.25 10.08,-24.15 20.13,-24.98 -0.35,-4.14 -2.08,-4.73 -2.08,-12.49 0,-10.97 7,-21.92 16.65,-26.38 3.28,-1.51 6.6,-2.43 9.91,-2.77zm-17.7 290.27l7.64 -7.97c5.45,8.05 13.1,15.7 20.99,20.99l-7.47 7.8 -21.16 -20.81zm84.15 17.18c-19.66,0 -26.44,-1.52 -43.03,-10.41 -8.54,-4.58 -17.47,-13.62 -23.2,-21.22 -16.44,-21.77 -18.97,-54.21 -6.88,-78.26 6.46,-12.86 14.42,-22.23 26.04,-30.17 4.01,-2.74 7.36,-4.51 12.13,-6.61 71.01,-31.39 136.7,50.72 94.77,112.82 -12.63,18.71 -35.87,33.86 -59.83,33.86zm31.92 -276.21l0 -3.47c0,-8.57 8.97,-15.79 17.35,-15.79 8.38,0 17.35,7.22 17.35,15.79 0,15.89 -8.43,13.17 -7.93,20.01 0.85,11.8 18.16,-0.89 24.83,12.36 1.54,3.06 1.15,7.05 1.15,11.35 -0.01,8.56 0,17.12 0,25.68 -2.09,0.48 -11.8,4.24 -11.8,8.33l0 54.13c-31.48,0 -18.07,1.97 -34.23,-6.71 -6.6,-3.54 -8.3,-3.54 -12.96,-5.78 0,-5.54 1.22,-41.31 -1.32,-44.49 -1.42,-1.77 -7.89,-4.88 -10.48,-5.48 0,-21.53 -5.01,-43.4 12.46,-43.76 10.03,-0.2 13.22,1.34 13.22,-7.6 0,-2.36 -7.63,-6.63 -7.63,-14.58zm-59.69 65.93c-2.04,0.48 -9.46,4.04 -10.58,5.38 -2.28,2.73 -1.22,10.25 -1.22,14.75 0,10.64 0,21.28 0,31.92l-5.54 2.8c-0.04,-11.76 2.29,-10.43 -10.42,-10.43 -3.26,0 -2.08,4.26 -2.08,12.49l8.33 0c-2.17,1.89 -6.99,5.55 -9.72,5.55l-27.76 0 0 -52.74c0,-5.56 -8.48,-8.94 -11.8,-9.72 0,-7.76 -1.2,-31.52 0.94,-36.53 6.18,-14.5 24.74,-0.17 24.74,-13.43 0,-6.66 -7.63,-3.66 -7.63,-19.43 0,-8.38 8.97,-16.11 17.29,-15.85 8.97,0.28 17.41,7.19 17.41,17.93 0,10.57 -7.41,12.18 -8.09,16.9 -0.45,3.17 2.24,6.25 5.36,6.66 11.37,1.5 20.83,-3.83 20.78,18.08 -0.02,8.56 -0,17.12 -0,25.68z"/>
      <path class="fil6" d="M3382.84 1422.8c-10.57,0 -16.19,-0.1 -26.15,-5.08 -16.69,-8.34 -30.07,-25.99 -30.07,-44.19 0,-13.92 1.65,-23.92 10.1,-35.01 6.08,-7.98 12.3,-13.34 22.11,-17.45 40.04,-16.75 81.28,18.02 72.54,60.05 -2.18,10.5 -6.87,17.7 -13.35,25.52 -6.82,8.24 -23.62,16.16 -35.19,16.16zm-68.71 -54.13c0,15.34 3.97,27.07 11.93,38.73 2.55,3.73 4.2,5.5 7.33,8.63 23.74,23.74 60.25,25.68 86.64,5.09 12.07,-9.41 24.57,-27.92 24.57,-47.6l0 -7.63c0,-30.71 -30.36,-61.07 -61.07,-61.07 -13.32,0 -20.39,0.54 -32.62,6.25 -4.72,2.2 -14.53,9.1 -18.14,13.09 -0.78,0.86 -0.57,0.86 -1.5,1.97 -10.05,12.02 -17.14,24.6 -17.14,42.55z"/>
      <path class="fil6" d="M3337.73 1370.06l12.49 0c0,-12.03 7.17,-22.53 17.34,-27.08 4.44,-1.98 7.58,-1.62 12.5,-2.77 0,-2.34 0.04,-4.67 0.06,-7 0.03,-3.67 0.47,-4.8 -2.84,-4.8 -20.09,0 -39.56,18.99 -39.56,41.64z"/>
      <path class="fil6" d="M3307.89 1200.03c0,11.93 -1.32,10.41 6.25,10.41l0 23.6 12.49 0 0 -23.6 5.55 0 0 -12.49 -22.21 0c-1.6,0 -2.08,0.48 -2.08,2.08z"/>
      <polygon class="fil6" points="3421.01,1210.44 3426.56,1210.44 3426.56,1234.03 3439.05,1234.03 3439.05,1210.44 3444.6,1210.44 3444.6,1197.94 3421.01,1197.94 "/>
      <path class="fil6" d="M3438.36 1282.61l0 10.41 12.49 0c0,-15 2.35,-12.49 -10.41,-12.49 -1.6,0 -2.08,0.48 -2.08,2.08z"/>
      <polygon class="fil6" points="3361.16,1482.49 3373.65,1482.49 3373.65,1470.69 3361.16,1470.69 "/>
      <polygon class="fil6" points="3384.76,1482.49 3397.25,1482.49 3397.25,1470.69 3384.76,1470.69 "/>
      <polygon class="fil6" points="3456.24,1482.49 3468.73,1482.49 3468.73,1470.69 3456.24,1470.69 "/>
      <polygon class="fil6" points="3409.05,1482.49 3420.84,1482.49 3420.84,1470.69 3409.05,1470.69 "/>
      <polygon class="fil6" points="3432.64,1482.49 3444.44,1482.49 3444.44,1470.69 3432.64,1470.69 "/>
     </g>
     <polygon class="fil7" points="3284.82,1522.06 3274.85,1522.06 3274.85,1573.52 3269.1,1573.52 3269.1,1522.06 3259.04,1522.06 3259.04,1517.67 3284.82,1517.67 "/>
     <path id="_1_9" class="fil7" d="M3319.03 1573.52l-6 0 -12 -29.92 0.79 -1 10.2 0 0 -20.54 -14.7 0 0 51.46 -5.75 0 0 -55.85 21.41 0c1.41,0 2.56,0.39 3.45,1.16 0.89,0.77 1.34,1.77 1.34,2.99l0 20.88c0,2.77 -2.08,4.14 -6.27,4.14 -0.41,0 -1.01,-0.01 -1.82,-0.05 -0.79,-0.03 -1.37,-0.06 -1.73,-0.06 3.72,8.91 7.41,17.84 11.08,26.79z"/>
     <polygon id="_2_10" class="fil7" points="3333.71,1573.52 3327.97,1573.52 3327.97,1517.67 3333.71,1517.67 "/>
     <path id="_3_11" class="fil7" d="M3370.49 1573.52l-5.66 0 -2.27 -12.35 -12.86 0 -2.28 12.35 -5.49 0 0 -0.15 11.49 -55.85 5.66 0 11.41 55.99zm-8.67 -16.74l-5.66 -30.31 -5.72 30.31 11.38 0z"/>
     <path id="_4_12" class="fil7" d="M3404.36 1569.38c0,1.22 -0.45,2.22 -1.34,2.98 -0.89,0.77 -2.04,1.16 -3.45,1.16l-16.53 0c-1.41,0 -2.56,-0.39 -3.45,-1.16 -0.89,-0.77 -1.34,-1.77 -1.34,-2.98l0 -47.56c0,-1.22 0.45,-2.22 1.34,-2.98 0.89,-0.77 2.04,-1.16 3.45,-1.16l16.53 0c1.41,0 2.56,0.39 3.45,1.16 0.89,0.77 1.34,1.77 1.34,2.98l0 12.82 -5.75 0 0 -12.57 -14.62 0 0 47.08 14.62 0 0 -19.3 -6.93 0 0 -4.31 12.67 0 0 23.85z"/>
     <polygon id="_5_13" class="fil7" points="3435.81,1573.52 3414.6,1573.52 3414.6,1517.67 3435.55,1517.67 3435.55,1522.06 3420.34,1522.06 3420.34,1542.9 3434.2,1542.9 3434.2,1547.35 3420.34,1547.35 3420.34,1569.14 3435.81,1569.14 "/>
     <path id="_6_14" class="fil7" d="M3476.79 1573.52l-5.41 0 0 -35.37c0,-0.5 0.2,-1.96 0.58,-4.39l-10.6 34.49 -1.16 0 -10.6 -34.49c0.38,2.45 0.58,3.91 0.58,4.39l0 35.37 -5.41 0 0 -55.85 5.33 0 10.52 36.32c0.06,0.18 0.11,0.72 0.17,1.6 0,-0.35 0.06,-0.89 0.17,-1.6l10.52 -36.32 5.32 0 0 55.85z"/>
    </g>
    <g>
     <g>
      <path class="fil6" d="M3056.86 706.41l27.55 0c1.93,0 3.49,1.56 3.49,3.49l0 24.56c0,1.93 -1.57,3.49 -3.49,3.49l-27.55 0c-1.93,0 -3.49,-1.56 -3.49,-3.49l0 -24.56c-0,-1.93 1.56,-3.49 3.49,-3.49z"/>
      <path class="fil6" d="M3242.36 706.41l27.54 0c1.93,0 3.49,1.56 3.49,3.49l0 24.56c0,1.93 -1.56,3.49 -3.49,3.49l-27.54 0c-1.93,0 -3.49,-1.56 -3.49,-3.49l0 -24.56c0,-1.93 1.56,-3.49 3.49,-3.49z"/>
      <path class="fil6" d="M3118.69 706.41l27.54 0c1.93,0 3.49,1.56 3.49,3.49l0 24.56c0,1.93 -1.56,3.49 -3.49,3.49l-27.54 0c-1.93,0 -3.49,-1.56 -3.49,-3.49l0 -24.56c0,-1.93 1.56,-3.49 3.49,-3.49z"/>
      <path class="fil6" d="M3118.69 755.98l27.54 0c1.93,0 3.49,1.56 3.49,3.49l0 24.56c0,1.93 -1.56,3.49 -3.49,3.49l-27.54 0c-1.93,0 -3.49,-1.56 -3.49,-3.49l0 -24.56c0,-1.93 1.56,-3.49 3.49,-3.49z"/>
      <path class="fil6" d="M3242.36 755.98l27.54 0c1.93,0 3.49,1.56 3.49,3.49l0 24.56c0,1.93 -1.56,3.49 -3.49,3.49l-27.54 0c-1.93,0 -3.49,-1.56 -3.49,-3.49l0 -24.56c0,-1.93 1.56,-3.49 3.49,-3.49z"/>
      <path class="fil6" d="M3180.52 755.98l27.55 0c1.93,0 3.49,1.56 3.49,3.49l0 24.56c0,1.93 -1.56,3.49 -3.49,3.49l-27.55 0c-1.93,0 -3.49,-1.56 -3.49,-3.49l0 -24.56c0,-1.93 1.56,-3.49 3.49,-3.49z"/>
      <path class="fil6" d="M3180.52 796.73l27.55 0c1.93,0 3.49,1.56 3.49,3.49l0 24.56c0,1.93 -1.56,3.49 -3.49,3.49l-27.55 0c-1.93,0 -3.49,-1.56 -3.49,-3.49l0 -24.56c0,-1.93 1.56,-3.49 3.49,-3.49z"/>
      <path class="fil6" d="M3056.86 796.73l27.55 0c1.93,0 3.49,1.56 3.49,3.49l0 24.56c0,1.93 -1.57,3.49 -3.49,3.49l-27.55 0c-1.93,0 -3.49,-1.56 -3.49,-3.49l0 -24.56c-0,-1.93 1.56,-3.49 3.49,-3.49z"/>
      <path class="fil6" d="M3118.69 796.73l27.54 0c1.93,0 3.49,1.56 3.49,3.49l0 24.56c0,1.93 -1.56,3.49 -3.49,3.49l-27.54 0c-1.93,0 -3.49,-1.56 -3.49,-3.49l0 -24.56c0,-1.93 1.56,-3.49 3.49,-3.49z"/>
      <circle class="fil6" cx="3132.46" cy="682.52" r="15.08"/>
      <circle class="fil6" cx="3194.3" cy="682.46" r="15.08"/>
      <circle class="fil6" cx="3256.13" cy="682.41" r="15.08"/>
      <circle class="fil6" cx="3070.63" cy="682.57" r="15.08"/>
      <path class="fil6" d="M3302.65 653.19c0.74,27.44 0.03,55.94 0.03,83.5 0,27.9 -0.02,55.8 -0.02,83.7 0,5.69 0.91,14.76 -1.31,19.55 -2.18,4.7 -6.76,7.62 -13.61,7.63l-124.74 -0.06c-27.89,-0.11 -55.81,-0.02 -83.7,-0.02 -55.29,0 -55.35,5.25 -55.44,-27.63 -0.07,-27.89 0.06,-55.81 0.05,-83.7l0.14 -82.8c3.54,-1.52 124.48,-0.45 139.48,-0.45 3.96,0 134.83,-0.42 139.11,0.3zm-19.77 -84.41l-11.35 0.04 -0.16 24.34 17.33 0.04c9.04,0.16 12.89,4.14 13.67,12.82 0.69,7.67 0.49,17.75 0.12,25.56 -3.73,0.95 -131.5,0.21 -138.96,0.21 -46.11,0 -93.16,0.86 -139.16,-0.09 -0.87,-4.1 -0.34,-17.47 -0.27,-22.45 0.11,-8.04 1.1,-12.34 7.36,-14.92 4.45,-1.83 36.54,-1.96 42.81,-1.17 1.42,17.27 17.09,14.25 21.2,10.13 3.8,-3.81 3.2,-9.16 3.35,-15.64 0.14,-5.86 1.25,-32.94 -0.26,-36.54 -1.57,-3.78 -6.4,-7.24 -11.72,-7.22 -15.4,0.07 -11.94,19.46 -12.7,25.09 -17.45,2.92 -42.3,-4.9 -59.38,7.07 -17.91,12.56 -15.91,30.65 -15.91,49.94l0.15 198.72c0,8.44 -1,24.28 1.51,31.26 7.55,20.94 30.24,16.53 49.61,16.53l231.12 0.05c8.7,0 24.48,1.12 31.42,-1.84 20.14,-8.61 15.49,-29.83 15.49,-50.32l0.05 -165.24c0,-15.64 2.05,-51.27 -2.93,-63.44 -3.38,-8.27 -8.51,-13.65 -15.25,-17.72 -8.75,-5.29 -15.95,-5.2 -27.17,-5.21z"/>
      <path class="fil6" d="M3228.56 567.98c-6.94,1.96 -88.7,-1.41 -108.08,0.37l-0.15 23.4c6.57,1.5 82.83,1.31 96.13,1.46 13.82,0.15 10.69,-0.82 11.61,4.38 2.35,13.17 24.17,13.17 24.63,-5.06 0.27,-10.78 0.16,-21.63 0.23,-32.42 0.04,-5.78 -0.46,-9.66 -3.64,-12.86 -2.63,-2.64 -6.85,-4.48 -11.82,-3.38 -10.52,2.34 -8.52,13.51 -8.92,24.11z"/>
      <g>
       <circle class="fil6" cx="3194.3" cy="726.38" r="19.81"/>
       <path class="fil8" d="M3185.09 724.75c-1.77,2.43 2.09,6.22 3.68,8.25 3.01,3.84 4.89,3.54 7.13,-0.16 3.41,-5.65 9.39,-12.05 7.79,-15.75 -5.79,-1.01 -7.04,9.16 -11.54,12.44 -1.26,-1.24 -1.8,-2.25 -2.79,-3.58 -2.1,-2.8 -3,-2.17 -4.27,-1.2z"/>
      </g>
      <g>
       <circle class="fil6" cx="3256.13" cy="812.5" r="19.81"/>
       <path class="fil8" d="M3246.92 810.86c-1.77,2.43 2.09,6.23 3.68,8.25 3,3.84 4.89,3.54 7.13,-0.16 3.42,-5.65 9.4,-12.05 7.79,-15.75 -5.79,-1.01 -7.04,9.16 -11.54,12.44 -1.26,-1.24 -1.8,-2.26 -2.79,-3.58 -2.1,-2.8 -3,-2.17 -4.27,-1.21z"/>
      </g>
      <g>
       <circle class="fil6" cx="3070.63" cy="771.75" r="19.81"/>
       <path class="fil8" d="M3061.42 770.11c-1.77,2.43 2.09,6.22 3.68,8.25 3.01,3.84 4.89,3.54 7.13,-0.16 3.42,-5.65 9.39,-12.05 7.79,-15.75 -5.79,-1.01 -7.04,9.16 -11.54,12.44 -1.26,-1.24 -1.8,-2.25 -2.79,-3.58 -2.1,-2.81 -3,-2.17 -4.27,-1.21z"/>
      </g>
     </g>
     <path class="fil7" d="M3091.05 952.32l-5.66 0 -2.27 -12.35 -12.86 0 -2.28 12.35 -5.49 0 0 -0.15 11.49 -55.85 5.66 0 11.41 56zm-8.68 -16.74l-5.66 -30.31 -5.72 30.31 11.38 0z"/>
     <path id="_1_15" class="fil7" d="M3124.92 948.18c0,1.22 -0.45,2.22 -1.34,2.98 -0.89,0.77 -2.04,1.16 -3.45,1.16l-16.53 0c-1.41,0 -2.56,-0.39 -3.45,-1.16 -0.89,-0.77 -1.34,-1.77 -1.34,-2.98l0 -47.56c0,-1.22 0.45,-2.22 1.34,-2.98 0.89,-0.77 2.04,-1.16 3.45,-1.16l16.53 0c1.41,0 2.56,0.39 3.45,1.16 0.89,0.77 1.34,1.77 1.34,2.98l0 12.82 -5.75 0 0 -12.57 -14.62 0 0 47.07 14.62 0 0 -19.3 -6.93 0 0 -4.31 12.68 0 0 23.85z"/>
     <polygon id="_2_16" class="fil7" points="3156.37,952.32 3135.16,952.32 3135.16,896.47 3156.11,896.47 3156.11,900.86 3140.9,900.86 3140.9,921.69 3154.76,921.69 3154.76,926.15 3140.9,926.15 3140.9,947.94 3156.37,947.94 "/>
     <polygon id="_3_17" class="fil7" points="3191.94,952.32 3187.99,952.32 3170.73,911.25 3170.73,952.32 3165.33,952.32 3165.33,896.47 3169.62,896.47 3186.53,936.84 3186.53,896.47 3191.94,896.47 "/>
     <path id="_4_18" class="fil7" d="M3228.87 942.22c0,2.94 -1.13,5.36 -3.37,7.25 -2.24,1.9 -5.07,2.85 -8.48,2.85l-14.77 0 0 -55.85 14.77 0c3.44,0 6.27,0.95 8.51,2.85 2.23,1.89 3.34,4.31 3.34,7.25l0 35.65zm-5.75 -0.5l0 -34.73c0,-1.83 -0.66,-3.31 -2,-4.45 -1.34,-1.13 -3.06,-1.69 -5.17,-1.69l-7.96 0 0 47.07 7.62 0c2.23,0 4.04,-0.55 5.42,-1.66 1.39,-1.11 2.08,-2.63 2.08,-4.56z"/>
     <path id="_5_19" class="fil7" d="M3264.95 952.32l-5.66 0 -2.27 -12.35 -12.86 0 -2.28 12.35 -5.49 0 0 -0.15 11.49 -55.85 5.66 0 11.41 56zm-8.68 -16.74l-5.66 -30.31 -5.72 30.31 11.38 0z"/>
    </g>
    <g>
     <g>
      <path class="fil6" d="M2371.12 114.52l22.61 0 0 -22.61 29.68 0 0 22.61 22.61 0 0 29.68 -22.61 0 0 22.61 -29.68 0 0 -22.61 -22.61 0 0 -29.68zm-38.16 14.84c0,30.06 17.93,56.3 42.14,68.09 21.13,10.29 44.8,9.86 65.97,0.45 36.06,-16.03 56.27,-65.37 33.25,-105.32 -11.7,-20.31 -32.86,-35.64 -56.68,-38.01 -19.63,-1.95 -35.13,1.73 -51.9,12.89 -19.68,13.08 -32.78,36.96 -32.78,61.9z"/>
      <path class="fil6" d="M2340.74 389.4l0 12.01 135.68 0c0,-3.4 0.6,-3.06 0.67,-5.69l-2.25 -17.46c-3.27,-15.46 -13.09,-30.03 -25.57,-39.45 -2.78,-2.1 -5.46,-3.42 -8.19,-5.24 -4.35,6.49 -18.67,14.13 -29.68,14.13l-5.65 0c-11.01,0 -25.33,-7.64 -29.68,-14.13 -4.61,3.09 -9.16,5.55 -13.26,9.35 -11.62,10.76 -22.08,29.06 -22.08,46.47z"/>
      <path class="fil6" d="M2234.74 367.5l0 3.53 92.57 0c2.74,0 3.2,-6.35 6.35,-12.73 5.8,-11.76 12.88,-21.05 23.08,-29.21 1.84,-1.48 0.58,-1.21 3.07,-1.87 -0.24,-2.86 -2.57,-5.25 -4.13,-7.18 -3.35,-4.14 -14.91,-14.98 -19.9,-16.14 -4.82,3.23 -4.06,4.51 -12.48,8.72 -12.5,6.25 -27.79,6.52 -40.3,0.24 -2.58,-1.29 -4.5,-2.51 -6.58,-4.02 -2.12,-1.54 -4.11,-3.45 -6.35,-4.95 -4.99,1.33 -16.57,11.93 -20.1,16.65 -10.07,13.43 -15.23,26.18 -15.23,46.95z"/>
      <path class="fil6" d="M2457.33 327.22c6.72,1.8 22.21,22.23 26.14,31.1 2.6,5.87 4,12.71 6.37,12.71l92.57 0c0,-4.58 -0.65,-6.9 -0.68,-12.04 -0.06,-10.42 -4.08,-21.09 -8.49,-29.67 -5,-9.71 -16.29,-20.21 -26.16,-25.43 -1.95,1.3 -4.02,3.41 -6.25,5.06 -15.66,11.56 -37.04,11.69 -52.81,0.3 -2.5,-1.81 -4.56,-3.95 -6.66,-5.36 -2.71,1.44 -4.67,2.49 -7.07,4.23 -5.09,3.69 -15.62,13.35 -16.95,19.09z"/>
      <path class="fil6" d="M2510.33 262.21c-7.2,0 -11.17,0.38 -18.14,-1.65 -2.01,-0.58 -2.99,-0.84 -4.97,-1.52 -4.47,-1.54 -3.75,-1.9 -3.75,8.82 0,15.27 4.62,25.56 16.71,32.04 11.38,6.1 25.67,3.41 34.97,-5.09 0.91,-0.83 2.33,-2.69 3.23,-3.84 7.64,-9.81 5.86,-21.82 5.86,-33.71 -7.09,0 -4.9,-4.95 -11.31,-4.95 -6.39,0 -8.91,9.89 -22.61,9.89z"/>
      <path class="fil6" d="M2298.34 262.21c-8.89,0 -17.55,-0.46 -25.44,-4.24 0,14.08 -1.2,23.36 4.93,31.82 12.17,16.81 35.29,17.62 47.54,3.69 8.79,-9.99 8.3,-19.25 8.3,-32.68 0,-4.84 -1.95,-2.68 -5.06,-4.83 -3.58,-2.47 -5.66,-6.45 -12.14,-1.06 -5.39,4.49 -9.97,7.31 -18.13,7.31z"/>
      <path class="fil6" d="M2402.92 292.59c-13.93,0 -13.6,-1.65 -24.73,-4.24 0,12.41 -0.94,21.95 4.08,29.84 4.21,6.61 10.61,12.47 19.54,14.38 19.81,4.23 37.15,-10.86 37.15,-29.38l0 -13.43c0,-2.88 -1.42,-1.03 -5.12,-4.07 -11.97,-9.84 -10.8,6.9 -30.92,6.9z"/>
      <path class="fil6" d="M2273.61 243.13l11.16 2.97c12.59,3.19 15.17,3.01 22.64,-3.09 10.03,-8.19 18.83,-3.86 24.14,-3.42 -5.53,-10.45 -13.75,-19.79 -27.56,-19.79 -15.69,0 -27.44,10.69 -30.39,23.32z"/>
      <path class="fil6" d="M2484.89 243.13c8.27,0.69 22.42,10.67 33.39,0.18 7.05,-6.75 15.55,-5.64 23.85,-3.71 -3.02,-12.98 -25.26,-28.94 -46.85,-12.93 -4.18,3.1 -9.86,10.17 -10.39,16.46z"/>
      <path class="fil6" d="M2379.6 273.52c2.69,0.22 6.65,1.73 9.48,2.53 6.49,1.85 8.11,1.71 14.55,1.71 6.31,0 7.15,-3.31 10.99,-5.96 9.46,-6.51 15.88,-3.29 22.22,-1.81 -2.45,-10.51 -14.87,-19.79 -29.68,-19.79 -12.27,0 -27.3,11.81 -27.56,23.32z"/>
     </g>
     <path class="fil7" d="M2314.95 460.65c0,1.2 -0.45,2.2 -1.35,2.97 -0.89,0.78 -2.04,1.17 -3.44,1.17l-15.07 0 0 22.15 -5.75 0 0 -55.85 20.81 0c1.39,0 2.55,0.39 3.44,1.16 0.9,0.77 1.35,1.77 1.35,2.98l0 25.42zm-5.75 -0.32l0 -24.85 -14.11 0 0 24.85 14.11 0z"/>
     <path id="_1_20" class="fil7" d="M2350.04 486.94l-5.66 0 -2.27 -12.35 -12.86 0 -2.28 12.35 -5.49 0 0 -0.15 11.49 -55.85 5.66 0 11.41 56zm-8.68 -16.74l-5.66 -30.31 -5.72 30.31 11.38 0z"/>
     <path id="_2_21" class="fil7" d="M2383.65 482.8c0,1.22 -0.45,2.22 -1.35,2.98 -0.9,0.77 -2.05,1.16 -3.43,1.16l-16.28 0c-1.41,0 -2.56,-0.39 -3.45,-1.16 -0.89,-0.77 -1.34,-1.77 -1.34,-2.98l0 -47.56c0,-1.22 0.45,-2.22 1.34,-2.98 0.89,-0.77 2.04,-1.16 3.45,-1.16l16.28 0c1.38,0 2.53,0.39 3.43,1.16 0.9,0.77 1.35,1.77 1.35,2.98l0 12.82 -5.75 0 0 -12.57 -14.37 0 0 47.08 14.37 0 0 -13.74 5.75 0 0 13.99z"/>
     <polygon id="_3_22" class="fil7" points="2399.78,486.94 2394.03,486.94 2394.03,431.09 2399.78,431.09 "/>
     <polygon id="_4_23" class="fil7" points="2431.73,486.94 2410.53,486.94 2410.53,431.09 2431.48,431.09 2431.48,435.48 2416.27,435.48 2416.27,456.31 2430.13,456.31 2430.13,460.77 2416.27,460.77 2416.27,482.55 2431.73,482.55 "/>
     <polygon id="_5_24" class="fil7" points="2467.31,486.94 2463.35,486.94 2446.1,445.87 2446.1,486.94 2440.69,486.94 2440.69,431.09 2444.99,431.09 2461.9,471.46 2461.9,431.09 2467.31,431.09 "/>
     <polygon id="_6_25" class="fil7" points="2499.84,435.48 2489.87,435.48 2489.87,486.94 2484.13,486.94 2484.13,435.48 2474.07,435.48 2474.07,431.09 2499.84,431.09 "/>
     <polygon id="_7_26" class="fil7" points="2527.8,486.94 2506.59,486.94 2506.59,431.09 2527.55,431.09 2527.55,435.48 2512.34,435.48 2512.34,456.31 2526.19,456.31 2526.19,460.77 2512.34,460.77 2512.34,482.55 2527.8,482.55 "/>
    </g>
    <g>
     <g>
      <path class="fil6" d="M1517.41 313.35c-1.26,2.25 -2.49,4.52 -3.7,6.79 -2.56,4.79 -5.06,9.62 -7.43,14.51 -0.86,1.78 -1.72,3.57 -2.52,5.38 -0.3,0.67 -0.7,1.53 -0.96,2.28l0 33.21c0,2.97 -2.42,5.39 -5.39,5.39l-221.31 0c-2.97,0 -5.39,-2.42 -5.39,-5.39l0 -296.02c0,-2.97 2.42,-5.39 5.39,-5.39l221.31 0c2.97,0 5.39,2.42 5.39,5.39l0 115.96c0.08,-0.14 0.17,-0.29 0.25,-0.43 1.9,-3.31 3.82,-6.62 5.72,-9.93 1.99,-3.46 3.98,-6.94 5.87,-10.46 0.76,-1.41 2.19,-3.9 2.76,-5.52l0 -89.62c0,-11.15 -8.84,-19.99 -19.99,-19.99l-221.31 0c-12.37,0 -21.4,10.82 -21.4,22.81l0 294.61c0,4.46 2.47,9.1 5.48,12.26 3.84,4.03 8.92,6.32 14.5,6.32l224.13 0c6.63,0 12.65,-3.27 15.95,-9.07 0.84,-1.48 1.47,-3.04 1.9,-4.7 0.77,-2.98 0.91,-6.17 0.92,-9.24 0.01,-4.16 -0.19,-8.32 -0.19,-12.49 0,-15.55 0,-31.1 0,-46.65z"/>
      <path class="fil6" d="M1455.13 351.55c7.14,-4.78 14.25,-8.43 22.02,-13.23 6.07,-3.75 4.43,-3.43 7.68,-9.23l83.07 -146.7 -25.37 -12.69c-1.43,5.35 -65.18,112.01 -73.79,127.79 -17.44,32.01 -13.61,12 -13.61,54.05z"/>
      <polygon class="fil6" points="1547.03,161.25 1572.41,173.77 1582.27,154.83 1556.9,142.31 "/>
      <circle class="fil6" cx="1313.12" cy="339.23" r="17.28"/>
      <circle class="fil6" cx="1366.69" cy="339.62" r="17.28"/>
      <g>
       <rect class="fil6" x="1295.84" y="279.65" width="138.14" height="18.33"/>
       <rect class="fil6" x="1295.84" y="241.59" width="180.43" height="18.33"/>
       <rect class="fil6" x="1295.84" y="199.29" width="138.14" height="18.33"/>
       <rect class="fil6" x="1295.84" y="159.54" width="180.43" height="18.33"/>
       <rect class="fil6" x="1295.84" y="118.08" width="138.14" height="18.33"/>
      </g>
     </g>
     <path class="fil7" d="M1274.3 455.22c0,1.21 -0.45,2.21 -1.35,2.97 -0.89,0.78 -2.04,1.17 -3.44,1.17l-15.07 0 0 22.15 -5.75 0 0 -55.85 20.81 0c1.39,0 2.55,0.39 3.44,1.16 0.9,0.77 1.35,1.77 1.35,2.99l0 25.41zm-5.75 -0.32l0 -24.85 -14.11 0 0 24.85 14.11 0z"/>
     <path id="_1_27" class="fil7" d="M1310.82 481.51l-6 0 -12 -29.92 0.79 -1 10.2 0 0 -20.54 -14.7 0 0 51.46 -5.75 0 0 -55.85 21.41 0c1.41,0 2.56,0.39 3.45,1.16 0.89,0.77 1.34,1.77 1.34,2.99l0 20.88c0,2.77 -2.08,4.14 -6.27,4.14 -0.41,0 -1.01,-0.01 -1.82,-0.05 -0.79,-0.03 -1.37,-0.06 -1.73,-0.06 3.72,8.91 7.41,17.84 11.08,26.79z"/>
     <path id="_2_28" class="fil7" d="M1346.71 477.37c0,1.22 -0.45,2.22 -1.35,2.98 -0.89,0.77 -2.04,1.16 -3.43,1.16l-17.72 0c-1.41,0 -2.56,-0.39 -3.45,-1.16 -0.89,-0.77 -1.34,-1.77 -1.34,-2.98l0 -47.56c0,-1.22 0.45,-2.22 1.34,-2.99 0.89,-0.77 2.04,-1.16 3.45,-1.16l17.72 0c1.39,0 2.55,0.39 3.43,1.16 0.9,0.77 1.35,1.77 1.35,2.99l0 47.56zm-5.75 -0.24l0 -47.08 -15.8 0 0 47.08 15.8 0z"/>
     <polygon id="_3_29" class="fil7" points="1379.23,430.05 1369.26,430.05 1369.26,481.51 1363.52,481.51 1363.52,430.05 1353.46,430.05 1353.46,425.66 1379.23,425.66 "/>
     <path id="_4_30" class="fil7" d="M1413.27 477.37c0,1.22 -0.45,2.22 -1.35,2.98 -0.89,0.77 -2.04,1.16 -3.44,1.16l-17.72 0c-1.41,0 -2.56,-0.39 -3.45,-1.16 -0.89,-0.77 -1.34,-1.77 -1.34,-2.98l0 -47.56c0,-1.22 0.45,-2.22 1.34,-2.99 0.89,-0.77 2.04,-1.16 3.45,-1.16l17.72 0c1.39,0 2.55,0.39 3.44,1.16 0.9,0.77 1.35,1.77 1.35,2.99l0 47.56zm-5.75 -0.24l0 -47.08 -15.8 0 0 47.08 15.8 0z"/>
     <path id="_5_31" class="fil7" d="M1449.43 477.37c0,1.22 -0.45,2.22 -1.35,2.98 -0.9,0.77 -2.05,1.16 -3.43,1.16l-16.28 0c-1.41,0 -2.56,-0.39 -3.45,-1.16 -0.89,-0.77 -1.34,-1.77 -1.34,-2.98l0 -47.56c0,-1.22 0.45,-2.22 1.34,-2.99 0.89,-0.77 2.04,-1.16 3.45,-1.16l16.28 0c1.38,0 2.53,0.39 3.43,1.16 0.9,0.77 1.35,1.77 1.35,2.99l0 12.82 -5.75 0 0 -12.57 -14.37 0 0 47.08 14.37 0 0 -13.74 5.75 0 0 13.99z"/>
     <path id="_6_32" class="fil7" d="M1486.76 477.37c0,1.22 -0.45,2.22 -1.35,2.98 -0.89,0.77 -2.04,1.16 -3.43,1.16l-17.72 0c-1.41,0 -2.56,-0.39 -3.45,-1.16 -0.89,-0.77 -1.34,-1.77 -1.34,-2.98l0 -47.56c0,-1.22 0.45,-2.22 1.34,-2.99 0.89,-0.77 2.04,-1.16 3.45,-1.16l17.72 0c1.39,0 2.55,0.39 3.43,1.16 0.9,0.77 1.35,1.77 1.35,2.99l0 47.56zm-5.75 -0.24l0 -47.08 -15.8 0 0 47.08 15.8 0z"/>
     <polygon id="_7_33" class="fil7" points="1517.68,481.51 1497.06,481.51 1497.06,425.66 1502.81,425.66 1502.81,477.12 1517.68,477.12 "/>
     <path id="_8_34" class="fil7" d="M1552.82 477.37c0,1.22 -0.45,2.22 -1.35,2.98 -0.89,0.77 -2.04,1.16 -3.44,1.16l-17.72 0c-1.41,0 -2.56,-0.39 -3.45,-1.16 -0.89,-0.77 -1.34,-1.77 -1.34,-2.98l0 -47.56c0,-1.22 0.45,-2.22 1.34,-2.99 0.89,-0.77 2.04,-1.16 3.45,-1.16l17.72 0c1.39,0 2.55,0.39 3.44,1.16 0.9,0.77 1.35,1.77 1.35,2.99l0 47.56zm-5.75 -0.24l0 -47.08 -15.8 0 0 47.08 15.8 0z"/>
     <path id="_9_35" class="fil7" d="M1588.29 477.37c0,1.22 -0.44,2.22 -1.32,2.98 -0.89,0.77 -2.04,1.16 -3.46,1.16l-15.86 0c-1.39,0 -2.55,-0.39 -3.43,-1.16 -0.9,-0.77 -1.35,-1.77 -1.35,-2.98l0 -13.99 5.75 0 0 13.74 13.94 0 0 -13.34 -17.83 -18.59c-1.24,-1.28 -1.86,-2.69 -1.86,-4.23l0 -11.16c0,-1.22 0.45,-2.22 1.35,-2.99 0.89,-0.77 2.04,-1.16 3.43,-1.16l15.86 0c1.42,0 2.58,0.39 3.46,1.16 0.89,0.77 1.32,1.77 1.32,2.99l0 12.82 -5.75 0 0 -12.57 -13.94 0 0 11.81 17.92 18.58c1.18,1.24 1.77,2.63 1.77,4.17l0 12.77z"/>
    </g>
    <g>
     <g>
      <g>
       <path class="fil6" d="M769.15 881.51l5.75 0c11.76,-1.22 25.37,-10.7 25.37,-23.56l0 -8.29c0,-10.53 -13.04,-23.56 -23.56,-23.56l-8.3 0c-11.06,0 -23.56,13.89 -23.56,24.75 0,9.39 1.02,15.85 7.93,22.71 4.52,4.48 10.04,7.31 16.38,7.97z"/>
      </g>
      <g>
       <path class="fil6" d="M600.88 881.51l4.3 0c14.91,-1.05 25.29,-11.95 26.56,-26.74 0.57,-6.6 -3.01,-14.07 -7.09,-19.05 -4.23,-5.16 -10.49,-9.63 -17.41,-9.63l-8.29 0c-12.56,0 -23.56,15.28 -23.56,27.12 0,7.31 2.57,14.52 7.55,19.91 4.68,5.07 11.12,7.9 17.95,8.39z"/>
      </g>
      <g>
       <path class="fil6" d="M626.34 589.07l0 22.24 44.9 0c3.34,0 6.06,2.72 6.06,6.06l0 44.89 22.24 0 0 -44.89c0,-3.34 2.72,-6.06 6.06,-6.06l44.89 0 0 -22.24 -44.89 0c-3.34,0 -6.06,-2.72 -6.06,-6.06l0 -44.9 -22.24 0 0 41.34c0,6.11 -3.51,9.62 -9.62,9.62l-41.34 0z"/>
      </g>
      <g>
       <path class="fil6" d="M835.39 601.14c-3.28,-1.82 -6.54,-3.68 -9.83,-5.46 -2.94,-1.59 -5.92,-3.16 -8.94,-4.59 -0.28,-0.13 -0.63,-0.3 -1.02,-0.48 -0.9,1.8 -1.85,3.54 -2.52,4.82 -2.97,5.68 -6.05,11.3 -9.13,16.92 -4.63,8.42 -9.48,16.8 -14,25.27 -2.31,4.33 -4.79,8.62 -7.2,12.9 -3.72,6.58 -7.45,13.15 -11.15,19.74 -3.95,7.03 -7.89,14.08 -11.7,21.19 -1.38,2.57 -2.75,5.16 -4.04,7.78 -0.53,1.07 -1.36,2.62 -1.71,3.76 -0.68,2.73 -3.06,4.6 -5.88,4.6l-118.51 0c-2.4,0 -4.46,-1.3 -5.48,-3.47l-41.07 -86.92c-1.49,-3.15 -3.12,-6.21 -4.69,-9.32 -0.02,-0.04 -0.04,-0.08 -0.06,-0.13l-22.89 -48.22c-0.03,-0.07 -0.06,-0.14 -0.1,-0.21 -0.42,-0.99 -1.04,-3.26 -1.57,-4.59l-46.07 0 0 22.24 28.3 0c2.85,0 5.26,1.91 5.9,4.66 0.35,1.36 1.19,3.17 1.74,4.48 1.31,3.13 2.7,6.23 4.09,9.32 3.88,8.61 7.89,17.17 11.91,25.71 3.88,8.23 7.8,16.45 11.74,24.65 2.36,4.91 4.71,9.85 7.16,14.71 0.01,0.03 0.02,0.05 0.04,0.07l23.31 47.8c0.9,1.84 0.84,3.83 -0.16,5.62l-22.47 40.15c-6.2,11.68 -5.55,25.14 4,34.78 5.36,5.41 12.66,8.48 20.29,8.48l196.59 0 0 -22.24 -187.11 0c-4.36,0 -8.85,-1.18 -11.11,-5.28 -5.57,-10.09 10.89,-25.57 13.55,-35.52 0.72,-2.69 3.07,-4.5 5.86,-4.5 21.95,0 43.91,0.3 65.86,0.33 14.28,0.02 28.58,0 42.86,-0.23 5.13,-0.09 10.28,-0.19 15.41,-0.42 2.19,-0.1 5.4,-0.14 7.53,-0.58 5.89,-1.22 10.79,-3.41 14.91,-7.87 2.69,-2.92 4.8,-6.46 6.72,-9.91 2.53,-4.55 4.9,-9.15 7.6,-13.61l39.95 -72.46c0.02,-0.04 0.04,-0.07 0.06,-0.11 2.7,-4.67 5.37,-9.37 7.95,-14.11 1.59,-2.92 3.17,-5.86 4.65,-8.84 0.13,-0.25 0.27,-0.55 0.43,-0.86z"/>
      </g>
     </g>
     <path class="fil7" d="M574.75 953.61c0,1.22 -0.45,2.22 -1.35,2.98 -0.9,0.77 -2.06,1.16 -3.44,1.16l-16.28 0c-1.41,0 -2.56,-0.39 -3.45,-1.16 -0.89,-0.77 -1.34,-1.77 -1.34,-2.98l0 -47.56c0,-1.22 0.45,-2.22 1.34,-2.99 0.89,-0.77 2.04,-1.16 3.45,-1.16l16.28 0c1.38,0 2.53,0.39 3.44,1.16 0.9,0.77 1.35,1.77 1.35,2.99l0 12.82 -5.75 0 0 -12.57 -14.37 0 0 47.08 14.37 0 0 -13.74 5.75 0 0 13.99z"/>
     <path id="_1_36" class="fil7" d="M612.09 953.61c0,1.22 -0.45,2.22 -1.35,2.98 -0.89,0.77 -2.04,1.16 -3.44,1.16l-17.72 0c-1.41,0 -2.56,-0.39 -3.45,-1.16 -0.89,-0.77 -1.34,-1.77 -1.34,-2.98l0 -47.56c0,-1.22 0.45,-2.22 1.34,-2.99 0.89,-0.77 2.04,-1.16 3.45,-1.16l17.72 0c1.39,0 2.55,0.39 3.44,1.16 0.9,0.77 1.35,1.77 1.35,2.99l0 47.56zm-5.75 -0.24l0 -47.08 -15.8 0 0 47.08 15.8 0z"/>
     <path id="_2_37" class="fil7" d="M654.41 957.76l-5.41 0 0 -35.37c0,-0.5 0.2,-1.96 0.58,-4.39l-10.6 34.49 -1.16 0 -10.6 -34.49c0.38,2.45 0.58,3.91 0.58,4.39l0 35.37 -5.41 0 0 -55.85 5.32 0 10.52 36.32c0.06,0.18 0.11,0.72 0.17,1.6 0,-0.35 0.06,-0.89 0.17,-1.6l10.52 -36.32 5.32 0 0 55.85z"/>
     <path id="_3_38" class="fil7" d="M690.24 931.47c0,1.2 -0.45,2.2 -1.35,2.97 -0.89,0.78 -2.04,1.17 -3.44,1.17l-15.07 0 0 22.15 -5.75 0 0 -55.85 20.81 0c1.39,0 2.55,0.39 3.44,1.16 0.9,0.77 1.35,1.77 1.35,2.98l0 25.42zm-5.75 -0.32l0 -24.85 -14.11 0 0 24.85 14.11 0z"/>
     <path id="_4_39" class="fil7" d="M726.76 957.76l-6 0 -12 -29.92 0.79 -1 10.2 0 0 -20.54 -14.7 0 0 51.46 -5.75 0 0 -55.85 21.41 0c1.41,0 2.56,0.39 3.45,1.16 0.89,0.77 1.34,1.77 1.34,2.98l0 20.88c0,2.77 -2.08,4.14 -6.27,4.14 -0.41,0 -1.01,-0.01 -1.82,-0.05 -0.79,-0.04 -1.37,-0.06 -1.73,-0.06 3.72,8.91 7.41,17.84 11.08,26.79z"/>
     <path id="_5_40" class="fil7" d="M761.39 957.76l-5.66 0 -2.27 -12.35 -12.86 0 -2.28 12.35 -5.49 0 0 -0.15 11.49 -55.85 5.66 0 11.41 55.99zm-8.68 -16.74l-5.66 -30.31 -5.72 30.31 11.38 0z"/>
     <path id="_6_41" class="fil7" d="M794.33 953.61c0,1.22 -0.44,2.22 -1.32,2.98 -0.89,0.77 -2.04,1.16 -3.46,1.16l-15.86 0c-1.39,0 -2.55,-0.39 -3.44,-1.16 -0.9,-0.77 -1.35,-1.77 -1.35,-2.98l0 -13.99 5.75 0 0 13.74 13.94 0 0 -13.34 -17.83 -18.59c-1.24,-1.28 -1.86,-2.69 -1.86,-4.23l0 -11.16c0,-1.22 0.45,-2.22 1.35,-2.99 0.89,-0.77 2.04,-1.16 3.44,-1.16l15.86 0c1.42,0 2.58,0.39 3.46,1.16 0.89,0.77 1.32,1.77 1.32,2.99l0 12.82 -5.75 0 0 -12.57 -13.94 0 0 11.81 17.91 18.58c1.18,1.24 1.78,2.63 1.78,4.17l0 12.77z"/>
    </g>
    <g>
     <g>
      <path class="fil6" d="M320.02 1343.41c9.61,2.57 12.86,13.37 24.94,4.17 19.06,-14.51 19.84,-0.71 19.84,-30.14l19.47 0c0,29.6 0.91,15.77 19.47,29.86 12.72,9.66 15.22,-1.2 25.31,-3.89 0.85,3.66 8.13,13.29 9.09,16.87 -1.83,0.43 -16.23,6.83 -16.23,13.63 0,4.15 1.3,7.49 1.3,11.03 0,6.71 -3.49,12.72 1.1,17.72 1.55,1.68 11.5,7.7 13.83,8.24 -0.96,3.59 -8.24,13.22 -9.09,16.87 -2.12,-0.57 -5.81,-3.11 -8.01,-4.32 -14.08,-7.72 -11.72,-1.38 -24.43,4.98 -13.78,6.89 -12.34,3.15 -12.34,25.96l-19.47 0c0,-30.4 -0.61,-16.19 -19.47,-30.51 -7.74,-5.88 -9.4,-4.75 -17.3,-0.43 -2.2,1.21 -5.89,3.76 -8.01,4.32l-6.86 -12.61c-0.94,-1.54 -1.8,-2.67 -2.23,-4.26 2.05,-0.48 11.86,-6.1 13.83,-8.24 4.99,-5.44 0.42,-12.1 1.1,-17.07 1.39,-10.25 3.55,-14.81 -4.81,-19.85 -2.31,-1.39 -7.89,-4.94 -10.12,-5.46 0.96,-3.59 8.23,-13.22 9.09,-16.87zm83.73 -20.77l0 -29.85c0,-2.5 8.7,-6.22 8.71,-6.22 2.27,-0.49 22.06,11.09 24.92,12.84 1.77,1.09 3.14,1.96 5.32,2.47l0 11.68c-2.68,0.63 -21.54,11.26 -24.54,13.11 -1.32,0.81 -3.69,2.39 -5.24,2.27 -0,0 -9.17,-3.8 -9.17,-6.29zm51.92 -57.76c12.92,6.84 15.64,12.41 25.59,4.82 2.88,-2.2 4.26,-3.21 7.5,-4.83 13.77,-6.88 12.34,-3.58 12.34,-25.3l19.47 0c0,29.6 0.91,15.77 19.47,29.86 12.72,9.66 15.22,-1.2 25.31,-3.9 0.85,3.66 8.13,13.29 9.09,16.88 -1.83,0.43 -16.23,6.83 -16.23,13.63 0,4.15 1.3,7.49 1.3,11.03 0,6.71 -3.49,12.72 1.1,17.72 1.55,1.68 11.5,7.7 13.83,8.24 -0.96,3.59 -8.24,13.22 -9.09,16.88 -2.12,-0.57 -5.81,-3.12 -8.01,-4.32 -7.45,-4.08 -9.44,-5.56 -16.93,0.15 -2.89,2.2 -4.26,3.21 -7.5,4.83 -13.69,6.84 -12.34,3.21 -12.34,25.31l-19.47 0c0,-29.6 -0.91,-15.77 -19.47,-29.86 -10.4,-7.9 -12.47,-2.59 -25.96,4.54 -2.12,-4.01 -8.86,-14.12 -9.09,-16.88 5.63,-2.98 16.87,-7.87 16.87,-14.28 0,-3.56 -1.63,-9.32 -1.3,-11.68 0.94,-6.95 2.77,-12.41 -0.8,-16.73 -2.12,-2.57 -11.73,-7.62 -14.78,-9.23 0.22,-2.61 3.01,-6.43 4.34,-8.64 1.69,-2.82 3.3,-5.5 4.75,-8.23zm-135.65 -77.24c9.61,2.57 12.86,13.37 24.94,4.17 19.23,-14.65 19.84,-0.5 19.84,-30.78l19.47 0c0,30.4 0.61,16.19 19.47,30.51 12.72,9.66 15.23,-1.2 25.31,-3.89 0.49,2.12 3.39,6.63 4.51,8.47 1.2,1.98 4.01,6.28 4.58,8.4 -1.83,0.43 -16.23,6.83 -16.23,13.63 0,4.15 1.3,7.49 1.3,11.03 0,6.71 -3.49,12.72 1.1,17.72 1.54,1.68 11.49,7.7 13.82,8.24 -0.96,3.59 -8.23,13.22 -9.09,16.87 -9.61,-2.57 -12.86,-13.37 -24.94,-4.17 -2.89,2.2 -4.26,3.21 -7.5,4.83 -13.69,6.84 -12.34,3.21 -12.34,25.31l-19.47 0c0,-22.1 1.35,-18.46 -12.34,-25.31 -12.67,-6.33 -10.34,-12.7 -24.43,-4.98 -2.2,1.21 -5.89,3.76 -8.01,4.32 -0.49,-2.12 -3.39,-6.63 -4.51,-8.47 -1.19,-1.98 -4.01,-6.28 -4.58,-8.4 2.05,-0.48 11.86,-6.1 13.83,-8.24 4.99,-5.44 0.42,-12.1 1.1,-17.07 0.92,-6.77 2.65,-12.05 -0.51,-16.36 -2,-2.73 -12.38,-8.47 -14.42,-8.95 0.7,-2.62 8.35,-13.7 9.09,-16.87zm25.31 -19.47c-2.11,1.12 -4.48,2.49 -6.6,3.81 -3.56,2.22 -3.58,1.11 -6.83,-0.76 -11.94,-6.9 -18.24,-12.16 -25.71,1.29l-12.78 22.27c-5.39,9.95 -10.95,15.78 1.57,23.09 2.03,1.18 3.39,1.96 5.37,3.07 2.03,1.14 3.98,2.56 6.04,3.04l0 11.69c-2.13,0.49 -9.02,4.72 -11.41,6.11 -14.5,8.46 -5.09,16.72 4.89,34.16 4.19,7.31 9.07,19.44 15.61,19.44 5.96,0 10.28,-3.24 16.84,-7.19 3.28,-1.98 3.09,-2.57 6.81,-0.25 8.64,5.39 6.21,-1.28 6.21,34.7 0,2.12 -4.18,3.62 -5.8,4.59 -3.82,2.29 -3.4,2.3 -7.22,0 -21.06,-12.68 -20.14,-9.25 -32.45,12.25 -9.98,17.44 -19.39,25.69 -4.89,34.16l11.41 6.11 0 11.68c-2.13,0.5 -9.02,4.72 -11.41,6.12 -12.52,7.31 -6.96,13.14 -1.57,23.09l12.78 22.27c7.47,13.45 13.77,8.19 25.71,1.29 3.1,-1.79 3.46,-2.87 6.83,-0.76 2.34,1.46 4.39,2.33 6.61,3.81 0,5.63 -0.29,12.02 -0.03,17.56 0.21,4.62 4.05,9.06 8.47,9.06l41.54 0c11.26,0 8.44,-17.73 8.44,-26.61 9.79,-6.56 9.69,-5.22 13.43,-3.05 11.94,6.9 18.24,12.16 25.71,-1.29 2.69,-4.85 18.62,-30.93 18.62,-33.95 0,-8.61 -4.13,-9.63 -12.78,-14.48 -2.03,-1.14 -3.98,-2.56 -6.04,-3.05l0 -11.68c2.44,-0.57 7.29,-3.52 9.94,-4.99l19.37 -10.4c1.38,-0.08 8.24,4.07 9.64,5 0,5.42 -0.28,11.58 -0.03,16.9 0.21,4.62 4.05,9.06 8.47,9.06l41.54 0c11.5,0 8.44,-18.71 8.44,-25.96 9.8,-6.56 9.69,-5.22 13.43,-3.05 20.97,12.13 19.62,9.21 32.03,-12.49 9.98,-17.44 19.39,-25.7 4.89,-34.16l-11.41 -6.11 0 -11.68c2.13,-0.5 9.02,-4.72 11.41,-6.11 14.5,-8.46 5.09,-16.72 -4.89,-34.16 -4.18,-7.31 -9.07,-19.44 -15.61,-19.44 -12.23,0 -16.55,11.89 -23.25,7.71 -2.13,-1.33 -4.49,-2.7 -6.61,-3.82 0,-7.23 3.01,-25.96 -8.44,-25.96l-41.54 0c-11.5,0 -8.44,18.71 -8.44,25.96 -1.8,0.95 -8.08,5.09 -9.64,5 -2.41,-0.14 -24.96,-14.37 -29.31,-15.38l0 -11.69c2.13,-0.49 9.02,-4.72 11.41,-6.11 14.5,-8.46 5.09,-16.72 -4.89,-34.16 -2.18,-3.82 -4.11,-7.23 -6.32,-11.2 -7.47,-13.45 -13.77,-8.19 -25.71,-1.29 -3.25,1.88 -3.26,2.98 -6.83,0.76 -2.13,-1.33 -4.49,-2.7 -6.6,-3.81 0,-8.88 2.82,-26.61 -8.44,-26.61l-41.54 0c-11.26,0 -8.44,17.73 -8.44,26.61z"/>
      <path class="fil6" d="M364.8 1235.02c-7.64,-5.12 -9.97,-14.93 -20.77,-14.93 -5.28,0 -8.44,4.73 -8.44,11.03 0,4.99 15.26,18.17 19.31,22.23 4.9,4.91 4.84,5.68 11.2,5.68 4.93,0 21,-18.08 25.15,-22.23 4.2,-4.2 22.23,-20.22 22.23,-25.15 0,-7.74 -3.3,-11.03 -11.03,-11.03 -4.77,0 -15.67,12.75 -19.31,16.39l-18.34 18.01z"/>
      <path class="fil6" d="M364.8 1390.79c-7.64,-5.12 -9.97,-14.93 -20.77,-14.93 -5.28,0 -8.44,4.73 -8.44,11.03 0,4.37 8.41,11.34 12.49,15.42 2.43,2.43 4.39,4.38 6.82,6.81 4.9,4.91 4.84,5.68 11.2,5.68 4.93,0 21,-18.08 25.15,-22.23 4.2,-4.2 22.23,-20.22 22.23,-25.15 0,-7.74 -3.3,-11.03 -11.03,-11.03 -4.77,0 -15.67,12.75 -19.31,16.39l-18.34 18.01z"/>
      <path class="fil6" d="M501.1 1312.9c-7.64,-5.12 -9.97,-14.93 -20.77,-14.93 -5.28,0 -8.44,4.73 -8.44,11.03 0,4.99 15.26,18.17 19.31,22.23 4.9,4.91 4.84,5.68 11.2,5.68 4.94,0 21,-18.08 25.15,-22.23 4.2,-4.2 22.23,-20.22 22.23,-25.15 0,-7.74 -3.3,-11.03 -11.03,-11.03 -4.23,0 -7.79,4.87 -10.22,7.3l-18.17 18.17c-2.66,2.67 -6.42,7.03 -9.25,8.93z"/>
     </g>
     <polygon class="fil7" points="274.57,1557.11 268.83,1557.11 268.83,1501.26 274.57,1501.26 "/>
     <polygon id="_1_42" class="fil7" points="311.93,1557.11 307.98,1557.11 290.72,1516.04 290.72,1557.11 285.32,1557.11 285.32,1501.26 289.61,1501.26 306.53,1541.62 306.53,1501.26 311.93,1501.26 "/>
     <polygon id="_2_43" class="fil7" points="344.47,1505.65 334.5,1505.65 334.5,1557.11 328.75,1557.11 328.75,1505.65 318.69,1505.65 318.69,1501.26 344.47,1501.26 "/>
     <polygon id="_3_44" class="fil7" points="372.42,1557.11 351.21,1557.11 351.21,1501.26 372.17,1501.26 372.17,1505.65 356.96,1505.65 356.96,1526.48 370.82,1526.48 370.82,1530.94 356.96,1530.94 356.96,1552.72 372.42,1552.72 "/>
     <path id="_4_45" class="fil7" d="M407.49 1552.97c0,1.22 -0.45,2.22 -1.34,2.99 -0.89,0.77 -2.04,1.16 -3.45,1.16l-16.53 0c-1.41,0 -2.56,-0.39 -3.45,-1.16 -0.89,-0.77 -1.34,-1.77 -1.34,-2.99l0 -47.56c0,-1.22 0.45,-2.22 1.34,-2.98 0.89,-0.77 2.04,-1.16 3.45,-1.16l16.53 0c1.41,0 2.56,0.39 3.45,1.16 0.89,0.77 1.34,1.77 1.34,2.98l0 12.82 -5.75 0 0 -12.57 -14.62 0 0 47.08 14.62 0 0 -19.3 -6.93 0 0 -4.31 12.68 0 0 23.85z"/>
     <path id="_5_46" class="fil7" d="M445.19 1557.11l-6 0 -12 -29.92 0.79 -1 10.2 0 0 -20.54 -14.7 0 0 51.46 -5.75 0 0 -55.85 21.41 0c1.41,0 2.56,0.39 3.45,1.16 0.89,0.77 1.34,1.77 1.34,2.98l0 20.88c0,2.77 -2.08,4.14 -6.27,4.14 -0.41,0 -1.01,-0.01 -1.82,-0.05 -0.79,-0.04 -1.37,-0.06 -1.73,-0.06 3.72,8.91 7.41,17.84 11.08,26.79z"/>
     <path id="_6_47" class="fil7" d="M479.83 1557.11l-5.66 0 -2.27 -12.35 -12.86 0 -2.28 12.35 -5.49 0 0 -0.15 11.49 -55.85 5.66 0 11.41 56zm-8.67 -16.74l-5.66 -30.31 -5.72 30.31 11.38 0z"/>
     <path id="_7_48" class="fil7" d="M513.44 1552.97c0,1.22 -0.45,2.22 -1.35,2.99 -0.9,0.77 -2.06,1.16 -3.44,1.16l-16.28 0c-1.41,0 -2.56,-0.39 -3.45,-1.16 -0.89,-0.77 -1.34,-1.77 -1.34,-2.99l0 -47.56c0,-1.22 0.45,-2.22 1.34,-2.98 0.89,-0.77 2.04,-1.16 3.45,-1.16l16.28 0c1.38,0 2.53,0.39 3.44,1.16 0.9,0.77 1.35,1.77 1.35,2.98l0 12.82 -5.75 0 0 -12.57 -14.37 0 0 47.08 14.37 0 0 -13.74 5.75 0 0 13.99zm-5.32 15.11c0,1.9 -1.1,2.85 -3.3,2.85l-8.45 0c-2.2,0 -3.29,-0.95 -3.29,-2.85l0 -4.02 4.31 0 0 3.66 6.34 0 0 -3.81c-1.24,-0.52 -2.46,-1.06 -3.67,-1.61 -1.21,-0.69 -1.82,-1.64 -1.82,-2.86l0 -2.39 4.42 0 0 2.46c1.24,0.55 2.48,1.1 3.74,1.65 1.14,0.69 1.72,1.66 1.72,2.89l0 4.04z"/>
     <path id="_8_49" class="fil7" d="M550.78 1552.97c0,1.22 -0.45,2.22 -1.35,2.99 -0.89,0.77 -2.04,1.16 -3.44,1.16l-17.72 0c-1.41,0 -2.56,-0.39 -3.45,-1.16 -0.89,-0.77 -1.34,-1.77 -1.34,-2.99l0 -47.56c0,-1.22 0.45,-2.22 1.34,-2.98 0.89,-0.77 2.04,-1.16 3.45,-1.16l17.72 0c1.39,0 2.55,0.39 3.44,1.16 0.9,0.77 1.35,1.77 1.35,2.98l0 47.56zm-5.75 -0.24l0 -47.08 -15.8 0 0 47.08 15.8 0zm1.1 -57.16c0,1.75 -1.04,2.63 -3.13,2.63 -1.17,0 -2.96,-0.43 -5.38,-1.29 -1.66,-0.65 -3.34,-1.28 -5.01,-1.93l0 3.14 -4.39 0 0 -4.39c0,-1.75 1.01,-2.63 3.04,-2.63 1.18,0 2.98,0.43 5.42,1.29 1.68,0.63 3.37,1.28 5.06,1.93l0 -3.14 4.4 0 0 4.39z"/>
     <polygon id="_9_50" class="fil7" points="582.29,1557.11 561.08,1557.11 561.08,1501.26 582.03,1501.26 582.03,1505.65 566.82,1505.65 566.82,1526.48 580.68,1526.48 580.68,1530.94 566.82,1530.94 566.82,1552.72 582.29,1552.72 "/>
     <path id="_10_51" class="fil7" d="M616.42 1552.97c0,1.22 -0.44,2.22 -1.32,2.99 -0.89,0.77 -2.04,1.16 -3.46,1.16l-15.86 0c-1.39,0 -2.55,-0.39 -3.44,-1.16 -0.9,-0.77 -1.35,-1.77 -1.35,-2.99l0 -13.99 5.75 0 0 13.74 13.94 0 0 -13.34 -17.83 -18.59c-1.24,-1.28 -1.86,-2.69 -1.86,-4.23l0 -11.16c0,-1.22 0.45,-2.22 1.35,-2.98 0.89,-0.77 2.04,-1.16 3.44,-1.16l15.86 0c1.42,0 2.58,0.39 3.46,1.16 0.89,0.77 1.32,1.77 1.32,2.98l0 12.82 -5.75 0 0 -12.57 -13.94 0 0 11.81 17.91 18.58c1.18,1.24 1.78,2.63 1.78,4.17l0 12.77z"/>
    </g>
    <g>
     <g>
      <path class="fil6" d="M850.6 1847.4c14.28,0 22.57,1.84 33.36,11.37 6.43,5.68 12.91,12.9 19.12,19.11l96.3 96.31c9.74,9.74 12.5,14.61 27.95,14.61 10.72,0 17.34,-7.6 22.9,-13.16l45.09 -45.09c1.93,-1.93 9.68,-12.29 17.02,-5.11 8.11,7.93 -2.38,15 -10.16,22.79 -10.42,10.42 -45.07,46.42 -52.61,51.26 -11.07,7.12 -31.25,9.94 -35.23,4.48 -0.72,-0.99 -1.53,-3.25 -2.44,-4.77 -2.72,-4.54 -6.21,-8.55 -10.41,-11.95 -5.67,-4.58 -12.38,-8.18 -20.5,-9.8 -7.03,-1.4 -9.16,-5.57 -16.58,-12.99 -5.11,-5.11 -9.68,-9.68 -14.79,-14.79l-74.66 -74.66c-12.84,-12.85 -18.63,-11.06 -37.11,-8.62l-33.28 4.26c-15.85,2.12 -15.24,-14.84 -4.79,-17.08l33.31 -4.21c5.19,-0.68 11.52,-1.95 17.53,-1.95zm76.19 -144.28l4.18 0c1.62,0.22 3.23,0.69 4.77,1.42 6.7,3.19 43.8,42.04 50.66,48.89 5.15,5.15 31.05,29.48 32.28,34.09 6.48,-4.34 15.45,-17.37 21.98,-20.58 13.01,-6.4 21.42,5.19 27.62,11.38l63.84 63.84c6.9,6.9 17.81,15.66 18.58,23.92l0 3.48c-0.51,5.39 -3.38,9.04 -6.3,11.93l-31.21 31.55c4.15,2.2 5.31,2.23 8.46,5.97 2.2,2.61 3.83,5.64 4.37,9.34 0.72,4.97 -0.14,9.07 -1.73,12.38 -1.72,3.57 -3.62,4.86 -6.23,7.47 -16.71,16.7 -40.06,41.11 -56.26,56.28 -12.07,11.3 -27.18,13.15 -43.12,13.15 0,3.75 0.83,3.61 0.75,7.2 -0.12,5.02 -1.95,13.58 -4.1,18.31 -8.07,17.83 -23.44,27.71 -39.53,29.32l-9.43 0c-10.52,-1.05 -20.81,-5.65 -29.02,-13.89 -20.25,-20.3 -8.74,-27.02 -3.05,-23.68 1.96,1.15 4.1,7.19 5.59,9.59 8.05,12.92 25.66,20.17 41.73,15.43 23.91,-7.05 34.37,-36.04 19.04,-57.45 -13.82,-19.3 -44.61,-20.52 -59.91,0.72 -8.14,11.29 -2.31,16.61 -13.69,16.61 -1.48,-2.21 -3.54,-3.37 -2.64,-7.61 1.4,-6.6 6.07,-15 10.75,-19.63 14.96,-14.76 17.12,-11.16 25.8,-15.32 -2.26,-3.37 -9.44,-9.8 -12.8,-13.16 -4.51,-4.51 -8.48,-8.48 -12.98,-12.98l-51.94 -51.94c-4.5,-4.5 -8.48,-8.48 -12.98,-12.98 -4.37,-4.37 -7.18,-9.28 -15.1,-10.15 -4.25,-0.47 -38.2,4.49 -45.62,5.35 -10.63,1.23 -13.98,1.38 -21.01,-3.64 -3.86,-2.76 -6.57,-7.81 -7.19,-13.3l0 -4.8c0.68,-5.84 3.92,-11.58 10.8,-15.13 7.37,-3.8 58.31,-8.63 68.55,-8.63 -2.34,-3.5 -10.02,-10.38 -13.52,-13.89 -6.56,-6.56 -17.74,-14.4 -14.91,-25.36 1.22,-4.74 2.29,-5.56 5.02,-8.7 3.79,-4.37 4.23,-3.88 7.04,-6.67 3.55,-3.53 -0.58,-0.4 6.46,-6.52 2.74,-2.39 3.97,-4.51 6.58,-7.12l10.56 -10.37c0.69,-0.76 0.85,-0.96 1.72,-1.88 12.61,-13.42 15.39,-0.63 12.89,2.75l-20.57 20.23 64.56 64.2 38.6 -38.96 -64.03 -63.66c-1.81,1.21 -2.73,3.06 -5.61,2.75 -3.47,-0.36 -8.44,-5.32 -1.95,-11.04l23.85 -23.76c2.63,-2.67 5.94,-4.28 9.41,-4.74zm111.91 220.56l-16.82 -16.72c-1.08,-1.19 -1.44,-1.66 -2.49,-2.56l-11.99 -11.82c-1.13,-1.05 -1.56,-1.33 -2.6,-2.45 -0.65,-0.71 -0.37,-0.46 -1.01,-1.16 -0.1,-0.11 -0.24,-0.27 -0.35,-0.37l-3.52 -3.69 79.17 -79.53 39.31 38.96 -79.71 79.35zm-178 -87.83l0 0zm127.69 47.61c0,7.89 4.66,10.07 10.64,16.05l25.25 25.25c16.87,16.87 15.16,14.05 37.87,-8.66 5.52,-5.52 60.76,-61.48 64.02,-63.66 2.47,1.65 12.39,11.26 13.27,14.19 1.36,4.52 -6.62,10.54 -11.65,15.56l-76.11 76.11c-10.22,10.23 -9.32,7.63 -25.97,-9.02l-40.76 -40.76c-1.05,-1.05 -11.49,-14.43 -15.45,-4.18 -1.92,4.97 6.16,10.76 10.76,15.36l45.81 45.81c7.86,7.86 4.5,4.13 9.92,8.84 -2.42,0.65 -2.3,1.45 -4.83,2.38 -9.22,3.43 -14.54,-1.19 -20.24,-6.89 -8.38,-8.39 -77.26,-76.5 -79.53,-79.89 6.53,-4.37 7.11,-6.9 10.82,-9.38 1.98,2.96 11.99,15.06 16.52,14.96 4.29,-0.1 5.12,-3.37 5.12,-7.02 0,-3.44 -12.26,-10.66 -12.26,-15.15 0,-3.94 6.63,-9.15 10.64,-13.16l59.87 -59.87c3.03,-3.03 22.43,-23.63 24.71,-23.63 6.11,0 8.63,4.66 13.16,9.2 3.06,3.06 8.5,7.8 10.64,11 -0.74,2.76 -7.58,8.66 -9.92,11 -3.66,3.66 -6.8,6.8 -10.46,10.46 -7.27,7.27 -14.01,14.01 -21.28,21.28 -7.15,7.15 -13.77,13.77 -20.92,20.92 -4.22,4.22 -19.66,17.56 -19.66,22.9zm-78.63 -151.49c0.69,-2.59 15.52,-17.55 18.86,-17.82 3.28,-0.27 5.38,2.73 7.29,4.66l62.04 62.04c16.36,16.36 16.57,11.2 -8.66,36.43 -7.27,7.27 -14.01,14.01 -21.28,21.28 -3.22,3.22 -40.08,42.02 -43.82,42.02 -4.09,0 -8.84,-6.31 -11.36,-8.84l-50.5 -50.5c-3.64,-3.64 -18.94,-17.14 -18.94,-21.46 0,-3.79 8.58,-11.48 10.82,-12.98 3.41,2.28 52.17,51.8 60.42,60.05 5.77,5.77 5.66,7.03 13.17,7.03 5.28,0 22.14,-18.89 26.51,-23.27 5.33,-5.33 22.54,-20 22.54,-27.23 0,-5.94 -9.71,-13.68 -15.33,-19.3l-34.63 -34.63c-4.22,-4.21 -14.37,-13.37 -17.13,-17.49z"/>
      <path class="fil6" d="M961.7 2025.58c0,-14.85 18.76,-14.13 18.76,0 0,10.62 -18.76,11.79 -18.76,0zm-11.54 -2.17c0,12.4 9.37,21.64 18.76,21.64 5.35,0 6.74,0.38 11.57,-2.13 20.75,-10.79 10,-38.99 -7.25,-38.99 -6.54,0 -11.91,0.68 -17.16,5.93 -2.49,2.49 -5.93,8.83 -5.93,13.55z"/>
      <path class="fil6" d="M898.94 1799.79c4.82,0 9.18,-6.66 13.89,-11.36 3.29,-3.29 17.64,-14.74 6.99,-18.22 -5.28,-1.72 -10.43,5.79 -15.29,10.65 -2.88,2.88 -6.5,6.03 -9.01,9.03 -3.38,4.01 -2.8,9.91 3.42,9.91z"/>
      <path class="fil6" d="M1056.92 1842.35c0,4.08 9.66,12.18 13.89,16.41 4.27,4.27 8.14,10.21 12.84,8.22 10.24,-4.34 -3.94,-15.19 -7.43,-18.68 -3.99,-3.99 -9.58,-11 -13.52,-11 -3.09,0 -5.77,2.22 -5.77,5.05z"/>
      <path class="fil6" d="M913.36 1814.22c0,3.49 2.28,5.77 5.77,5.77 3.58,0 5.39,-2.85 7.4,-4.87 3.61,-3.63 17.13,-15.25 17.13,-19.66 0,-3.42 -2.93,-5.77 -5.77,-5.77 -2.91,0 -24.53,21.62 -24.53,24.53z"/>
      <path class="fil6" d="M1099.48 1849.56c0,-4.41 -13.52,-16.02 -17.13,-19.66 -2,-2.02 -3.81,-4.87 -7.39,-4.87 -6.02,0 -7.06,6.09 -3.46,9.95l18.04 18.04c4.67,4.35 9.95,1.31 9.95,-3.46z"/>
      <path class="fil6" d="M886.67 1787.53c4.41,0 16.03,-13.52 19.66,-17.13 2.74,-2.72 9.21,-9.69 1.2,-12.47 -5.16,-1.79 -10.1,5.49 -15.27,10.66 -3.09,3.09 -6.14,5.85 -9.05,8.98 -3.59,3.86 -2.55,9.95 3.46,9.95z"/>
      <path class="fil6" d="M1061.25 1887.08c5.21,0 5.77,-2.09 5.77,-6.49 0,-1.96 -21.12,-23.08 -23.08,-23.08 -6.51,0 -8.18,3.95 -6.35,7.72 1.22,2.52 12.08,12.8 14.83,15.54 2.23,2.23 4.96,6.31 8.84,6.31z"/>
      <path class="fil6" d="M1017.24 1882.75c0,4.32 21.46,24.53 23.81,24.53 4.33,0 6.49,-3.12 6.49,-5.77 0,-2.91 -21.62,-24.53 -24.53,-24.53 -3.49,0 -5.77,2.28 -5.77,5.77z"/>
     </g>
     <polygon class="fil7" points="873.04,2159.79 851.83,2159.79 851.83,2103.94 872.78,2103.94 872.78,2108.33 857.57,2108.33 857.57,2129.16 871.43,2129.16 871.43,2133.62 857.57,2133.62 857.57,2155.4 873.04,2155.4 "/>
     <path id="_1_52" class="fil7" d="M907.17 2155.65c0,1.22 -0.44,2.22 -1.32,2.98 -0.89,0.77 -2.04,1.16 -3.46,1.16l-15.86 0c-1.39,0 -2.55,-0.39 -3.44,-1.16 -0.9,-0.77 -1.35,-1.77 -1.35,-2.98l0 -13.99 5.75 0 0 13.74 13.94 0 0 -13.34 -17.83 -18.59c-1.24,-1.28 -1.86,-2.69 -1.86,-4.23l0 -11.16c0,-1.22 0.45,-2.22 1.35,-2.98 0.89,-0.77 2.04,-1.16 3.44,-1.16l15.86 0c1.42,0 2.58,0.39 3.46,1.16 0.89,0.77 1.32,1.77 1.32,2.98l0 12.82 -5.75 0 0 -12.57 -13.94 0 0 11.81 17.91 18.58c1.18,1.24 1.78,2.63 1.78,4.17l0 12.77z"/>
     <polygon id="_2_53" class="fil7" points="939.54,2108.33 929.57,2108.33 929.57,2159.79 923.82,2159.79 923.82,2108.33 913.76,2108.33 913.76,2103.94 939.54,2103.94 "/>
     <path id="_3_54" class="fil7" d="M973.58 2155.65c0,1.22 -0.45,2.22 -1.35,2.98 -0.89,0.77 -2.04,1.16 -3.43,1.16l-17.72 0c-1.41,0 -2.56,-0.39 -3.45,-1.16 -0.89,-0.77 -1.34,-1.77 -1.34,-2.98l0 -47.56c0,-1.22 0.45,-2.22 1.34,-2.98 0.89,-0.77 2.04,-1.16 3.45,-1.16l17.72 0c1.39,0 2.55,0.39 3.43,1.16 0.9,0.77 1.35,1.77 1.35,2.98l0 47.56zm-5.75 -0.24l0 -47.08 -15.8 0 0 47.08 15.8 0z"/>
     <path id="_4_55" class="fil7" d="M1015.56 2159.86l-0.49 0 -4.22 -3c-0.54,1.95 -2.02,2.92 -4.46,2.92l-17.72 0c-1.41,0 -2.56,-0.39 -3.45,-1.16 -0.89,-0.77 -1.34,-1.77 -1.34,-2.99l0 -47.56c0,-1.22 0.45,-2.22 1.34,-2.98 0.89,-0.77 2.04,-1.16 3.45,-1.16l17.72 0c1.42,0 2.58,0.39 3.46,1.16 0.89,0.77 1.32,1.77 1.32,2.98l0 43.81 4.39 3.07 0 4.9zm-10.14 -4.46l0 -2.17 -6.84 -4.92 0 -4.9 0.54 0 6.31 4.53 0 -39.62 -15.8 0 0 47.08 15.8 0z"/>
     <path id="_5_56" class="fil7" d="M1048.7 2155.65c0,1.22 -0.45,2.22 -1.35,2.98 -0.89,0.77 -2.04,1.16 -3.44,1.16l-17.21 0c-1.41,0 -2.56,-0.39 -3.45,-1.16 -0.89,-0.77 -1.34,-1.77 -1.34,-2.98l0 -51.71 5.75 0 0 51.46 15.29 0 0 -51.46 5.75 0 0 51.71z"/>
     <polygon id="_6_57" class="fil7" points="1080.22,2159.79 1059.01,2159.79 1059.01,2103.94 1079.97,2103.94 1079.97,2108.33 1064.76,2108.33 1064.76,2129.16 1078.62,2129.16 1078.62,2133.62 1064.76,2133.62 1064.76,2155.4 1080.22,2155.4 "/>
    </g>
   </g>
  </g>
 </g>
</svg>
