<svg id="Camada_1" data-name="Camada 1" xmlns="http://www.w3.org/2000/svg" viewBox="0 0 562 181"><defs><style>.cls-1,.cls-3{fill:#0062a5;}.cls-2{fill:#009b88;}.cls-3{font-size:185px;font-family:NewsSansWebSubset-Regular, NewsSansWebSubset;}.cls-4{letter-spacing:-0.01em;}</style></defs><path class="cls-1" d="M235.33,47.48A33.32,33.32,0,0,0,223.78,34.2a47.74,47.74,0,0,0-15.07-6.63,82.11,82.11,0,0,0-19.78-2.08H133.6a47.33,47.33,0,0,1,10,11.8c4,6.72,6.07,15,6.07,24.55,0,12.93-3.15,23.85-9.36,32.44q-1.31,1.8-2.75,3.5v15.66l33.24,42V114.55h17.42a65.39,65.39,0,0,0,12.85-1.16,55.82,55.82,0,0,0,10.62-3.2,44.33,44.33,0,0,0,8.93-5,57.36,57.36,0,0,0,7.42-6.4,37.11,37.11,0,0,0,8.45-14,52.89,52.89,0,0,0,2.93-17.6Q239.42,55.8,235.33,47.48ZM204.09,77.66a17.49,17.49,0,0,1-4.58,6.84,14.45,14.45,0,0,1-4.58,2.89,24.43,24.43,0,0,1-5.64,1.74,50.92,50.92,0,0,1-7.29.62c-2.78.06-5.75.09-8.89.09H170.8V50.2h4.71q7.38,0,11.69.31a27.61,27.61,0,0,1,9,2.35,14.05,14.05,0,0,1,6.4,5.56,17.08,17.08,0,0,1,2.67,9.64A31,31,0,0,1,204.09,77.66Z"/><path class="cls-2" d="M155.77,157.83H115.24L78.35,109.3H66.44v48.53H33.38V25.49H86.62a118.1,118.1,0,0,1,19.2,1.37,40.81,40.81,0,0,1,15.11,5.74,34.67,34.67,0,0,1,11.29,11.51q4.17,7,4.17,17.73,0,15.19-6.84,24.66a48.09,48.09,0,0,1-18.31,15.07ZM102.26,66a18.11,18.11,0,0,0-1.91-8.58A12.62,12.62,0,0,0,94,51.88a23,23,0,0,0-6.94-1.68q-3.82-.36-9.51-.36H66.44V85.48H76a70.32,70.32,0,0,0,11.78-.84A17.42,17.42,0,0,0,96,81a15.66,15.66,0,0,0,4.76-6A22.46,22.46,0,0,0,102.26,66Z"/><text class="cls-3" transform="translate(260.14 155.17)">S<tspan class="cls-4" x="89.91" y="0">Y</tspan><tspan x="193.14" y="0">S</tspan></text></svg>