<?xml version="1.0" encoding="UTF-8"?>
<!DOCTYPE svg PUBLIC "-//W3C//DTD SVG 1.1//EN" "http://www.w3.org/Graphics/SVG/1.1/DTD/svg11.dtd">
<!-- Creator: CorelDRAW 2020 (64 Bit) -->
<svg xmlns="http://www.w3.org/2000/svg" xml:space="preserve" width="165.495mm" height="105.947mm" version="1.1" style="shape-rendering:geometricPrecision; text-rendering:geometricPrecision; image-rendering:optimizeQuality; fill-rule:evenodd; clip-rule:evenodd"
viewBox="0 0 10212.8 6538.1"
 xmlns:xlink="http://www.w3.org/1999/xlink"
 xmlns:xodm="http://www.corel.com/coreldraw/odm/2003">
 <defs>
  <style type="text/css">
   <![CDATA[
    .fil4 {fill:none}
    .fil7 {fill:black}
    .fil2 {fill:#009A62}
    .fil3 {fill:#1560A4}
    .fil5 {fill:white}
    .fil6 {fill:white;fill-rule:nonzero}
    .fil1 {fill:url(#id3)}
    .fil0 {fill:url(#id4)}
   ]]>
  </style>
     <clipPath id="id0">
      <path d="M1186.3 2954.22c612.71,0 1109.42,304.76 1109.42,680.7 0,375.95 -496.71,680.71 -1109.42,680.71 -612.72,0 -1109.42,-304.76 -1109.42,-680.71 0,-375.94 496.7,-680.7 1109.42,-680.7zm1402.78 1541.77c612.72,0 1109.42,304.76 1109.42,680.7 0,375.94 -496.7,680.7 -1109.42,680.7 -612.71,0 -1109.42,-304.76 -1109.42,-680.7 0,-375.94 496.71,-680.7 1109.42,-680.7zm2597.36 636.41c612.72,0 1109.42,304.76 1109.42,680.7 0,375.94 -496.7,680.71 -1109.42,680.71 -612.72,0 -1109.42,-304.76 -1109.42,-680.71 0,-375.94 496.7,-680.7 1109.42,-680.7zm2548 -636.41c612.71,0 1109.42,304.76 1109.42,680.7 0,375.94 -496.71,680.7 -1109.42,680.7 -612.72,0 -1109.43,-304.76 -1109.43,-680.7 0,-375.94 496.71,-680.7 1109.43,-680.7zm1292.06 -1541.77c612.72,0 1109.42,304.76 1109.42,680.7 0,375.95 -496.7,680.71 -1109.42,680.71 -612.72,0 -1109.42,-304.76 -1109.42,-680.71 0,-375.94 496.7,-680.7 1109.42,-680.7zm-547.28 -1630.34c612.72,0 1109.42,304.76 1109.42,680.7 0,375.94 -496.7,680.7 -1109.42,680.7 -612.71,0 -1109.42,-304.76 -1109.42,-680.7 0,-375.94 496.71,-680.7 1109.42,-680.7zm-2023.9 -1279.58c612.72,0 1109.43,304.76 1109.43,680.7 0,375.94 -496.71,680.7 -1109.43,680.7 -612.71,0 -1109.42,-304.76 -1109.42,-680.7 0,-375.94 496.71,-680.7 1109.42,-680.7zm-2653.56 0c612.71,0 1109.42,304.76 1109.42,680.7 0,375.94 -496.71,680.7 -1109.42,680.7 -612.72,0 -1109.42,-304.76 -1109.42,-680.7 0,-375.94 496.7,-680.7 1109.42,-680.7zm-2001.76 1279.58c612.72,0 1109.42,304.76 1109.42,680.7 0,375.94 -496.7,680.7 -1109.42,680.7 -612.72,0 -1109.42,-304.76 -1109.42,-680.7 0,-375.94 496.7,-680.7 1109.42,-680.7z"/>
     </clipPath>
      <clipPath id="id1">
       <path d="M1186.3 2954.22c612.71,0 1109.42,304.76 1109.42,680.7 0,375.95 -496.71,680.71 -1109.42,680.71 -612.72,0 -1109.42,-304.76 -1109.42,-680.71 0,-375.94 496.7,-680.7 1109.42,-680.7zm1402.78 1541.77c612.72,0 1109.42,304.76 1109.42,680.7 0,375.94 -496.7,680.7 -1109.42,680.7 -612.71,0 -1109.42,-304.76 -1109.42,-680.7 0,-375.94 496.71,-680.7 1109.42,-680.7zm2597.36 636.41c612.72,0 1109.42,304.76 1109.42,680.7 0,375.94 -496.7,680.71 -1109.42,680.71 -612.72,0 -1109.42,-304.76 -1109.42,-680.71 0,-375.94 496.7,-680.7 1109.42,-680.7zm2548 -636.41c612.71,0 1109.42,304.76 1109.42,680.7 0,375.94 -496.71,680.7 -1109.42,680.7 -612.72,0 -1109.43,-304.76 -1109.43,-680.7 0,-375.94 496.71,-680.7 1109.43,-680.7zm1292.06 -1541.77c612.72,0 1109.42,304.76 1109.42,680.7 0,375.95 -496.7,680.71 -1109.42,680.71 -612.72,0 -1109.42,-304.76 -1109.42,-680.71 0,-375.94 496.7,-680.7 1109.42,-680.7zm-547.28 -1630.34c612.72,0 1109.42,304.76 1109.42,680.7 0,375.94 -496.7,680.7 -1109.42,680.7 -612.71,0 -1109.42,-304.76 -1109.42,-680.7 0,-375.94 496.71,-680.7 1109.42,-680.7zm-2023.9 -1279.58c612.72,0 1109.43,304.76 1109.43,680.7 0,375.94 -496.71,680.7 -1109.43,680.7 -612.71,0 -1109.42,-304.76 -1109.42,-680.7 0,-375.94 496.71,-680.7 1109.42,-680.7zm-2653.56 0c612.71,0 1109.42,304.76 1109.42,680.7 0,375.94 -496.71,680.7 -1109.42,680.7 -612.72,0 -1109.42,-304.76 -1109.42,-680.7 0,-375.94 496.7,-680.7 1109.42,-680.7zm-2001.76 1279.58c612.72,0 1109.42,304.76 1109.42,680.7 0,375.94 -496.7,680.7 -1109.42,680.7 -612.72,0 -1109.42,-304.76 -1109.42,-680.7 0,-375.94 496.7,-680.7 1109.42,-680.7z"/>
      </clipPath>
      <clipPath id="id2">
       <path d="M1186.3 2954.22c612.71,0 1109.42,304.76 1109.42,680.7 0,375.95 -496.71,680.71 -1109.42,680.71 -612.72,0 -1109.42,-304.76 -1109.42,-680.71 0,-375.94 496.7,-680.7 1109.42,-680.7zm1402.78 1541.77c612.72,0 1109.42,304.76 1109.42,680.7 0,375.94 -496.7,680.7 -1109.42,680.7 -612.71,0 -1109.42,-304.76 -1109.42,-680.7 0,-375.94 496.71,-680.7 1109.42,-680.7zm2597.36 636.41c612.72,0 1109.42,304.76 1109.42,680.7 0,375.94 -496.7,680.71 -1109.42,680.71 -612.72,0 -1109.42,-304.76 -1109.42,-680.71 0,-375.94 496.7,-680.7 1109.42,-680.7zm2548 -636.41c612.71,0 1109.42,304.76 1109.42,680.7 0,375.94 -496.71,680.7 -1109.42,680.7 -612.72,0 -1109.43,-304.76 -1109.43,-680.7 0,-375.94 496.71,-680.7 1109.43,-680.7zm1292.06 -1541.77c612.72,0 1109.42,304.76 1109.42,680.7 0,375.95 -496.7,680.71 -1109.42,680.71 -612.72,0 -1109.42,-304.76 -1109.42,-680.71 0,-375.94 496.7,-680.7 1109.42,-680.7zm-547.28 -1630.34c612.72,0 1109.42,304.76 1109.42,680.7 0,375.94 -496.7,680.7 -1109.42,680.7 -612.71,0 -1109.42,-304.76 -1109.42,-680.7 0,-375.94 496.71,-680.7 1109.42,-680.7zm-2023.9 -1279.58c612.72,0 1109.43,304.76 1109.43,680.7 0,375.94 -496.71,680.7 -1109.43,680.7 -612.71,0 -1109.42,-304.76 -1109.42,-680.7 0,-375.94 496.71,-680.7 1109.42,-680.7zm-2653.56 0c612.71,0 1109.42,304.76 1109.42,680.7 0,375.94 -496.71,680.7 -1109.42,680.7 -612.72,0 -1109.42,-304.76 -1109.42,-680.7 0,-375.94 496.7,-680.7 1109.42,-680.7zm-2001.76 1279.58c612.72,0 1109.42,304.76 1109.42,680.7 0,375.94 -496.7,680.7 -1109.42,680.7 -612.72,0 -1109.42,-304.76 -1109.42,-680.7 0,-375.94 496.7,-680.7 1109.42,-680.7z"/>
      </clipPath>
  <linearGradient id="id3" gradientUnits="userSpaceOnUse" x1="5161" y1="3345.78" x2="5413.3" y2="3875.36">
   <stop offset="0" style="stop-opacity:1; stop-color:#349C79"/>
   <stop offset="1" style="stop-opacity:1; stop-color:#28E066"/>
  </linearGradient>
  <linearGradient id="id4" gradientUnits="userSpaceOnUse" x1="5062.84" y1="2575.98" x2="5118.21" y2="3697.49">
   <stop offset="0" style="stop-opacity:1; stop-color:#0F5596"/>
   <stop offset="1" style="stop-opacity:1; stop-color:#3996ED"/>
  </linearGradient>
 </defs>
 <g id="Camada_x0020_1">
  <metadata id="CorelCorpID_0Corel-Layer"/>
  <g id="_1114260288">
   <g id="_4488687904">
    <path class="fil0" d="M5888.5 2984.61c55.42,-146.75 9.95,-329.28 -121.25,-397.85 -89.54,-46.82 -1115.45,-21.67 -1297.12,-21.67 -24.84,52.91 -124.07,229.08 -134.15,260.75 43.43,7.18 124.5,1.97 171.98,1.97l901.92 0c41.43,0 141.64,-6.15 174.08,7.99 57.74,25.18 41.38,91.49 17.95,132.71 -86.08,39.04 -115.08,31.66 -218.56,31.66 -234.4,0.01 -505.85,-6.36 -731.86,0.48l-350.34 690.32 307.61 6.23 233.12 -433.8c215.44,-3.98 431.72,7.87 647.64,-1.57 98.74,-4.32 180.94,-31.15 251.26,-78.77 52.63,-35.66 129.32,-118.44 147.72,-198.46z"/>
    <path class="fil1" d="M5229.09 3345.44c-25.6,-5.99 -270.51,-3.02 -306.42,0.56l323.17 420.99c97.08,125.77 72.1,116.76 153.41,116.5 66.31,-0.22 200.84,3.72 252.48,-1.6l-422.64 -536.44z"/>
    <path class="fil2" d="M5106.4 2203.48c862.88,0 1562.39,427.5 1562.39,954.84 0,527.34 -699.5,954.84 -1562.39,954.84 -862.88,0 -1562.39,-427.5 -1562.39,-954.84 0,-527.34 699.5,-954.84 1562.39,-954.84zm0 93.19c778.67,0 1409.91,385.77 1409.91,861.65 0,475.88 -631.23,861.65 -1409.91,861.65 -778.67,0 -1409.91,-385.77 -1409.91,-861.65 0,-475.88 631.23,-861.65 1409.91,-861.65z"/>
    <path class="fil2" d="M5186.45 5088.11c655.18,0 1186.3,324.59 1186.3,724.99 0,400.4 -531.12,725 -1186.3,725 -655.17,0 -1186.29,-324.59 -1186.29,-725 0,-400.4 531.12,-724.99 1186.29,-724.99zm0 70.76c591.23,0 1070.52,292.91 1070.52,654.23 0,361.33 -479.29,654.24 -1070.52,654.24 -591.23,0 -1070.52,-292.91 -1070.52,-654.24 0,-361.32 479.28,-654.23 1070.52,-654.23z"/>
    <path class="fil2" d="M7734.45 4451.7c655.17,0 1186.29,324.59 1186.29,724.99 0,400.4 -531.12,724.99 -1186.29,724.99 -655.18,0 -1186.3,-324.59 -1186.3,-724.99 0,-400.4 531.12,-724.99 1186.3,-724.99zm0 70.75c591.23,0 1070.52,292.92 1070.52,654.24 0,361.32 -479.28,654.24 -1070.52,654.24 -591.24,0 -1070.52,-292.92 -1070.52,-654.24 0,-361.32 479.28,-654.24 1070.52,-654.24z"/>
    <path class="fil2" d="M9026.5 2909.93c655.18,0 1186.3,324.59 1186.3,724.99 0,400.4 -531.12,725 -1186.3,725 -655.17,0 -1186.3,-324.59 -1186.3,-725 0,-400.4 531.13,-724.99 1186.3,-724.99zm0 70.76c591.23,0 1070.52,292.91 1070.52,654.23 0,361.33 -479.29,654.24 -1070.52,654.24 -591.23,0 -1070.52,-292.91 -1070.52,-654.24 0,-361.32 479.29,-654.23 1070.52,-654.23z"/>
    <path class="fil2" d="M8479.23 1279.58c655.17,0 1186.29,324.59 1186.29,725 0,400.4 -531.12,724.99 -1186.29,724.99 -655.18,0 -1186.3,-324.59 -1186.3,-724.99 0,-400.4 531.12,-725 1186.3,-725zm0 70.76c591.23,0 1070.52,292.91 1070.52,654.24 0,361.32 -479.28,654.23 -1070.52,654.23 -591.24,0 -1070.52,-292.91 -1070.52,-654.23 0,-361.33 479.28,-654.24 1070.52,-654.24z"/>
    <path class="fil2" d="M6455.32 0c655.18,0 1186.3,324.59 1186.3,725 0,400.4 -531.12,724.99 -1186.3,724.99 -655.17,0 -1186.29,-324.59 -1186.29,-724.99 0,-400.4 531.12,-725 1186.29,-725zm0 70.76c591.24,0 1070.52,292.91 1070.52,654.24 0,361.32 -479.28,654.23 -1070.52,654.23 -591.23,0 -1070.52,-292.91 -1070.52,-654.23 0,-361.33 479.29,-654.24 1070.52,-654.24z"/>
    <path class="fil2" d="M2589.08 4451.7c-655.17,0 -1186.29,324.59 -1186.29,724.99 0,400.4 531.12,724.99 1186.29,724.99 655.18,0 1186.3,-324.59 1186.3,-724.99 0,-400.4 -531.12,-724.99 -1186.3,-724.99zm0 70.75c-591.23,0 -1070.52,292.92 -1070.52,654.24 0,361.32 479.28,654.24 1070.52,654.24 591.23,0 1070.52,-292.92 1070.52,-654.24 0,-361.32 -479.29,-654.24 -1070.52,-654.24z"/>
    <path class="fil2" d="M1186.3 2909.93c-655.18,0 -1186.3,324.59 -1186.3,724.99 0,400.4 531.12,725 1186.3,725 655.17,0 1186.3,-324.59 1186.3,-725 0,-400.4 -531.13,-724.99 -1186.3,-724.99zm0 70.76c-591.23,0 -1070.52,292.91 -1070.52,654.23 0,361.33 479.29,654.24 1070.52,654.24 591.23,0 1070.52,-292.91 1070.52,-654.24 0,-361.32 -479.29,-654.23 -1070.52,-654.23z"/>
    <path class="fil2" d="M1800.01 1279.58c-655.17,0 -1186.3,324.59 -1186.3,725 0,400.4 531.13,724.99 1186.3,724.99 655.18,0 1186.3,-324.59 1186.3,-724.99 0,-400.4 -531.12,-725 -1186.3,-725zm0 70.76c-591.23,0 -1070.52,292.91 -1070.52,654.24 0,361.32 479.29,654.23 1070.52,654.23 591.23,0 1070.52,-292.91 1070.52,-654.23 0,-361.33 -479.29,-654.24 -1070.52,-654.24z"/>
    <path class="fil2" d="M3801.77 0c-655.18,0 -1186.3,324.59 -1186.3,725 0,400.4 531.12,724.99 1186.3,724.99 655.17,0 1186.3,-324.59 1186.3,-724.99 0,-400.4 -531.13,-725 -1186.3,-725zm0 70.76c-591.23,0 -1070.52,292.91 -1070.52,654.24 0,361.32 479.29,654.23 1070.52,654.23 591.23,0 1070.52,-292.91 1070.52,-654.23 0,-361.33 -479.28,-654.24 -1070.52,-654.24z"/>
    <g>
     <circle class="fil3" cx="5186.45" cy="4883.07" r="69.18"/>
     <circle class="fil3" cx="5186.45" cy="4600.64" r="69.18"/>
     <circle class="fil3" cx="5186.45" cy="4318.22" r="69.18"/>
    </g>
    <g>
     <g>
      <circle class="fil3" transform="matrix(0.199819 -0.159617 0.159617 0.199819 6951.84 4289.08)" r="270.5"/>
      <circle class="fil3" transform="matrix(0.199819 -0.159617 0.159617 0.199819 6775.58 4068.41)" r="270.5"/>
      <circle class="fil3" transform="matrix(0.199819 -0.159617 0.159617 0.199819 6599.3 3847.75)" r="270.5"/>
     </g>
     <g>
      <circle class="fil3" transform="matrix(0.0396103 -0.252659 0.252659 0.0396103 7571.95 3350.67)" r="270.5"/>
      <circle class="fil3" transform="matrix(0.0396103 -0.252659 0.252659 0.0396103 7292.93 3306.93)" r="270.5"/>
      <circle class="fil3" transform="matrix(0.0396103 -0.252659 0.252659 0.0396103 7013.9 3263.18)" r="270.5"/>
     </g>
     <g>
      <circle class="fil3" transform="matrix(-0.0878026 -0.240199 0.240199 -0.0878026 7154.02 2318.66)" r="270.5"/>
      <circle class="fil3" transform="matrix(-0.0878026 -0.240199 0.240199 -0.0878026 6888.76 2415.63)" r="270.5"/>
      <circle class="fil3" transform="matrix(-0.0878026 -0.240199 0.240199 -0.0878026 6623.49 2512.59)" r="270.5"/>
     </g>
     <g>
      <circle class="fil3" transform="matrix(-0.212129 -0.142851 0.142851 -0.212129 6021.89 1599.39)" r="270.5"/>
      <circle class="fil3" transform="matrix(-0.212129 -0.142851 0.142851 -0.212129 5864.15 1833.65)" r="270.5"/>
      <circle class="fil3" transform="matrix(-0.212129 -0.142851 0.142851 -0.212129 5706.39 2067.91)" r="270.5"/>
     </g>
    </g>
    <path class="fil2" d="M1186.3 2954.22c612.71,0 1109.42,304.76 1109.42,680.7 0,375.95 -496.71,680.71 -1109.42,680.71 -612.72,0 -1109.42,-304.76 -1109.42,-680.71 0,-375.94 496.7,-680.7 1109.42,-680.7zm1402.78 1541.77c612.72,0 1109.42,304.76 1109.42,680.7 0,375.94 -496.7,680.7 -1109.42,680.7 -612.71,0 -1109.42,-304.76 -1109.42,-680.7 0,-375.94 496.71,-680.7 1109.42,-680.7zm2597.36 636.41c612.72,0 1109.42,304.76 1109.42,680.7 0,375.94 -496.7,680.71 -1109.42,680.71 -612.72,0 -1109.42,-304.76 -1109.42,-680.71 0,-375.94 496.7,-680.7 1109.42,-680.7zm2548 -636.41c612.71,0 1109.42,304.76 1109.42,680.7 0,375.94 -496.71,680.7 -1109.42,680.7 -612.72,0 -1109.43,-304.76 -1109.43,-680.7 0,-375.94 496.71,-680.7 1109.43,-680.7zm1292.06 -1541.77c612.72,0 1109.42,304.76 1109.42,680.7 0,375.95 -496.7,680.71 -1109.42,680.71 -612.72,0 -1109.42,-304.76 -1109.42,-680.71 0,-375.94 496.7,-680.7 1109.42,-680.7zm-547.28 -1630.34c612.72,0 1109.42,304.76 1109.42,680.7 0,375.94 -496.7,680.7 -1109.42,680.7 -612.71,0 -1109.42,-304.76 -1109.42,-680.7 0,-375.94 496.71,-680.7 1109.42,-680.7zm-2023.9 -1279.58c612.72,0 1109.43,304.76 1109.43,680.7 0,375.94 -496.71,680.7 -1109.43,680.7 -612.71,0 -1109.42,-304.76 -1109.42,-680.7 0,-375.94 496.71,-680.7 1109.42,-680.7zm-2653.56 0c612.71,0 1109.42,304.76 1109.42,680.7 0,375.94 -496.71,680.7 -1109.42,680.7 -612.72,0 -1109.42,-304.76 -1109.42,-680.7 0,-375.94 496.7,-680.7 1109.42,-680.7zm-2001.76 1279.58c612.72,0 1109.42,304.76 1109.42,680.7 0,375.94 -496.7,680.7 -1109.42,680.7 -612.72,0 -1109.42,-304.76 -1109.42,-680.7 0,-375.94 496.7,-680.7 1109.42,-680.7z"/>
    <g>
    </g>
    <g style="clip-path:url(#id0)">
     <g>
     </g>
     <g style="clip-path:url(#id1)">
      <image x="-6946.76" y="-2516.16" width="19866.14" height="12408.4" xlink:href="Modulo 2 verde_Images\Modulo 2 verde_ImgID1.png"/>
     </g>
     <g style="clip-path:url(#id2)">
     </g>
    </g>
    <path class="fil4" d="M1186.3 2954.22c612.71,0 1109.42,304.76 1109.42,680.7 0,375.95 -496.71,680.71 -1109.42,680.71 -612.72,0 -1109.42,-304.76 -1109.42,-680.71 0,-375.94 496.7,-680.7 1109.42,-680.7zm1402.78 1541.77c612.72,0 1109.42,304.76 1109.42,680.7 0,375.94 -496.7,680.7 -1109.42,680.7 -612.71,0 -1109.42,-304.76 -1109.42,-680.7 0,-375.94 496.71,-680.7 1109.42,-680.7zm2597.36 636.41c612.72,0 1109.42,304.76 1109.42,680.7 0,375.94 -496.7,680.71 -1109.42,680.71 -612.72,0 -1109.42,-304.76 -1109.42,-680.71 0,-375.94 496.7,-680.7 1109.42,-680.7zm2548 -636.41c612.71,0 1109.42,304.76 1109.42,680.7 0,375.94 -496.71,680.7 -1109.42,680.7 -612.72,0 -1109.43,-304.76 -1109.43,-680.7 0,-375.94 496.71,-680.7 1109.43,-680.7zm1292.06 -1541.77c612.72,0 1109.42,304.76 1109.42,680.7 0,375.95 -496.7,680.71 -1109.42,680.71 -612.72,0 -1109.42,-304.76 -1109.42,-680.71 0,-375.94 496.7,-680.7 1109.42,-680.7zm-547.28 -1630.34c612.72,0 1109.42,304.76 1109.42,680.7 0,375.94 -496.7,680.7 -1109.42,680.7 -612.71,0 -1109.42,-304.76 -1109.42,-680.7 0,-375.94 496.71,-680.7 1109.42,-680.7zm-2023.9 -1279.58c612.72,0 1109.43,304.76 1109.43,680.7 0,375.94 -496.71,680.7 -1109.43,680.7 -612.71,0 -1109.42,-304.76 -1109.42,-680.7 0,-375.94 496.71,-680.7 1109.42,-680.7zm-2653.56 0c612.71,0 1109.42,304.76 1109.42,680.7 0,375.94 -496.71,680.7 -1109.42,680.7 -612.72,0 -1109.42,-304.76 -1109.42,-680.7 0,-375.94 496.7,-680.7 1109.42,-680.7zm-2001.76 1279.58c612.72,0 1109.42,304.76 1109.42,680.7 0,375.94 -496.7,680.7 -1109.42,680.7 -612.72,0 -1109.42,-304.76 -1109.42,-680.7 0,-375.94 496.7,-680.7 1109.42,-680.7z"/>
    <path class="fil4" d="M1186.3 2954.22c612.71,0 1109.42,304.76 1109.42,680.7 0,375.95 -496.71,680.71 -1109.42,680.71 -612.72,0 -1109.42,-304.76 -1109.42,-680.71 0,-375.94 496.7,-680.7 1109.42,-680.7zm1402.78 1541.77c612.72,0 1109.42,304.76 1109.42,680.7 0,375.94 -496.7,680.7 -1109.42,680.7 -612.71,0 -1109.42,-304.76 -1109.42,-680.7 0,-375.94 496.71,-680.7 1109.42,-680.7zm2597.36 636.41c612.72,0 1109.42,304.76 1109.42,680.7 0,375.94 -496.7,680.71 -1109.42,680.71 -612.72,0 -1109.42,-304.76 -1109.42,-680.71 0,-375.94 496.7,-680.7 1109.42,-680.7zm2548 -636.41c612.71,0 1109.42,304.76 1109.42,680.7 0,375.94 -496.71,680.7 -1109.42,680.7 -612.72,0 -1109.43,-304.76 -1109.43,-680.7 0,-375.94 496.71,-680.7 1109.43,-680.7zm1292.06 -1541.77c612.72,0 1109.42,304.76 1109.42,680.7 0,375.95 -496.7,680.71 -1109.42,680.71 -612.72,0 -1109.42,-304.76 -1109.42,-680.71 0,-375.94 496.7,-680.7 1109.42,-680.7zm-547.28 -1630.34c612.72,0 1109.42,304.76 1109.42,680.7 0,375.94 -496.7,680.7 -1109.42,680.7 -612.71,0 -1109.42,-304.76 -1109.42,-680.7 0,-375.94 496.71,-680.7 1109.42,-680.7zm-2023.9 -1279.58c612.72,0 1109.43,304.76 1109.43,680.7 0,375.94 -496.71,680.7 -1109.43,680.7 -612.71,0 -1109.42,-304.76 -1109.42,-680.7 0,-375.94 496.71,-680.7 1109.42,-680.7zm-2653.56 0c612.71,0 1109.42,304.76 1109.42,680.7 0,375.94 -496.71,680.7 -1109.42,680.7 -612.72,0 -1109.42,-304.76 -1109.42,-680.7 0,-375.94 496.7,-680.7 1109.42,-680.7zm-2001.76 1279.58c612.72,0 1109.42,304.76 1109.42,680.7 0,375.94 -496.7,680.7 -1109.42,680.7 -612.72,0 -1109.42,-304.76 -1109.42,-680.7 0,-375.94 496.7,-680.7 1109.42,-680.7z"/>
    <g>
     <g>
      <circle class="fil3" transform="matrix(-0.199819 -0.159617 -0.159617 0.199819 3288.94 4289.08)" r="270.5"/>
      <circle class="fil3" transform="matrix(-0.199819 -0.159617 -0.159617 0.199819 3465.21 4068.41)" r="270.5"/>
      <circle class="fil3" transform="matrix(-0.199819 -0.159617 -0.159617 0.199819 3641.48 3847.75)" r="270.5"/>
     </g>
     <g>
      <circle class="fil3" transform="matrix(-0.0396103 -0.252659 -0.252659 0.0396103 2668.83 3350.67)" r="270.5"/>
      <circle class="fil3" transform="matrix(-0.0396103 -0.252659 -0.252659 0.0396103 2947.86 3306.93)" r="270.5"/>
      <circle class="fil3" transform="matrix(-0.0396103 -0.252659 -0.252659 0.0396103 3226.87 3263.18)" r="270.5"/>
     </g>
     <g>
      <circle class="fil3" transform="matrix(0.0878026 -0.240199 -0.240199 -0.0878026 3086.77 2318.66)" r="270.5"/>
      <circle class="fil3" transform="matrix(0.0878026 -0.240199 -0.240199 -0.0878026 3352.02 2415.63)" r="270.5"/>
      <circle class="fil3" transform="matrix(0.0878026 -0.240199 -0.240199 -0.0878026 3617.28 2512.59)" r="270.5"/>
     </g>
     <g>
      <circle class="fil3" transform="matrix(0.212129 -0.142851 -0.142851 -0.212129 4218.88 1599.39)" r="270.5"/>
      <circle class="fil3" transform="matrix(0.212129 -0.142851 -0.142851 -0.212129 4376.64 1833.65)" r="270.5"/>
      <circle class="fil3" transform="matrix(0.212129 -0.142851 -0.142851 -0.212129 4534.4 2067.91)" r="270.5"/>
     </g>
    </g>
    <g>
     <g>
      <path class="fil5" d="M4821.01 5377.19l0 621.3c0,19.31 2.99,37.6 12.29,48.1 8.97,10.13 22,21.49 40.07,21.89 40.32,0.9 81.96,-0.07 122.43,-0.07 82.1,0 164.2,0 246.29,0l-10.76 -32.15c-4.18,-10.24 -9.19,-7.34 -32.61,-10.29 -11.84,-1.5 -15.46,-1.25 -25.59,-4.6 -8.27,-2.74 -13.42,-4.86 -19.98,-8.62 -20.41,-11.73 -31.24,-29.41 -36.59,-52.4l-252.66 0 0 -589.52c0,-8.89 3.1,-20.66 11.13,-20.66l436.97 0c5.78,0 11.12,7.75 11.12,14.3l0 382.95c10.17,0 33.11,-5.66 42.91,-7.94l0 -362.29c0.04,-28.93 -5.35,-49.31 -28.06,-62.52 -5.07,-2.95 -15.63,-7.4 -22.79,-7.4l-440.15 0c-18.96,0 -31.48,10.92 -40.96,21.01 -9.9,10.53 -13.06,28.89 -13.06,48.91zm297.1 666.12l-49.17 0 0 -40.01 25.04 -18.77 24.14 18.1 0 40.68z"/>
      <g>
       <path class="fil5" d="M5302.41 6060.71c3.6,-1.73 18.28,-7.02 22.25,-7.94 0.87,10.47 6.1,12.57 6.36,23.83 -9.36,0.78 -14.17,5.68 -22.25,6.36 -0.64,-7.71 -5.14,-12.74 -6.36,-22.25zm-79.45 -347.99c14.06,0 18.03,16.82 21.66,27.6l26.93 74.77c9.5,24.52 6.28,32.69 24.51,32.69 4.08,0 9.53,-4.41 9.53,-12.71 0,-8.66 -9.56,-19.01 24.78,-27.65 6.38,-1.6 10.97,-0.21 17.19,-1.89 13.53,-3.65 24.71,-10.71 46.88,-3.69 2.41,0.77 12.16,4.63 14.44,4.63 39.11,0 41.82,-8.55 54.94,26.09 21.14,55.78 20.45,58.24 14.8,105.69 -1.51,12.63 0.73,16.28 1.76,28.7 -4.49,0.38 -15.66,4.8 -20.43,6.58l-123.59 44.85c-7.92,2.67 -13.09,5.46 -21.24,7.36 -2.93,-12.56 -13.42,-24.96 -22.23,-31.79 -55.82,-43.29 -116.01,-18.82 -116.01,-46.07 0,-25.26 79.71,-9.71 87.39,-9.53 12.14,-25.3 -3.64,-52.97 -10.94,-74.87 -6.26,-18.81 -46.15,-123.35 -46.88,-132.38 -0.82,-10.21 7.6,-18.39 16.5,-18.39zm17.48 195.44c-20.67,-1.72 -44.68,-4.32 -65.18,4.74 -35.46,15.67 -31.52,57.98 1.1,72.04 17.38,7.5 44.81,5.47 69.05,13.58 23.66,7.92 35.22,16.62 45.87,36.75l-20.57 6.59c1.63,7.11 4.07,11.94 6.47,18.64 2.35,6.5 4.77,12.77 7.16,19.85 2.46,7.3 4.63,12.3 6.74,18.68 2.23,6.74 5.96,13.43 6.55,20.46 6,-0.49 11.2,-2.88 15.89,-4.76 5.3,-2.12 10.59,-3.61 16.36,-5.89 10.75,-4.25 21.19,-7.68 31.51,-11.39 21.01,-7.55 42.01,-14.66 62.9,-22.91l94.45 -34.26c5.9,-2.2 10.32,-3.59 16.33,-5.92 5.64,-2.18 11.26,-4.14 16.81,-5.44 -0.13,-5.91 -23.02,-69.53 -27.02,-77.86 -5.68,0.48 -14.66,4.25 -19.06,6.36 -0.28,-12.31 -2.97,-0.07 0.48,-23.36l2.7 -32.26c0,-27.23 -19.44,-83.98 -30.16,-100.14 -25.34,-38.17 -51.97,-16.85 -71.38,-23.96 -18.43,-6.76 -35.58,-8.76 -55.82,-3.07 -13.3,3.74 -0.1,1.68 -21.52,5.49 -17.16,3.05 -25.18,8.76 -37.21,16.82 -0.38,-4.54 -30.87,-90.68 -36.88,-96.6 -32.96,-32.49 -94.87,-6.94 -70.05,55.75l54.5 152.08z"/>
       <path class="fil5" d="M5048.16 5696.83c-3.48,-2.33 -4.46,-3.32 -7.29,-7.02l-46.7 -56.58c-2.66,-2.68 -0.19,-1.91 -4.8,-3.14 -2.54,10.91 -6.18,22.64 -9.74,33.16l-19.88 65.93c-3.23,11 -7.61,22.09 -10.1,32.8 -6.08,-2.91 -13.74,-5.5 -20.43,-8.18 -5.75,-2.3 -15.39,-7.13 -22.47,-7.71 -2.31,9.92 -10.49,22.57 -11.13,30.19 6.18,0.52 13.19,4.46 18.62,6.8l56.06 21.8 33.37 -108.05 21.89 25.78c3.96,4.54 7.05,8.16 10.98,12.85 4.63,5.51 5.57,8.17 11.61,12.22l94.89 -118.05c5.34,-4.42 64.69,-26.08 76.06,-30.4l57.19 -22.26c6.91,-2.77 12.67,-5.61 19.75,-7.26 -0.96,-11.6 -8.71,-20.3 -9.53,-30.19 -9.59,0.22 -123.35,46.69 -143.19,53.84 -5.18,1.86 -12.35,4.38 -17.08,6.76 -5.99,3.02 -28.57,33.77 -34.09,40.59l-43.99 56.11z"/>
       <path class="fil5" d="M5108.55 5468.01c-9.73,-0.81 -8.12,-4.76 -25.42,-4.76 -11.33,0 -14.3,6.31 -14.3,14.3 0,15.73 47.67,14.09 47.67,44.49 0,9.39 -1.01,17.93 -10.11,24.84 -18.51,14.08 -18.49,-4.15 -18.49,26l-12.71 0c0,-21.98 0.93,-15.71 -13.08,-18.7 -7.04,-1.51 -9.72,-3.78 -15.53,-5.13 0.85,-3.62 3.4,-13.03 4.77,-15.89 13.43,7.11 44.49,15.39 44.49,-9.53 0,-19.38 -47.67,-9.52 -47.67,-49.26 0,-10.26 9.01,-19.09 18.69,-22.63 9.32,-3.4 8.32,3.05 8.32,-20.27 16.73,0 14.3,-2.52 14.3,17.48 9.26,0 13.93,0.78 22.25,4.76 -0.44,5.25 -2.07,9.53 -3.18,14.3l0 0zm-106.46 25.42c0,38.3 13.23,64.31 48.7,81.6 19.5,9.5 45.18,9.5 64.68,0 49.15,-23.95 63.25,-79.14 33.48,-122l-7.95 -9.52c-57.9,-57.53 -138.9,-4.64 -138.9,49.91z"/>
      </g>
     </g>
     <polygon class="fil6" points="4840.88,6181 4800.57,6181 4800.57,6237.81 4837.71,6237.81 4837.71,6249.76 4800.57,6249.76 4800.57,6318.92 4785.16,6318.92 4785.16,6169.24 4840.88,6169.24 "/>
     <polygon id="_1" class="fil6" points="4878.43,6318.92 4863.04,6318.92 4863.04,6169.24 4878.43,6169.24 "/>
     <polygon id="_2" class="fil6" points="4978.58,6318.92 4967.97,6318.92 4921.73,6208.85 4921.73,6318.92 4907.23,6318.92 4907.23,6169.24 4918.75,6169.24 4964.08,6277.42 4964.08,6169.24 4978.58,6169.24 "/>
     <path id="_3" class="fil6" d="M5075.96 6318.92l-15.17 0 -6.08 -33.11 -34.46 0 -6.12 33.11 -14.72 0 0 -0.39 30.8 -149.69 15.17 0 30.58 150.07zm-23.25 -44.86l-15.17 -81.24 -15.33 81.24 30.5 0z"/>
     <polygon id="_4" class="fil6" points="5168.1,6318.92 5157.5,6318.92 5111.26,6208.85 5111.26,6318.92 5096.76,6318.92 5096.76,6169.24 5108.28,6169.24 5153.61,6277.42 5153.61,6169.24 5168.1,6169.24 "/>
     <path id="_5" class="fil6" d="M5265.03 6307.82c0,3.27 -1.21,5.95 -3.63,8 -2.41,2.05 -5.5,3.1 -9.21,3.1l-43.64 0c-3.77,0 -6.87,-1.04 -9.24,-3.1 -2.38,-2.05 -3.59,-4.73 -3.59,-8l0 -127.48c0,-3.27 1.2,-5.94 3.59,-8 2.38,-2.05 5.47,-3.1 9.24,-3.1l43.64 0c3.7,0 6.79,1.04 9.21,3.1 2.42,2.06 3.63,4.73 3.63,8l0 34.35 -15.4 0 0 -33.69 -38.5 0 0 126.17 38.5 0 0 -36.83 15.4 0 0 37.48z"/>
     <polygon id="_6" class="fil6" points="5348.79,6318.92 5291.95,6318.92 5291.95,6169.24 5348.11,6169.24 5348.11,6181 5307.35,6181 5307.35,6236.84 5344.49,6236.84 5344.49,6248.78 5307.35,6248.78 5307.35,6307.17 5348.79,6307.17 "/>
     <polygon id="_7" class="fil6" points="5389.1,6318.92 5373.71,6318.92 5373.71,6169.24 5389.1,6169.24 "/>
     <path id="_8" class="fil6" d="M5491.51 6318.92l-16.08 0 -32.16 -80.19 2.12 -2.68 27.33 0 0 -55.06 -39.41 0 0 137.93 -15.4 0 0 -149.69 57.38 0c3.77,0 6.87,1.05 9.24,3.1 2.38,2.06 3.59,4.73 3.59,8l0 55.97c0,7.41 -5.58,11.1 -16.8,11.1 -1.09,0 -2.72,-0.03 -4.87,-0.13 -2.11,-0.1 -3.66,-0.17 -4.64,-0.17 9.97,23.87 19.85,47.81 29.71,71.81z"/>
     <path id="_9" class="fil6" d="M5587.73 6307.82c0,3.27 -1.21,5.95 -3.62,8 -2.38,2.05 -5.47,3.1 -9.21,3.1l-47.49 0c-3.77,0 -6.87,-1.04 -9.24,-3.1 -2.38,-2.05 -3.59,-4.73 -3.59,-8l0 -127.48c0,-3.27 1.2,-5.94 3.59,-8 2.38,-2.05 5.47,-3.1 9.24,-3.1l47.49 0c3.74,0 6.84,1.04 9.21,3.1 2.41,2.06 3.62,4.73 3.62,8l0 127.48zm-15.4 -0.65l0 -126.17 -42.35 0 0 126.17 42.35 0z"/>
    </g>
    <g>
     <g>
      <path class="fil5" d="M7590.03 4760.75c-52.65,0 -87.44,79.79 -8.41,110.99 22.26,8.79 58.66,13.74 58.66,43.94 0,29.82 -27.13,31.4 -46.06,31.4 -22.44,0 -33.5,-17.03 -33.5,-39.78l-33.5 0c0,38.79 25.21,62.81 60.72,62.81l0 27.21 27.21 0 0 -27.21c27.79,0 58.63,-21.36 58.63,-48.16 0,-63.75 -43.49,-56.4 -83.81,-77.4 -39.29,-20.45 -16.08,-60.78 6.34,-60.78 26.13,0 41.87,7.73 41.87,41.87l33.5 0c0,-36.96 -21.49,-64.9 -54.43,-64.9l0 -31.4 -27.22 0 0 31.4z"/>
      <path class="fil5" d="M7349.27 4695.85c19.24,0 40.3,10.67 50.81,20.36 4.2,3.88 12.13,14.85 15.37,20.22 3.79,6.26 8.49,18.1 9.18,26.41l-150.74 0c2.93,-35.25 39.9,-66.99 75.37,-66.99zm520.17 0c48.75,0 112.61,-4.46 129.64,62.02 8.06,31.44 3.4,146.19 3.4,189.22 0,128.41 0,256.82 0,385.23l-40.83 0 -258.44 0c-14.01,0 -28.03,0.07 -42.04,-0.06 -50.53,-0.48 -8,36.22 -53.81,78.08 -35.3,32.26 -83.22,28.53 -121.09,-6.84 -14.01,-29.07 -19.79,-20.44 -19.76,-75.37 0.04,-72.07 2.47,-548.63 -1.11,-568.36 -6.4,-35.29 -16.92,-40.83 -32.39,-63.92l83.85 0 155.55 0 197.02 0zm92.21 669.96l233.45 0c-2.81,33.8 -36.42,67.06 -81.6,67.07 -50.62,0.01 -101.23,-0.07 -151.85,-0.07l-258.44 0 -69.2 0c13.17,-19.66 23.62,-30.87 28.28,-55.46 2.54,-13.39 -5.21,-11.53 40.92,-11.53l258.44 0zm0 100.49c50.59,0 101.19,-0.11 151.77,0.01 45.09,0.1 78.95,-15.22 102.93,-49.93 9.44,-13.67 18.84,-34.19 20.56,-54.87 3.03,-36.46 -15.76,-29.2 -48.1,-29.2 -50.94,0.01 -101.89,0.01 -152.83,0.01l0 -523.41c0,-49.91 -0.9,-83.75 -39.28,-117.76 -38.03,-33.71 -75.51,-28.8 -127.27,-28.8l-197.02 0 -155.55 0c-51.68,0 -103.37,0.02 -155.05,0 -28.04,-0.01 -47.04,1.83 -65.6,11.85 -17.38,9.39 -30.5,20.22 -41.81,35.66 -10.5,14.35 -19.8,34.22 -22.15,55.35 -4.17,37.63 13.58,31.14 45.83,31.14 51.64,-0.01 103.29,0 154.92,0l0 523.41c0,50.21 -0.04,80.1 37.11,115.71 5.38,5.15 7.73,5.67 13.13,10.81 14.34,7.97 22.39,13.16 40.27,17.46 16.51,3.96 38.35,2.57 58.12,2.57 40.52,0 81.04,0 121.56,0l258.44 0z"/>
      <path class="fil5" d="M7749.15 4963.84l173.78 0c16.86,0 16.86,-33.5 0,-33.5l-173.78 0c-21.16,0 -21.16,33.5 0,33.5z"/>
      <path class="fil5" d="M7749.15 4863.34l173.78 0c16.86,0 16.86,-33.5 0,-33.5l-173.78 0c-21.16,0 -21.16,33.5 0,33.5z"/>
      <polygon class="fil5" points="7672.41,5064.33 7672.41,5030.83 "/>
      <polygon class="fil5" points="7672.41,5064.33 7672.41,5030.83 "/>
      <polygon class="fil5" points="7672.41,5164.82 7672.41,5131.33 "/>
      <polygon class="fil5" points="7672.41,5164.82 7672.41,5131.33 "/>
      <polygon class="fil5" points="7672.41,5265.32 7672.41,5231.82 "/>
      <polygon class="fil5" points="7672.41,5265.32 7672.41,5231.82 "/>
      <path class="fil5" d="M7559.26 5081.08l350.78 0c34.03,0 34.03,-33.5 0,-33.5l-350.78 0c-42.72,0 -42.72,33.5 0,33.5z"/>
      <path class="fil5" d="M7559.26 5164.82l350.78 0c34.03,0 34.03,-33.5 0,-33.5l-350.78 0c-42.72,0 -42.72,33.5 0,33.5z"/>
      <path class="fil5" d="M7559.26 5248.57l350.78 0c34.03,0 34.03,-33.5 0,-33.5l-350.78 0c-42.72,0 -42.72,33.5 0,33.5z"/>
     </g>
     <polygon class="fil6" points="7302.32,5553.35 7262.01,5553.35 7262.01,5610.16 7299.15,5610.16 7299.15,5622.11 7262.01,5622.11 7262.01,5691.28 7246.61,5691.28 7246.61,5541.59 7302.32,5541.59 "/>
     <path id="_1_0" class="fil6" d="M7393.33 5691.28l-15.17 0 -6.08 -33.11 -34.46 0 -6.12 33.11 -14.72 0 0 -0.39 30.81 -149.69 15.17 0 30.57 150.08zm-23.25 -44.86l-15.17 -81.25 -15.32 81.25 30.5 0z"/>
     <polygon id="_2_1" class="fil6" points="7473.69,5553.35 7446.97,5553.35 7446.97,5691.28 7431.56,5691.28 7431.56,5553.35 7404.61,5553.35 7404.61,5541.59 7473.69,5541.59 "/>
     <path id="_3_2" class="fil6" d="M7563.57 5680.17c0,3.26 -1.21,5.94 -3.63,8 -2.38,2.05 -5.47,3.1 -9.21,3.1l-46.13 0c-3.77,0 -6.87,-1.05 -9.24,-3.1 -2.38,-2.05 -3.59,-4.73 -3.59,-8l0 -138.58 15.4 0 0 137.93 40.99 0 0 -137.93 15.4 0 0 138.58z"/>
     <path id="_4_3" class="fil6" d="M7664.81 5691.28l-16.08 0 -32.16 -80.2 2.12 -2.68 27.33 0 0 -55.05 -39.4 0 0 137.93 -15.4 0 0 -149.69 57.37 0c3.78,0 6.87,1.04 9.25,3.1 2.38,2.05 3.59,4.73 3.59,8l0 55.97c0,7.42 -5.58,11.1 -16.8,11.1 -1.09,0 -2.72,-0.03 -4.87,-0.13 -2.11,-0.09 -3.66,-0.16 -4.65,-0.16 9.97,23.87 19.86,47.81 29.71,71.81z"/>
     <path id="_5_4" class="fil6" d="M7757.62 5691.28l-15.17 0 -6.08 -33.11 -34.46 0 -6.12 33.11 -14.72 0 0 -0.39 30.81 -149.69 15.17 0 30.57 150.08zm-23.25 -44.86l-15.17 -81.25 -15.32 81.25 30.5 0z"/>
     <path id="_6_5" class="fil6" d="M7864.25 5691.28l-14.5 0 0 -94.79c0,-1.34 0.53,-5.26 1.55,-11.76l-28.42 92.44 -3.1 0 -28.42 -92.44c1.02,6.56 1.54,10.48 1.54,11.76l0 94.79 -14.49 0 0 -149.69 14.27 0 28.2 97.34c0.15,0.49 0.3,1.93 0.45,4.28 0,-0.95 0.15,-2.39 0.45,-4.28l28.2 -97.34 14.27 0 0 149.69z"/>
     <polygon id="_7_6" class="fil6" points="7948.5,5691.28 7891.66,5691.28 7891.66,5541.59 7947.82,5541.59 7947.82,5553.35 7907.06,5553.35 7907.06,5609.18 7944.2,5609.18 7944.2,5621.14 7907.06,5621.14 7907.06,5679.52 7948.5,5679.52 "/>
     <polygon id="_8_7" class="fil6" points="8043.85,5691.28 8033.24,5691.28 7987,5581.2 7987,5691.28 7972.51,5691.28 7972.51,5541.59 7984.02,5541.59 8029.36,5649.77 8029.36,5541.59 8043.85,5541.59 "/>
     <polygon id="_9_8" class="fil6" points="8131.04,5553.35 8104.32,5553.35 8104.32,5691.28 8088.92,5691.28 8088.92,5553.35 8061.97,5553.35 8061.97,5541.59 8131.04,5541.59 "/>
     <path id="_10" class="fil6" d="M8222.28 5680.17c0,3.26 -1.2,5.94 -3.62,8 -2.38,2.05 -5.47,3.1 -9.21,3.1l-47.49 0c-3.78,0 -6.87,-1.05 -9.25,-3.1 -2.38,-2.05 -3.59,-4.73 -3.59,-8l0 -127.48c0,-3.26 1.21,-5.94 3.59,-8 2.38,-2.06 5.47,-3.1 9.25,-3.1l47.49 0c3.73,0 6.83,1.04 9.21,3.1 2.42,2.05 3.62,4.73 3.62,8l0 127.48zm-15.4 -0.65l0 -126.17 -42.35 0 0 126.17 42.35 0z"/>
    </g>
    <g>
     <g>
      <path class="fil5" d="M8787.94 3966.29l-25.04 -26.07 71.56 -70.63 26.03 25.13 -72.55 71.57zm102.33 -913.72l15.67 0c18.63,1.92 36.4,10.68 51.3,25.55 20.88,20.82 28.7,56.22 14.38,86.06 26.37,2.19 53.95,29.04 53.95,57.66l0 104.16c0,7.28 -8.5,10.89 -14.24,13.66 -6.4,3.09 -11.66,5.63 -17.38,8.65l0 93c12.89,-1.07 21.11,-5.33 55.77,-7.62l27.98 0.12c8,0.2 19.22,2.19 25.99,3.77l0 -89.28c-6.95,-3.67 -13.92,-6.39 -20.93,-10.69 -7.39,-4.54 -10.69,-9.68 -10.69,-20.92 0,-38.74 -6.3,-105.46 14.38,-128.85 9.05,-10.23 23.64,-23.28 41.41,-23.68 -10.58,-20.01 -9.57,-46.12 0.58,-66.38 14.23,-28.42 39.82,-42.86 65.42,-45.22l15.09 0c14.57,1.35 28.39,6.6 39.29,15.4l9.65 8.95c21.51,22.25 30.04,58.93 15.05,87.25 29.11,0.65 55.8,31.22 55.8,70.68l0 81.85c0,11.24 -3.3,16.38 -10.69,20.92 -7.01,4.3 -13.98,7.02 -20.92,10.69 0,186.52 13,165.55 -59.53,165.55 2.17,8.11 44.72,48.08 55.29,117.7 31.29,206.08 -181.65,338.13 -343.59,252.45 -7.88,5.28 -22.48,21.46 -30.23,29.3 -19.92,20.15 -22.72,13.57 -36.74,4.18 -7.12,10.63 -33.31,34.24 -44.18,45.1 -26.66,26.67 -38.19,40.12 -47.59,42.32l-5.41 0c-7.79,-1.86 -15.9,-11.71 -32.56,-28.37 -16.4,-16.41 -28.36,-23.23 -28.36,-38.59 0,-7.87 81.45,-87.14 87.42,-91.14 -9.39,-14.03 -15.97,-16.82 4.18,-36.74 7.83,-7.74 24.02,-22.34 29.3,-30.22 -30.91,-58.41 -35.8,-140.34 -6.83,-202.13 9.58,-20.44 15.47,-31.31 28.88,-49.25 3.68,-4.92 8.42,-10.11 11.43,-14.61 -14,0 -49.48,1.76 -60.99,-0.39 -18.5,-3.47 -15.27,-22.41 -15.27,-44.25 0.01,-40.3 0,-80.6 0,-120.9 -40.44,-21.4 -31.62,-5.23 -31.62,-117.18 0,-35.5 27.02,-64.72 53.94,-66.96 -0.93,-11.1 -5.58,-12.68 -5.58,-33.48 0,-29.39 18.75,-58.75 44.61,-70.71 8.78,-4.06 17.7,-6.5 26.55,-7.41zm-47.44 777.95l20.48 -21.36c14.6,21.59 35.1,42.09 56.24,56.25l-20.01 20.9 -56.71 -55.79zm225.52 46.04c-52.68,0 -70.86,-4.07 -115.33,-27.89 -22.89,-12.27 -46.81,-36.51 -62.18,-56.87 -44.05,-58.36 -50.84,-145.29 -18.43,-209.76 17.32,-34.45 38.66,-59.59 69.8,-80.86 10.74,-7.34 19.73,-12.08 32.5,-17.72 190.32,-84.14 366.38,135.92 254,302.36 -33.86,50.15 -96.14,90.75 -160.36,90.75zm85.56 -740.29l0 -9.31c0,-22.97 24.04,-42.33 46.5,-42.33 22.46,0 46.5,19.35 46.5,42.33 0,42.59 -22.58,35.3 -21.27,53.64 2.27,31.63 48.69,-2.38 66.56,33.14 4.13,8.21 3.09,18.9 3.07,30.4 -0.03,22.94 0,45.88 0,68.83 -5.59,1.3 -31.62,11.35 -31.62,22.31l0 145.09c-84.38,0 -48.42,5.27 -91.75,-17.99 -17.69,-9.49 -22.24,-9.5 -34.73,-15.49 0,-14.85 3.27,-110.7 -3.54,-119.23 -3.79,-4.75 -21.15,-13.08 -28.08,-14.69 0,-57.69 -13.44,-116.33 33.39,-117.28 26.89,-0.54 35.43,3.6 35.43,-20.37 0,-6.31 -20.46,-17.77 -20.46,-39.06zm-159.97 176.7c-5.47,1.28 -25.36,10.82 -28.36,14.42 -6.1,7.31 -3.26,27.47 -3.26,39.53 0,28.52 0,57.05 0,85.56l-14.85 7.5c-0.11,-31.52 6.15,-27.96 -27.93,-27.96 -8.73,0 -5.58,11.43 -5.58,33.48l22.32 0c-5.84,5.07 -18.74,14.88 -26.04,14.88l-74.4 0 0 -141.36c0,-14.92 -22.73,-23.97 -31.62,-26.04 0,-20.81 -3.2,-84.48 2.52,-97.92 16.56,-38.87 66.3,-0.44 66.3,-36 0,-17.86 -20.46,-9.82 -20.46,-52.08 0,-22.45 24.04,-43.18 46.34,-42.48 24.04,0.75 46.65,19.27 46.65,48.07 0,28.33 -19.87,32.65 -21.68,45.29 -1.22,8.49 6,16.74 14.35,17.84 30.47,4.02 55.84,-10.27 55.7,48.47 -0.06,22.94 -0.01,45.88 -0.01,68.82z"/>
      <path class="fil5" d="M9066.5 3813.32c-28.33,0 -43.39,-0.27 -70.08,-13.61 -44.72,-22.36 -80.58,-69.65 -80.58,-118.45 0,-37.31 4.42,-64.1 27.07,-93.83 16.29,-21.38 32.95,-35.76 59.26,-46.76 107.31,-44.9 217.85,48.31 194.43,160.95 -5.85,28.14 -18.41,47.42 -35.77,68.39 -18.28,22.08 -63.31,43.31 -94.32,43.31zm-184.14 -145.08c0,41.11 10.64,72.55 31.97,103.82 6.82,10 11.24,14.73 19.65,23.14 63.62,63.62 161.48,68.82 232.21,13.66 32.34,-25.23 65.86,-74.83 65.86,-127.59l0 -20.46c0,-82.32 -81.37,-163.69 -163.68,-163.69 -35.71,0 -54.66,1.44 -87.43,16.74 -12.65,5.9 -38.93,24.4 -48.62,35.08 -2.08,2.3 -1.54,2.3 -4.03,5.27 -26.94,32.21 -45.93,65.92 -45.93,114.04z"/>
      <path class="fil5" d="M8945.59 3671.96l33.48 0c0,-32.23 19.21,-60.38 46.47,-72.57 11.9,-5.32 20.33,-4.34 33.51,-7.41 0,-6.28 0.11,-12.51 0.16,-18.77 0.07,-9.83 1.27,-12.85 -7.6,-12.85 -53.86,0 -106.02,50.89 -106.02,111.6z"/>
      <path class="fil5" d="M8865.61 3216.25c0,31.98 -3.54,27.9 16.74,27.9l0 63.24 33.48 0 0 -63.24 14.88 0 0 -33.48 -59.52 0c-4.28,0 -5.58,1.3 -5.58,5.58z"/>
      <polygon class="fil5" points="9168.8,3244.15 9183.67,3244.15 9183.67,3307.39 9217.16,3307.39 9217.16,3244.15 9232.04,3244.15 9232.04,3210.67 9168.8,3210.67 "/>
      <path class="fil5" d="M9215.3 3437.59l0 27.9 33.48 0c0,-40.19 6.29,-33.48 -27.9,-33.48 -4.29,0 -5.58,1.3 -5.58,5.58z"/>
      <polygon class="fil5" points="9008.39,3973.29 9041.88,3973.29 9041.88,3941.66 9008.39,3941.66 "/>
      <polygon class="fil5" points="9071.64,3973.29 9105.12,3973.29 9105.12,3941.66 9071.64,3941.66 "/>
      <polygon class="fil5" points="9263.22,3973.29 9296.7,3973.29 9296.7,3941.66 9263.22,3941.66 "/>
      <polygon class="fil5" points="9136.74,3973.29 9168.36,3973.29 9168.36,3941.66 9136.74,3941.66 "/>
      <polygon class="fil5" points="9199.98,3973.29 9231.6,3973.29 9231.6,3941.66 9199.98,3941.66 "/>
     </g>
     <polygon class="fil6" points="8803.78,4079.35 8777.06,4079.35 8777.06,4217.28 8761.66,4217.28 8761.66,4079.35 8734.7,4079.35 8734.7,4067.59 8803.78,4067.59 "/>
     <path id="_1_9" class="fil6" d="M8895.47 4217.28l-16.08 0 -32.16 -80.2 2.12 -2.68 27.33 0 0 -55.05 -39.41 0 0 137.93 -15.4 0 0 -149.69 57.37 0c3.78,0 6.87,1.04 9.25,3.1 2.38,2.05 3.59,4.73 3.59,8l0 55.97c0,7.41 -5.59,11.1 -16.8,11.1 -1.09,0 -2.72,-0.03 -4.87,-0.13 -2.12,-0.1 -3.66,-0.16 -4.65,-0.16 9.97,23.87 19.86,47.81 29.71,71.81z"/>
     <polygon id="_2_10" class="fil6" points="8934.84,4217.28 8919.43,4217.28 8919.43,4067.59 8934.84,4067.59 "/>
     <path id="_3_11" class="fil6" d="M9033.4 4217.28l-15.18 0 -6.07 -33.11 -34.47 0 -6.12 33.11 -14.72 0 0 -0.39 30.8 -149.69 15.17 0 30.58 150.08zm-23.26 -44.87l-15.17 -81.24 -15.33 81.24 30.5 0z"/>
     <path id="_4_12" class="fil6" d="M9124.17 4206.18c0,3.26 -1.21,5.94 -3.59,8 -2.38,2.05 -5.47,3.1 -9.24,3.1l-44.31 0c-3.78,0 -6.87,-1.05 -9.25,-3.1 -2.38,-2.05 -3.59,-4.73 -3.59,-8l0 -127.48c0,-3.26 1.2,-5.94 3.59,-8 2.38,-2.06 5.47,-3.1 9.25,-3.1l44.31 0c3.77,0 6.86,1.04 9.24,3.1 2.38,2.05 3.59,4.73 3.59,8l0 34.35 -15.4 0 0 -33.7 -39.18 0 0 126.17 39.18 0 0 -51.73 -18.57 0 0 -11.56 33.97 0 0 63.94z"/>
     <polygon id="_5_13" class="fil6" points="9208.46,4217.28 9151.62,4217.28 9151.62,4067.59 9207.78,4067.59 9207.78,4079.35 9167.02,4079.35 9167.02,4135.18 9204.16,4135.18 9204.16,4147.14 9167.02,4147.14 9167.02,4205.52 9208.46,4205.52 "/>
     <path id="_6_14" class="fil6" d="M9318.3 4217.28l-14.5 0 0 -94.79c0,-1.34 0.53,-5.26 1.55,-11.76l-28.42 92.44 -3.09 0 -28.42 -92.44c1.02,6.56 1.54,10.48 1.54,11.76l0 94.79 -14.49 0 0 -149.69 14.27 0 28.2 97.34c0.15,0.49 0.3,1.93 0.45,4.28 0,-0.95 0.15,-2.39 0.46,-4.28l28.2 -97.34 14.27 0 0 149.69z"/>
    </g>
    <g>
     <g>
      <path class="fil5" d="M8192.82 1893.3l73.82 0c5.17,0 9.36,4.18 9.36,9.35l0 65.82c0,5.17 -4.19,9.36 -9.36,9.36l-73.82 0c-5.17,0 -9.35,-4.19 -9.35,-9.36l0 -65.82c0,-5.17 4.18,-9.35 9.35,-9.35z"/>
      <path class="fil5" d="M8689.99 1893.3l73.82 0c5.17,0 9.35,4.18 9.35,9.35l0 65.82c0,5.17 -4.18,9.36 -9.35,9.36l-73.82 0c-5.17,0 -9.36,-4.19 -9.36,-9.36l0 -65.82c0,-5.17 4.19,-9.35 9.36,-9.35z"/>
      <path class="fil5" d="M8358.54 1893.3l73.82 0c5.17,0 9.36,4.18 9.36,9.35l0 65.82c0,5.17 -4.19,9.36 -9.36,9.36l-73.82 0c-5.17,0 -9.35,-4.19 -9.35,-9.36l0 -65.82c0,-5.17 4.18,-9.35 9.35,-9.35z"/>
      <path class="fil5" d="M8358.54 2026.14l73.82 0c5.17,0 9.36,4.19 9.36,9.36l0 65.82c0,5.17 -4.19,9.35 -9.36,9.35l-73.82 0c-5.17,0 -9.35,-4.18 -9.35,-9.35l0 -65.82c0,-5.17 4.18,-9.36 9.35,-9.36z"/>
      <path class="fil5" d="M8689.99 2026.14l73.82 0c5.17,0 9.35,4.19 9.35,9.36l0 65.82c0,5.17 -4.18,9.35 -9.35,9.35l-73.82 0c-5.17,0 -9.36,-4.18 -9.36,-9.35l0 -65.82c0,-5.17 4.19,-9.36 9.36,-9.36z"/>
      <path class="fil5" d="M8524.26 2026.14l73.82 0c5.17,0 9.36,4.19 9.36,9.36l0 65.82c0,5.17 -4.19,9.35 -9.36,9.35l-73.82 0c-5.17,0 -9.36,-4.18 -9.36,-9.35l0 -65.82c0,-5.17 4.19,-9.36 9.36,-9.36z"/>
      <path class="fil5" d="M8524.26 2135.37l73.82 0c5.17,0 9.36,4.19 9.36,9.35l0 65.83c0,5.17 -4.19,9.35 -9.36,9.35l-73.82 0c-5.17,0 -9.36,-4.18 -9.36,-9.35l0 -65.83c0,-5.16 4.19,-9.35 9.36,-9.35z"/>
      <path class="fil5" d="M8192.82 2135.37l73.82 0c5.17,0 9.36,4.19 9.36,9.35l0 65.83c0,5.17 -4.19,9.35 -9.36,9.35l-73.82 0c-5.17,0 -9.35,-4.18 -9.35,-9.35l0 -65.83c0,-5.16 4.18,-9.35 9.35,-9.35z"/>
      <path class="fil5" d="M8358.54 2135.37l73.82 0c5.17,0 9.36,4.19 9.36,9.35l0 65.83c0,5.17 -4.19,9.35 -9.36,9.35l-73.82 0c-5.17,0 -9.35,-4.18 -9.35,-9.35l0 -65.83c0,-5.16 4.18,-9.35 9.35,-9.35z"/>
      <circle class="fil5" cx="8395.45" cy="1829.25" r="40.42"/>
      <circle class="fil5" cx="8561.18" cy="1829.1" r="40.42"/>
      <circle class="fil5" cx="8726.9" cy="1828.95" r="40.42"/>
      <circle class="fil5" cx="8229.73" cy="1829.4" r="40.42"/>
      <path class="fil5" d="M8851.57 1750.65c1.97,73.55 0.08,149.92 0.08,223.79 0,74.77 -0.06,149.55 -0.06,224.33 0,15.26 2.45,39.55 -3.51,52.39 -5.84,12.6 -18.12,20.41 -36.46,20.44l-334.33 -0.15c-74.75,-0.28 -149.57,-0.05 -224.33,-0.05 -148.19,0 -148.34,14.07 -148.57,-74.07 -0.2,-74.76 0.15,-149.56 0.14,-224.33l0.38 -221.92c9.49,-4.08 333.64,-1.21 373.84,-1.21 10.61,-0.01 361.36,-1.14 372.83,0.79zm-52.98 -226.24l-30.42 0.1 -0.43 65.23 46.45 0.12c24.22,0.44 34.55,11.08 36.64,34.36 1.86,20.56 1.31,47.59 0.33,68.51 -9.99,2.55 -352.43,0.55 -372.42,0.56 -123.58,0.01 -249.69,2.31 -372.96,-0.23 -2.33,-11 -0.91,-46.83 -0.72,-60.16 0.3,-21.57 2.94,-33.08 19.72,-39.98 11.93,-4.91 97.94,-5.26 114.73,-3.14 3.81,46.28 45.8,38.19 56.82,27.16 10.19,-10.21 8.57,-24.56 8.98,-41.93 0.38,-15.71 3.34,-88.28 -0.68,-97.94 -4.22,-10.12 -17.16,-19.4 -31.41,-19.34 -41.28,0.18 -32.01,52.15 -34.03,67.24 -46.78,7.82 -113.37,-13.14 -159.15,18.96 -48,33.64 -42.64,82.15 -42.64,133.84l0.4 532.61c0,22.62 -2.68,65.07 4.05,83.77 20.24,56.13 81.05,44.31 132.96,44.31l619.44 0.14c23.3,0 65.61,3.01 84.2,-4.94 53.98,-23.08 41.51,-79.95 41.51,-134.86l0.15 -442.87c0,-41.91 5.48,-137.42 -7.85,-170.04 -9.07,-22.18 -22.81,-36.59 -40.87,-47.5 -23.46,-14.16 -42.75,-13.92 -72.81,-13.96z"/>
      <path class="fil5" d="M8653 1522.28c-18.61,5.25 -237.72,-3.78 -289.66,0.99l-0.4 62.72c17.61,4.01 222.01,3.51 257.64,3.91 37.03,0.41 28.63,-2.19 31.12,11.73 6.31,35.3 64.77,35.29 66.02,-13.56 0.74,-28.89 0.43,-57.99 0.62,-86.9 0.1,-15.5 -1.24,-25.9 -9.76,-34.47 -7.04,-7.08 -18.36,-12.01 -31.68,-9.06 -28.21,6.26 -22.82,36.21 -23.9,64.63z"/>
      <g>
       <circle class="fil5" cx="8561.18" cy="1946.82" r="53.1"/>
       <path class="fil7" d="M8536.5 1942.43c-4.74,6.52 5.61,16.68 9.86,22.12 8.05,10.29 13.11,9.48 19.1,-0.43 9.16,-15.14 25.18,-32.28 20.89,-42.2 -15.51,-2.72 -18.87,24.54 -30.93,33.34 -3.39,-3.31 -4.83,-6.04 -7.49,-9.59 -5.62,-7.52 -8.04,-5.83 -11.44,-3.23z"/>
      </g>
      <g>
       <circle class="fil5" cx="8726.9" cy="2177.63" r="53.1"/>
       <path class="fil7" d="M8702.23 2173.24c-4.74,6.52 5.61,16.68 9.86,22.12 8.05,10.29 13.11,9.48 19.1,-0.43 9.16,-15.14 25.18,-32.28 20.89,-42.2 -15.52,-2.71 -18.87,24.54 -30.94,33.34 -3.39,-3.31 -4.83,-6.04 -7.48,-9.59 -5.63,-7.52 -8.04,-5.83 -11.44,-3.23z"/>
      </g>
      <g>
       <circle class="fil5" cx="8229.73" cy="2068.41" r="53.1"/>
       <path class="fil7" d="M8205.06 2064.02c-4.74,6.52 5.61,16.68 9.86,22.12 8.05,10.29 13.11,9.48 19.1,-0.43 9.15,-15.14 25.18,-32.28 20.88,-42.2 -15.51,-2.72 -18.86,24.54 -30.93,33.34 -3.39,-3.31 -4.83,-6.04 -7.49,-9.58 -5.62,-7.52 -8.03,-5.83 -11.43,-3.24z"/>
      </g>
     </g>
     <path class="fil6" d="M8284.45 2552.37l-15.17 0 -6.08 -33.11 -34.47 0 -6.12 33.11 -14.72 0 0 -0.39 30.8 -149.69 15.17 0 30.57 150.08zm-23.25 -44.87l-15.17 -81.24 -15.32 81.24 30.5 0z"/>
     <path id="_1_15" class="fil6" d="M8375.23 2541.26c0,3.27 -1.21,5.94 -3.59,8 -2.38,2.05 -5.47,3.1 -9.25,3.1l-44.31 0c-3.78,0 -6.87,-1.04 -9.25,-3.1 -2.38,-2.06 -3.59,-4.73 -3.59,-8l0 -127.48c0,-3.27 1.2,-5.94 3.59,-8 2.38,-2.05 5.47,-3.1 9.25,-3.1l44.31 0c3.78,0 6.87,1.04 9.25,3.1 2.38,2.06 3.59,4.73 3.59,8l0 34.35 -15.4 0 0 -33.69 -39.17 0 0 126.17 39.17 0 0 -51.72 -18.57 0 0 -11.56 33.97 0 0 63.93z"/>
     <polygon id="_2_16" class="fil6" points="8459.52,2552.37 8402.67,2552.37 8402.67,2402.68 8458.84,2402.68 8458.84,2414.44 8418.08,2414.44 8418.08,2470.28 8455.22,2470.28 8455.22,2482.23 8418.08,2482.23 8418.08,2540.61 8459.52,2540.61 "/>
     <polygon id="_3_17" class="fil6" points="8554.87,2552.37 8544.26,2552.37 8498.02,2442.29 8498.02,2552.37 8483.53,2552.37 8483.53,2402.68 8495.04,2402.68 8540.38,2510.86 8540.38,2402.68 8554.87,2402.68 "/>
     <path id="_4_18" class="fil6" d="M8653.84 2525.3c0,7.87 -3.02,14.37 -9.02,19.43 -6,5.1 -13.59,7.64 -22.72,7.64l-39.59 0 0 -149.68 39.59 0c9.21,0 16.8,2.54 22.8,7.64 5.97,5.06 8.95,11.56 8.95,19.43l0 95.55zm-15.4 -1.34l0 -93.07c0,-4.89 -1.77,-8.88 -5.36,-11.92 -3.59,-3.04 -8.2,-4.54 -13.85,-4.54l-21.33 0 0 126.17 20.42 0c5.97,0 10.84,-1.47 14.53,-4.44 3.74,-2.97 5.58,-7.05 5.58,-12.21z"/>
     <path id="_5_19" class="fil6" d="M8750.54 2552.37l-15.17 0 -6.08 -33.11 -34.46 0 -6.12 33.11 -14.72 0 0 -0.39 30.8 -149.69 15.17 0 30.58 150.08zm-23.25 -44.87l-15.17 -81.24 -15.33 81.24 30.5 0z"/>
    </g>
    <g>
     <g>
      <path class="fil5" d="M6354.95 306.94l60.61 0 0 -60.61 79.54 0 0 60.61 60.61 0 0 79.55 -60.61 0 0 60.6 -79.54 0 0 -60.6 -60.61 0 0 -79.55zm-102.27 39.77c0,80.58 48.06,150.88 112.95,182.5 56.63,27.58 120.08,26.42 176.81,1.2 96.65,-42.98 150.82,-175.19 89.12,-282.28 -31.36,-54.42 -88.07,-95.52 -151.91,-101.88 -52.61,-5.23 -94.14,4.65 -139.1,34.55 -52.74,35.06 -87.87,99.06 -87.87,165.92z"/>
      <path class="fil5" d="M6273.51 1043.66l0 32.2 363.63 0c0,-9.12 1.6,-8.21 1.8,-15.26l-6.04 -46.8c-8.76,-41.44 -35.08,-80.48 -68.52,-105.72 -7.45,-5.63 -14.65,-9.16 -21.94,-14.04 -11.66,17.4 -50.04,37.87 -79.55,37.87l-15.15 0c-29.51,0 -67.89,-20.48 -79.55,-37.87 -12.35,8.27 -24.54,14.88 -35.53,25.07 -31.14,28.84 -59.16,77.88 -59.16,124.54z"/>
      <path class="fil5" d="M5989.43 984.95l0 9.47 248.1 0c7.33,0 8.58,-17.01 17.02,-34.11 15.53,-31.51 34.53,-56.42 61.87,-78.29 4.94,-3.96 1.56,-3.24 8.23,-5.02 -0.64,-7.68 -6.89,-14.08 -11.06,-19.24 -8.98,-11.1 -39.95,-40.14 -53.32,-43.26 -12.92,8.65 -10.88,12.09 -33.43,23.38 -33.49,16.75 -74.48,17.47 -108.02,0.65 -6.91,-3.47 -12.06,-6.73 -17.64,-10.76 -5.69,-4.12 -11.02,-9.24 -17.03,-13.27 -13.37,3.57 -44.4,31.98 -53.87,44.61 -26.99,36 -40.83,70.17 -40.83,125.84z"/>
      <path class="fil5" d="M6586.01 877c18.02,4.81 59.51,59.56 70.05,83.35 6.97,15.75 10.71,34.06 17.07,34.06l248.1 0c0,-12.27 -1.75,-18.5 -1.83,-32.26 -0.16,-27.92 -10.93,-56.52 -22.76,-79.51 -13.4,-26.04 -43.65,-54.16 -70.1,-68.15 -5.22,3.5 -10.77,9.15 -16.74,13.56 -41.96,30.99 -99.28,31.32 -141.55,0.8 -6.71,-4.84 -12.22,-10.59 -17.84,-14.35 -7.28,3.85 -12.51,6.68 -18.96,11.35 -13.65,9.88 -41.86,35.79 -45.43,51.15z"/>
      <path class="fil5" d="M6728.05 702.76c-19.3,0 -29.94,1.01 -48.62,-4.41 -5.38,-1.56 -8.02,-2.24 -13.31,-4.07 -11.97,-4.12 -10.04,-5.09 -10.04,23.63 0,40.92 12.4,68.52 44.8,85.88 30.49,16.34 68.8,9.13 93.73,-13.64 2.43,-2.22 6.25,-7.22 8.64,-10.29 20.47,-26.3 15.71,-58.49 15.71,-90.35 -19.01,0 -13.13,-13.26 -30.3,-13.26 -17.14,0 -23.89,26.52 -60.61,26.52z"/>
      <path class="fil5" d="M6159.88 702.76c-23.83,0 -47.04,-1.22 -68.18,-11.37 0,37.75 -3.22,62.61 13.2,85.28 32.62,45.04 94.59,47.23 127.42,9.89 23.55,-26.78 22.25,-51.6 22.25,-87.59 0,-12.97 -5.22,-7.19 -13.57,-12.94 -9.58,-6.6 -15.18,-17.28 -32.52,-2.85 -14.45,12.02 -26.73,19.58 -48.6,19.58z"/>
      <path class="fil5" d="M6440.17 784.2c-37.33,0 -36.46,-4.41 -66.28,-11.36 0,33.27 -2.53,58.82 10.94,79.97 11.27,17.7 28.44,33.43 52.37,38.54 53.1,11.34 99.57,-29.1 99.57,-78.74l0 -35.98c0,-7.73 -3.81,-2.76 -13.72,-10.9 -32.09,-26.37 -28.95,18.48 -82.87,18.48z"/>
      <path class="fil5" d="M6093.59 651.62l29.91 7.97c33.76,8.55 40.66,8.07 60.69,-8.28 26.88,-21.95 50.47,-10.34 64.7,-9.16 -14.82,-28 -36.84,-53.03 -73.86,-53.03 -42.05,0 -73.55,28.64 -81.44,62.49z"/>
      <path class="fil5" d="M6659.87 651.62c22.17,1.85 60.09,28.6 89.48,0.48 18.91,-18.09 41.69,-15.12 63.92,-9.94 -8.1,-34.77 -67.69,-77.57 -125.56,-34.66 -11.2,8.31 -26.44,27.25 -27.84,44.12z"/>
      <path class="fil5" d="M6377.68 733.06c7.22,0.6 17.83,4.63 25.41,6.79 17.4,4.96 21.74,4.57 38.98,4.57 16.91,0 19.16,-8.89 29.47,-15.99 25.37,-17.45 42.56,-8.81 59.55,-4.84 -6.57,-28.17 -39.86,-53.03 -79.55,-53.03 -32.89,0 -73.18,31.65 -73.86,62.49z"/>
     </g>
     <path class="fil6" d="M6204.41 1234.61c0,3.23 -1.21,5.91 -3.62,7.97 -2.38,2.09 -5.47,3.13 -9.21,3.13l-40.38 0 0 59.37 -15.4 0 0 -149.69 55.79 0c3.74,0 6.84,1.04 9.21,3.1 2.41,2.05 3.62,4.73 3.62,8l0 68.12zm-15.4 -0.85l0 -66.61 -37.82 0 0 66.61 37.82 0z"/>
     <path id="_1_20" class="fil6" d="M6298.44 1305.08l-15.17 0 -6.08 -33.11 -34.46 0 -6.12 33.11 -14.72 0 0 -0.39 30.8 -149.69 15.17 0 30.58 150.08zm-23.25 -44.87l-15.17 -81.24 -15.32 81.24 30.5 0z"/>
     <path id="_2_21" class="fil6" d="M6388.53 1293.98c0,3.26 -1.2,5.94 -3.62,8 -2.42,2.05 -5.51,3.1 -9.21,3.1l-43.63 0c-3.78,0 -6.87,-1.05 -9.25,-3.1 -2.38,-2.05 -3.59,-4.73 -3.59,-8l0 -127.48c0,-3.26 1.21,-5.94 3.59,-8 2.38,-2.05 5.47,-3.1 9.25,-3.1l43.63 0c3.7,0 6.79,1.04 9.21,3.1 2.42,2.06 3.62,4.74 3.62,8l0 34.35 -15.4 0 0 -33.69 -38.5 0 0 126.17 38.5 0 0 -36.84 15.4 0 0 37.49z"/>
     <polygon id="_3_22" class="fil6" points="6431.76,1305.08 6416.35,1305.08 6416.35,1155.39 6431.76,1155.39 "/>
     <polygon id="_4_23" class="fil6" points="6517.4,1305.08 6460.56,1305.08 6460.56,1155.39 6516.72,1155.39 6516.72,1167.15 6475.95,1167.15 6475.95,1222.98 6513.1,1222.98 6513.1,1234.94 6475.95,1234.94 6475.95,1293.32 6517.4,1293.32 "/>
     <polygon id="_5_24" class="fil6" points="6612.75,1305.08 6602.14,1305.08 6555.9,1195 6555.9,1305.08 6541.41,1305.08 6541.41,1155.39 6552.92,1155.39 6598.25,1263.57 6598.25,1155.39 6612.75,1155.39 "/>
     <polygon id="_6_25" class="fil6" points="6699.94,1167.15 6673.22,1167.15 6673.22,1305.08 6657.82,1305.08 6657.82,1167.15 6630.87,1167.15 6630.87,1155.39 6699.94,1155.39 "/>
     <polygon id="_7_26" class="fil6" points="6774.87,1305.08 6718.02,1305.08 6718.02,1155.39 6774.19,1155.39 6774.19,1167.15 6733.42,1167.15 6733.42,1222.98 6770.56,1222.98 6770.56,1234.94 6733.42,1234.94 6733.42,1293.32 6774.87,1293.32 "/>
    </g>
    <g>
     <g>
      <path class="fil5" d="M4066.87 839.83c-3.37,6.04 -6.66,12.11 -9.91,18.19 -6.86,12.83 -13.55,25.8 -19.91,38.88 -2.32,4.77 -4.61,9.57 -6.75,14.42 -0.79,1.79 -1.88,4.1 -2.56,6.1l0 89.01c0,7.95 -6.49,14.44 -14.43,14.44l-593.15 0c-7.95,0 -14.44,-6.49 -14.44,-14.44l0 -793.38c0,-7.95 6.49,-14.44 14.44,-14.44l593.15 0c7.95,0 14.43,6.49 14.43,14.44l0 310.8c0.22,-0.39 0.44,-0.77 0.66,-1.15 5.1,-8.89 10.24,-17.74 15.35,-26.62 5.33,-9.28 10.66,-18.6 15.73,-28.04 2.03,-3.77 5.86,-10.44 7.39,-14.8l0 -240.18c0,-29.87 -23.69,-53.57 -53.56,-53.57l-593.15 0c-33.15,0 -57.35,29.01 -57.35,61.12l0 789.61c0,11.95 6.62,24.38 14.7,32.86 10.29,10.79 23.9,16.93 38.87,16.93l600.71 0c17.77,0 33.9,-8.76 42.75,-24.3 2.26,-3.98 3.93,-8.16 5.08,-12.6 2.07,-8 2.45,-16.54 2.47,-24.76 0.03,-11.14 -0.51,-22.3 -0.52,-33.47 0,-41.67 0,-83.35 0,-125.03z"/>
      <path class="fil5" d="M3899.96 942.2c19.12,-12.81 38.19,-22.59 59,-35.45 16.27,-10.05 11.89,-9.21 20.59,-24.75l222.65 -393.17 -68.01 -34c-3.83,14.35 -174.7,300.19 -197.76,342.51 -46.74,85.8 -36.48,32.15 -36.48,144.86z"/>
      <polygon class="fil5" points="4146.27,432.17 4214.28,465.74 4240.73,414.99 4172.72,381.41 "/>
      <circle class="fil5" cx="3519.36" cy="909.18" r="46.31"/>
      <circle class="fil5" cx="3662.92" cy="910.23" r="46.31"/>
      <g>
       <rect class="fil5" x="3473.04" y="749.52" width="370.25" height="49.12"/>
       <rect class="fil5" x="3473.04" y="647.51" width="483.59" height="49.12"/>
       <rect class="fil5" x="3473.04" y="534.14" width="370.25" height="49.12"/>
       <rect class="fil5" x="3473.04" y="427.59" width="483.59" height="49.12"/>
       <rect class="fil5" x="3473.04" y="316.49" width="370.25" height="49.12"/>
      </g>
     </g>
     <path class="fil6" d="M3415.3 1220.06c0,3.23 -1.21,5.91 -3.62,7.97 -2.38,2.09 -5.47,3.13 -9.21,3.13l-40.38 0 0 59.36 -15.4 0 0 -149.69 55.79 0c3.74,0 6.84,1.05 9.21,3.1 2.41,2.06 3.62,4.73 3.62,8l0 68.12zm-15.4 -0.85l0 -66.62 -37.82 0 0 66.62 37.82 0z"/>
     <path id="_1_27" class="fil6" d="M3513.18 1290.52l-16.08 0 -32.16 -80.19 2.11 -2.68 27.33 0 0 -55.06 -39.41 0 0 137.93 -15.4 0 0 -149.69 57.38 0c3.77,0 6.87,1.05 9.24,3.1 2.38,2.06 3.59,4.73 3.59,8l0 55.97c0,7.41 -5.58,11.1 -16.8,11.1 -1.09,0 -2.72,-0.03 -4.87,-0.13 -2.11,-0.1 -3.66,-0.16 -4.64,-0.16 9.97,23.87 19.85,47.8 29.71,71.8z"/>
     <path id="_2_28" class="fil6" d="M3609.39 1279.42c0,3.26 -1.21,5.94 -3.63,8 -2.38,2.05 -5.47,3.1 -9.21,3.1l-47.49 0c-3.77,0 -6.87,-1.04 -9.24,-3.1 -2.38,-2.06 -3.59,-4.74 -3.59,-8l0 -127.48c0,-3.27 1.2,-5.94 3.59,-8 2.38,-2.05 5.47,-3.1 9.24,-3.1l47.49 0c3.74,0 6.83,1.05 9.21,3.1 2.42,2.06 3.63,4.73 3.63,8l0 127.48zm-15.4 -0.65l0 -126.17 -42.35 0 0 126.17 42.35 0z"/>
     <polygon id="_3_29" class="fil6" points="3696.54,1152.59 3669.82,1152.59 3669.82,1290.52 3654.42,1290.52 3654.42,1152.59 3627.47,1152.59 3627.47,1140.83 3696.54,1140.83 "/>
     <path id="_4_30" class="fil6" d="M3787.78 1279.42c0,3.26 -1.2,5.94 -3.62,8 -2.38,2.05 -5.47,3.1 -9.21,3.1l-47.49 0c-3.78,0 -6.87,-1.04 -9.25,-3.1 -2.38,-2.06 -3.59,-4.74 -3.59,-8l0 -127.48c0,-3.27 1.21,-5.94 3.59,-8 2.38,-2.05 5.47,-3.1 9.25,-3.1l47.49 0c3.73,0 6.83,1.05 9.21,3.1 2.42,2.06 3.62,4.73 3.62,8l0 127.48zm-15.4 -0.65l0 -126.17 -42.35 0 0 126.17 42.35 0z"/>
     <path id="_5_31" class="fil6" d="M3884.67 1279.42c0,3.26 -1.21,5.94 -3.62,8 -2.42,2.05 -5.51,3.1 -9.21,3.1l-43.64 0c-3.77,0 -6.87,-1.04 -9.24,-3.1 -2.38,-2.06 -3.59,-4.74 -3.59,-8l0 -127.48c0,-3.27 1.2,-5.94 3.59,-8 2.38,-2.05 5.47,-3.1 9.24,-3.1l43.64 0c3.7,0 6.79,1.05 9.21,3.1 2.41,2.06 3.62,4.73 3.62,8l0 34.35 -15.4 0 0 -33.7 -38.5 0 0 126.17 38.5 0 0 -36.83 15.4 0 0 37.48z"/>
     <path id="_6_32" class="fil6" d="M3984.74 1279.42c0,3.26 -1.2,5.94 -3.62,8 -2.38,2.05 -5.47,3.1 -9.21,3.1l-47.49 0c-3.78,0 -6.87,-1.04 -9.25,-3.1 -2.38,-2.06 -3.59,-4.74 -3.59,-8l0 -127.48c0,-3.27 1.21,-5.94 3.59,-8 2.38,-2.05 5.47,-3.1 9.25,-3.1l47.49 0c3.73,0 6.83,1.05 9.21,3.1 2.42,2.06 3.62,4.73 3.62,8l0 127.48zm-15.4 -0.65l0 -126.17 -42.35 0 0 126.17 42.35 0z"/>
     <polygon id="_7_33" class="fil6" points="4067.59,1290.52 4012.34,1290.52 4012.34,1140.83 4027.73,1140.83 4027.73,1278.76 4067.59,1278.76 "/>
     <path id="_8_34" class="fil6" d="M4161.77 1279.42c0,3.26 -1.2,5.94 -3.62,8 -2.38,2.05 -5.47,3.1 -9.21,3.1l-47.49 0c-3.78,0 -6.87,-1.04 -9.24,-3.1 -2.38,-2.06 -3.59,-4.74 -3.59,-8l0 -127.48c0,-3.27 1.2,-5.94 3.59,-8 2.38,-2.05 5.47,-3.1 9.24,-3.1l47.49 0c3.73,0 6.83,1.05 9.21,3.1 2.42,2.06 3.62,4.73 3.62,8l0 127.48zm-15.4 -0.65l0 -126.17 -42.35 0 0 126.17 42.35 0z"/>
     <path id="_9_35" class="fil6" d="M4256.86 1279.42c0,3.26 -1.17,5.94 -3.55,8 -2.38,2.05 -5.48,3.1 -9.29,3.1l-42.51 0c-3.73,0 -6.83,-1.04 -9.21,-3.1 -2.41,-2.06 -3.62,-4.74 -3.62,-8l0 -37.48 15.4 0 0 36.83 37.37 0 0 -35.76 -47.79 -49.83c-3.32,-3.43 -4.98,-7.22 -4.98,-11.33l0 -29.91c0,-3.27 1.21,-5.94 3.62,-8 2.38,-2.05 5.47,-3.1 9.21,-3.1l42.51 0c3.81,0 6.91,1.05 9.29,3.1 2.38,2.06 3.55,4.73 3.55,8l0 34.35 -15.4 0 0 -33.7 -37.37 0 0 31.65 48.01 49.79c3.17,3.33 4.76,7.05 4.76,11.17l0 34.22z"/>
    </g>
    <g>
     <g>
      <g>
       <path class="fil5" d="M2061.44 2362.58l15.42 0c31.52,-3.27 67.98,-28.68 67.98,-63.15l0 -22.23c0,-28.22 -34.93,-63.15 -63.15,-63.15l-22.23 0c-29.65,0 -63.15,37.23 -63.15,66.33 0,25.17 2.73,42.49 21.25,60.86 12.1,12 26.92,19.59 43.89,21.35z"/>
      </g>
      <g>
       <path class="fil5" d="M1610.44 2362.58l11.53 0c39.96,-2.83 67.76,-32.04 71.18,-71.68 1.52,-17.69 -8.05,-37.71 -19.01,-51.06 -11.35,-13.82 -28.11,-25.8 -46.67,-25.8l-22.23 0c-33.67,0 -63.15,40.96 -63.15,72.68 0,19.58 6.88,38.91 20.23,53.37 12.55,13.6 29.81,21.17 48.12,22.49z"/>
      </g>
      <g>
       <path class="fil5" d="M1678.68 1578.8l0 59.6 120.32 0c8.95,0 16.25,7.3 16.25,16.25l0 120.32 59.61 0 0 -120.32c0,-8.95 7.3,-16.25 16.25,-16.25l120.32 0 0 -59.6 -120.32 0c-8.95,0 -16.25,-7.3 -16.25,-16.25l0 -120.33 -59.61 0 0 110.8c0,16.37 -9.4,25.78 -25.78,25.78l-110.79 0z"/>
      </g>
      <g>
       <path class="fil5" d="M2238.97 1611.14c-8.78,-4.88 -17.52,-9.86 -26.35,-14.63 -7.88,-4.25 -15.85,-8.47 -23.95,-12.31 -0.76,-0.36 -1.69,-0.81 -2.72,-1.3 -2.43,4.83 -4.97,9.49 -6.76,12.92 -7.94,15.22 -16.2,30.29 -24.48,45.33 -12.42,22.56 -25.41,45.03 -37.51,67.73 -6.2,11.61 -12.83,23.11 -19.3,34.56 -9.97,17.64 -19.96,35.26 -29.88,52.91 -10.58,18.85 -21.15,37.75 -31.36,56.8 -3.7,6.9 -7.37,13.84 -10.84,20.85 -1.42,2.86 -3.63,7.02 -4.59,10.07 -1.81,7.31 -8.21,12.32 -15.77,12.32l-317.62 0c-6.44,0 -11.95,-3.49 -14.7,-9.31l-110.07 -232.96c-3.99,-8.44 -8.37,-16.66 -12.56,-24.99 -0.06,-0.12 -0.11,-0.23 -0.17,-0.35l-61.33 -129.25c-0.1,-0.2 -0.17,-0.37 -0.26,-0.57 -1.14,-2.66 -2.78,-8.73 -4.22,-12.31l-123.46 0 0 59.61 75.86 0c7.65,0 14.09,5.12 15.81,12.5 0.95,3.63 3.19,8.5 4.66,12 3.52,8.37 7.23,16.69 10.96,24.96 10.4,23.08 21.13,46.02 31.93,68.92 10.4,22.06 20.9,44.09 31.47,66.06 6.33,13.15 12.63,26.39 19.2,39.42 0.03,0.07 0.06,0.13 0.09,0.2l62.47 128.11c2.41,4.93 2.26,10.26 -0.43,15.06l-60.23 107.61c-16.6,31.31 -14.88,67.37 10.73,93.21 14.38,14.51 33.94,22.73 54.38,22.73l526.88 0 0 -59.61 -501.47 0c-11.69,0 -23.72,-3.17 -29.78,-14.17 -14.92,-27.05 29.19,-68.52 36.31,-95.21 1.93,-7.21 8.24,-12.06 15.7,-12.06 58.82,0 117.67,0.79 176.51,0.87 38.27,0.06 76.59,0.02 114.86,-0.6 13.76,-0.22 27.55,-0.5 41.3,-1.11 5.87,-0.27 14.48,-0.38 20.19,-1.57 15.78,-3.28 28.93,-9.13 39.97,-21.09 7.21,-7.82 12.86,-17.32 18.02,-26.58 6.79,-12.19 13.13,-24.53 20.37,-36.49l107.07 -194.2c0.06,-0.1 0.1,-0.19 0.17,-0.29 7.24,-12.53 14.38,-25.12 21.31,-37.82 4.28,-7.82 8.5,-15.71 12.46,-23.7 0.34,-0.68 0.73,-1.46 1.15,-2.31z"/>
      </g>
     </g>
     <path class="fil6" d="M1540.41 2555.83c0,3.26 -1.21,5.94 -3.62,8 -2.42,2.06 -5.51,3.1 -9.21,3.1l-43.64 0c-3.77,0 -6.87,-1.04 -9.24,-3.1 -2.38,-2.05 -3.59,-4.73 -3.59,-8l0 -127.48c0,-3.26 1.2,-5.94 3.59,-8 2.38,-2.05 5.47,-3.1 9.24,-3.1l43.64 0c3.7,0 6.79,1.05 9.21,3.1 2.41,2.05 3.62,4.73 3.62,8l0 34.35 -15.4 0 0 -33.7 -38.5 0 0 126.17 38.5 0 0 -36.83 15.4 0 0 37.48z"/>
     <path id="_1_36" class="fil6" d="M1640.48 2555.83c0,3.26 -1.21,5.94 -3.62,8 -2.38,2.06 -5.47,3.1 -9.21,3.1l-47.48 0c-3.78,0 -6.87,-1.04 -9.25,-3.1 -2.38,-2.05 -3.59,-4.73 -3.59,-8l0 -127.48c0,-3.26 1.21,-5.94 3.59,-8 2.38,-2.05 5.47,-3.1 9.25,-3.1l47.48 0c3.74,0 6.84,1.05 9.21,3.1 2.41,2.05 3.62,4.73 3.62,8l0 127.48zm-15.4 -0.65l0 -126.17 -42.35 0 0 126.17 42.35 0z"/>
     <path id="_2_37" class="fil6" d="M1753.91 2566.93l-14.5 0 0 -94.79c0,-1.34 0.52,-5.26 1.55,-11.76l-28.42 92.44 -3.1 0 -28.42 -92.44c1.02,6.57 1.55,10.48 1.55,11.76l0 94.79 -14.5 0 0 -149.69 14.27 0 28.2 97.34c0.15,0.49 0.3,1.93 0.45,4.28 0,-0.94 0.15,-2.38 0.45,-4.28l28.2 -97.34 14.27 0 0 149.69z"/>
     <path id="_3_38" class="fil6" d="M1849.93 2496.46c0,3.23 -1.21,5.91 -3.63,7.97 -2.38,2.09 -5.47,3.13 -9.21,3.13l-40.39 0 0 59.37 -15.4 0 0 -149.69 55.79 0c3.74,0 6.83,1.05 9.21,3.1 2.42,2.06 3.63,4.73 3.63,8l0 68.11zm-15.4 -0.85l0 -66.62 -37.82 0 0 66.62 37.82 0z"/>
     <path id="_4_39" class="fil6" d="M1947.81 2566.93l-16.08 0 -32.16 -80.19 2.12 -2.68 27.33 0 0 -55.06 -39.41 0 0 137.93 -15.4 0 0 -149.69 57.37 0c3.78,0 6.87,1.05 9.25,3.1 2.38,2.06 3.59,4.73 3.59,8l0 55.97c0,7.41 -5.59,11.1 -16.8,11.1 -1.09,0 -2.72,-0.03 -4.87,-0.13 -2.12,-0.1 -3.66,-0.17 -4.65,-0.17 9.97,23.88 19.86,47.81 29.71,71.81z"/>
     <path id="_5_40" class="fil6" d="M2040.63 2566.93l-15.17 0 -6.08 -33.11 -34.46 0 -6.12 33.11 -14.72 0 0 -0.39 30.8 -149.69 15.17 0 30.58 150.07zm-23.25 -44.86l-15.17 -81.24 -15.33 81.24 30.5 0z"/>
     <path id="_6_41" class="fil6" d="M2128.92 2555.83c0,3.26 -1.17,5.94 -3.55,8 -2.38,2.06 -5.47,3.1 -9.29,3.1l-42.5 0c-3.74,0 -6.83,-1.04 -9.21,-3.1 -2.41,-2.05 -3.62,-4.73 -3.62,-8l0 -37.48 15.4 0 0 36.83 37.37 0 0 -35.76 -47.78 -49.83c-3.33,-3.42 -4.99,-7.21 -4.99,-11.33l0 -29.91c0,-3.26 1.21,-5.94 3.62,-8 2.38,-2.05 5.47,-3.1 9.21,-3.1l42.5 0c3.81,0 6.91,1.05 9.29,3.1 2.38,2.05 3.55,4.73 3.55,8l0 34.35 -15.4 0 0 -33.7 -37.37 0 0 31.64 48.01 49.8c3.17,3.33 4.76,7.05 4.76,11.17l0 34.22z"/>
    </g>
    <g>
     <g>
      <path class="fil5" d="M857.69 3600.54c25.76,6.87 34.47,35.84 66.85,11.18 51.07,-38.9 53.18,-1.91 53.18,-80.77l52.19 0c0,79.32 2.44,42.25 52.18,80.02 34.1,25.88 40.81,-3.22 67.84,-10.44 2.28,9.8 21.78,35.61 24.35,45.23 -4.91,1.14 -43.49,18.31 -43.49,36.53 0,11.12 3.48,20.07 3.48,29.57 0,17.98 -9.36,34.1 2.95,47.49 4.15,4.51 30.81,20.64 37.06,22.09 -2.57,9.61 -22.07,35.42 -24.35,45.23 -5.69,-1.52 -15.58,-8.35 -21.48,-11.58 -37.74,-20.69 -31.39,-3.7 -65.48,13.34 -36.93,18.46 -33.07,8.45 -33.07,69.56l-52.19 0c0,-81.47 -1.64,-43.38 -52.18,-81.76 -20.76,-15.75 -25.21,-12.74 -46.38,-1.14 -5.9,3.23 -15.78,10.07 -21.47,11.58l-18.38 -33.81c-2.53,-4.11 -4.83,-7.15 -5.97,-11.42 5.5,-1.28 31.8,-16.35 37.06,-22.09 13.37,-14.57 1.14,-32.42 2.96,-45.75 3.73,-27.48 9.51,-39.69 -12.9,-53.21 -6.19,-3.74 -21.13,-13.24 -27.12,-14.63 2.57,-9.61 22.07,-35.43 24.36,-45.23zm224.4 -55.67l0 -80.02c0,-6.7 23.33,-16.67 23.34,-16.67 6.09,-1.31 59.13,29.71 66.78,34.41 4.75,2.91 8.42,5.26 14.25,6.62l0 31.31c-7.2,1.68 -57.72,30.18 -65.76,35.13 -3.54,2.18 -9.9,6.42 -14.03,6.1 -0.01,0 -24.58,-10.2 -24.58,-16.87zm139.16 -154.82c34.61,18.32 41.91,33.25 68.59,12.93 7.73,-5.89 11.42,-8.61 20.11,-12.95 36.9,-18.45 33.07,-9.6 33.07,-67.82l52.19 0c0,79.32 2.44,42.25 52.19,80.01 34.09,25.88 40.8,-3.22 67.84,-10.44 2.28,9.81 21.79,35.61 24.36,45.23 -4.91,1.14 -43.49,18.31 -43.49,36.53 0,11.12 3.48,20.07 3.48,29.57 0,17.98 -9.36,34.1 2.96,47.49 4.14,4.5 30.81,20.63 37.06,22.09 -2.57,9.61 -22.07,35.43 -24.36,45.23 -5.69,-1.52 -15.57,-8.34 -21.47,-11.58 -19.96,-10.94 -25.3,-14.9 -45.38,0.39 -7.73,5.89 -11.42,8.6 -20.11,12.94 -36.69,18.34 -33.07,8.6 -33.07,67.83l-52.19 0c0,-79.32 -2.44,-42.26 -52.18,-80.02 -27.89,-21.17 -33.43,-6.95 -69.59,12.18 -5.69,-10.75 -23.73,-37.83 -24.35,-45.23 15.1,-7.99 45.23,-21.1 45.23,-38.27 0,-9.53 -4.38,-24.98 -3.48,-31.31 2.53,-18.63 7.41,-33.27 -2.14,-44.84 -5.68,-6.89 -31.44,-20.42 -39.61,-24.75 0.58,-7 8.07,-17.24 11.63,-23.16 4.54,-7.55 8.84,-14.73 12.72,-22.07zm-363.56 -207c25.76,6.87 34.47,35.84 66.85,11.18 51.55,-39.26 53.18,-1.33 53.18,-82.51l52.18 0c0,81.47 1.64,43.38 52.19,81.76 34.09,25.88 40.81,-3.22 67.84,-10.44 1.32,5.68 9.09,17.76 12.08,22.71 3.2,5.31 10.76,16.82 12.27,22.52 -4.91,1.14 -43.49,18.31 -43.49,36.53 0,11.12 3.48,20.07 3.48,29.57 0,17.98 -9.37,34.1 2.95,47.5 4.14,4.5 30.81,20.63 37.06,22.09 -2.57,9.61 -22.07,35.42 -24.35,45.23 -25.77,-6.88 -34.47,-35.85 -66.85,-11.19 -7.73,5.89 -11.42,8.61 -20.11,12.95 -36.69,18.33 -33.08,8.59 -33.08,67.82l-52.18 0c0,-59.23 3.61,-49.49 -33.07,-67.82 -33.95,-16.97 -27.71,-34.05 -65.49,-13.34 -5.9,3.23 -15.79,10.07 -21.47,11.58 -1.33,-5.68 -9.1,-17.77 -12.08,-22.72 -3.2,-5.31 -10.75,-16.82 -12.27,-22.51 5.5,-1.28 31.79,-16.35 37.06,-22.09 13.37,-14.58 1.14,-32.43 2.96,-45.76 2.46,-18.15 7.11,-32.29 -1.37,-43.86 -5.36,-7.31 -33.19,-22.71 -38.64,-23.98 1.88,-7.02 22.37,-36.72 24.36,-45.23zm67.84 -52.19c-5.67,3 -12,6.67 -17.7,10.22 -9.55,5.96 -9.6,2.99 -18.3,-2.04 -32,-18.5 -48.89,-32.59 -68.91,3.46l-34.26 59.68c-14.45,26.67 -29.34,42.31 4.21,61.9 5.44,3.17 9.07,5.25 14.38,8.23 5.43,3.04 10.66,6.87 16.19,8.16l0 31.31c-5.71,1.33 -24.18,12.65 -30.58,16.39 -38.87,22.68 -13.66,44.8 13.1,91.55 11.21,19.6 24.32,52.1 41.83,52.1 15.98,0 27.55,-8.69 45.13,-19.27 8.8,-5.29 8.28,-6.89 18.25,-0.68 23.17,14.45 16.64,-3.43 16.64,93 0,5.67 -11.21,9.69 -15.55,12.31 -10.23,6.14 -9.1,6.16 -19.34,0 -56.45,-33.97 -53.98,-24.8 -86.96,32.84 -26.75,46.75 -51.96,68.87 -13.1,91.55l30.58 16.38 0 31.31c-5.71,1.33 -24.18,12.65 -30.58,16.39 -33.56,19.58 -18.66,35.22 -4.21,61.89l34.26 59.68c20.02,36.06 36.91,21.96 68.91,3.46 8.31,-4.81 9.27,-7.7 18.3,-2.04 6.26,3.92 11.77,6.25 17.7,10.22 0,15.1 -0.77,32.22 -0.08,47.05 0.57,12.37 10.85,24.27 22.7,24.27l111.33 0c30.18,0 22.62,-47.52 22.62,-71.33 26.26,-17.58 25.97,-13.98 36,-8.18 32,18.5 48.89,32.6 68.91,-3.46 7.22,-13 49.91,-82.89 49.91,-90.99 0,-23.07 -11.06,-25.81 -34.26,-38.8 -5.43,-3.05 -10.65,-6.87 -16.19,-8.16l0 -31.31c6.55,-1.52 19.56,-9.42 26.65,-13.36l51.9 -27.87c3.69,-0.21 22.08,10.89 25.83,13.4 0,14.54 -0.75,31.03 -0.09,45.31 0.57,12.38 10.85,24.27 22.7,24.27l111.33 0c30.82,0 22.61,-50.15 22.61,-69.58 26.26,-17.58 25.97,-13.98 36,-8.18 56.2,32.5 52.57,24.68 85.86,-33.48 26.75,-46.75 51.96,-68.87 13.1,-91.55l-30.58 -16.38 0 -31.31c5.7,-1.33 24.17,-12.65 30.58,-16.39 38.87,-22.68 13.65,-44.8 -13.1,-91.55 -11.22,-19.59 -24.32,-52.1 -41.84,-52.1 -32.79,0 -44.35,31.86 -62.32,20.66 -5.7,-3.55 -12.03,-7.23 -17.7,-10.23 0,-19.39 8.07,-69.58 -22.61,-69.58l-111.33 0c-30.82,0 -22.61,50.15 -22.61,69.58 -4.82,2.55 -21.65,13.64 -25.83,13.4 -6.47,-0.37 -66.88,-38.51 -78.55,-41.23l0 -31.31c5.71,-1.33 24.18,-12.65 30.58,-16.38 38.86,-22.68 13.65,-44.8 -13.1,-91.55 -5.85,-10.23 -11.02,-19.36 -16.95,-30.02 -20.02,-36.05 -36.91,-21.96 -68.91,-3.46 -8.7,5.04 -8.75,8 -18.3,2.04 -5.7,-3.55 -12.04,-7.22 -17.7,-10.22 0,-23.8 7.56,-71.33 -22.62,-71.33l-111.33 0c-30.17,0 -22.62,47.52 -22.62,71.33z"/>
      <path class="fil5" d="M977.71 3310.03c-20.49,-13.72 -26.71,-40.01 -55.66,-40.01 -14.14,0 -22.62,12.68 -22.62,29.57 0,13.36 40.89,48.7 51.75,59.58 13.14,13.17 12.98,15.22 30.01,15.22 13.22,0 56.28,-48.46 67.41,-59.58 11.26,-11.26 59.58,-54.2 59.58,-67.41 0,-20.73 -8.84,-29.57 -29.58,-29.57 -12.78,0 -42.01,34.18 -51.75,43.93l-49.14 48.27z"/>
      <path class="fil5" d="M977.71 3727.52c-20.49,-13.72 -26.71,-40.01 -55.66,-40.01 -14.14,0 -22.62,12.68 -22.62,29.57 0,11.71 22.56,30.39 33.48,41.32 6.52,6.51 11.76,11.74 18.27,18.27 13.14,13.16 12.98,15.22 30.01,15.22 13.22,0 56.28,-48.45 67.41,-59.58 11.26,-11.25 59.58,-54.2 59.58,-67.41 0,-20.73 -8.84,-29.57 -29.58,-29.57 -12.78,0 -42.01,34.18 -51.75,43.93l-49.14 48.27z"/>
      <path class="fil5" d="M1343.02 3518.77c-20.48,-13.72 -26.71,-40.01 -55.66,-40.01 -14.14,0 -22.61,12.68 -22.61,29.57 0,13.37 40.89,48.7 51.75,59.58 13.14,13.16 12.98,15.22 30,15.22 13.23,0 56.28,-48.45 67.41,-59.58 11.26,-11.26 59.58,-54.2 59.58,-67.41 0,-20.73 -8.84,-29.57 -29.57,-29.57 -11.34,0 -20.89,13.06 -27.4,19.57l-48.71 48.7c-7.14,7.15 -17.2,18.85 -24.79,23.92z"/>
     </g>
     <polygon class="fil6" points="735.89,4173.28 720.49,4173.28 720.49,4023.59 735.89,4023.59 "/>
     <polygon id="_1_42" class="fil6" points="836.03,4173.28 825.42,4173.28 779.18,4063.2 779.18,4173.28 764.69,4173.28 764.69,4023.59 776.2,4023.59 821.54,4131.78 821.54,4023.59 836.03,4023.59 "/>
     <polygon id="_2_43" class="fil6" points="923.22,4035.35 896.5,4035.35 896.5,4173.28 881.1,4173.28 881.1,4035.35 854.15,4035.35 854.15,4023.59 923.22,4023.59 "/>
     <polygon id="_3_44" class="fil6" points="998.15,4173.28 941.31,4173.28 941.31,4023.59 997.47,4023.59 997.47,4035.35 956.7,4035.35 956.7,4091.19 993.85,4091.19 993.85,4103.14 956.7,4103.14 956.7,4161.52 998.15,4161.52 "/>
     <path id="_4_45" class="fil6" d="M1092.14 4162.18c0,3.26 -1.21,5.94 -3.59,8 -2.38,2.05 -5.47,3.1 -9.24,3.1l-44.31 0c-3.77,0 -6.87,-1.04 -9.24,-3.1 -2.38,-2.06 -3.59,-4.74 -3.59,-8l0 -127.48c0,-3.27 1.2,-5.94 3.59,-8 2.38,-2.05 5.47,-3.1 9.24,-3.1l44.31 0c3.78,0 6.87,1.05 9.24,3.1 2.38,2.06 3.59,4.73 3.59,8l0 34.35 -15.4 0 0 -33.7 -39.18 0 0 126.17 39.18 0 0 -51.72 -18.57 0 0 -11.56 33.97 0 0 63.93z"/>
     <path id="_5_46" class="fil6" d="M1193.18 4173.28l-16.08 0 -32.16 -80.19 2.12 -2.68 27.33 0 0 -55.06 -39.41 0 0 137.93 -15.4 0 0 -149.69 57.37 0c3.78,0 6.87,1.05 9.24,3.1 2.38,2.06 3.59,4.73 3.59,8l0 55.97c0,7.41 -5.59,11.1 -16.8,11.1 -1.1,0 -2.72,-0.03 -4.87,-0.13 -2.12,-0.1 -3.67,-0.16 -4.65,-0.16 9.97,23.87 19.86,47.8 29.71,71.8z"/>
     <path id="_6_47" class="fil6" d="M1286 4173.28l-15.17 0 -6.08 -33.11 -34.46 0 -6.12 33.11 -14.72 0 0 -0.39 30.8 -149.69 15.17 0 30.58 150.07zm-23.25 -44.86l-15.17 -81.24 -15.32 81.24 30.5 0z"/>
     <path id="_7_48" class="fil6" d="M1376.1 4162.18c0,3.26 -1.2,5.94 -3.62,8 -2.41,2.05 -5.51,3.1 -9.21,3.1l-43.64 0c-3.78,0 -6.87,-1.04 -9.25,-3.1 -2.38,-2.06 -3.59,-4.74 -3.59,-8l0 -127.48c0,-3.27 1.21,-5.94 3.59,-8 2.38,-2.05 5.47,-3.1 9.25,-3.1l43.64 0c3.7,0 6.79,1.05 9.21,3.1 2.42,2.06 3.62,4.73 3.62,8l0 34.35 -15.4 0 0 -33.7 -38.5 0 0 126.17 38.5 0 0 -36.83 15.4 0 0 37.48zm-14.26 40.49c0,5.09 -2.94,7.64 -8.84,7.64l-22.65 0c-5.89,0 -8.83,-2.55 -8.83,-7.64l0 -10.77 11.55 0 0 9.79 16.98 0 0 -10.22c-3.32,-1.41 -6.6,-2.84 -9.85,-4.31 -3.25,-1.86 -4.87,-4.41 -4.87,-7.67l0 -6.4 11.85 0 0 6.59c3.32,1.47 6.65,2.94 10.04,4.41 3.06,1.86 4.61,4.44 4.61,7.74l0 10.84z"/>
     <path id="_8_49" class="fil6" d="M1476.17 4162.18c0,3.26 -1.21,5.94 -3.63,8 -2.38,2.05 -5.47,3.1 -9.21,3.1l-47.49 0c-3.77,0 -6.87,-1.04 -9.24,-3.1 -2.38,-2.06 -3.59,-4.74 -3.59,-8l0 -127.48c0,-3.27 1.2,-5.94 3.59,-8 2.38,-2.05 5.47,-3.1 9.24,-3.1l47.49 0c3.74,0 6.83,1.05 9.21,3.1 2.42,2.06 3.63,4.73 3.63,8l0 127.48zm-15.4 -0.65l0 -126.17 -42.35 0 0 126.17 42.35 0zm2.94 -153.21c0,4.7 -2.79,7.05 -8.38,7.05 -3.13,0 -7.92,-1.14 -14.42,-3.46 -4.46,-1.73 -8.95,-3.42 -13.44,-5.16l0 8.43 -11.77 0 0 -11.76c0,-4.7 2.72,-7.05 8.15,-7.05 3.17,0 8,1.14 14.53,3.46 4.49,1.7 9.02,3.43 13.55,5.17l0 -8.43 11.77 0 0 11.76z"/>
     <polygon id="_9_50" class="fil6" points="1560.61,4173.28 1503.76,4173.28 1503.76,4023.59 1559.93,4023.59 1559.93,4035.35 1519.17,4035.35 1519.17,4091.19 1556.31,4091.19 1556.31,4103.14 1519.17,4103.14 1519.17,4161.52 1560.61,4161.52 "/>
     <path id="_10_51" class="fil6" d="M1652.11 4162.18c0,3.26 -1.17,5.94 -3.55,8 -2.38,2.05 -5.47,3.1 -9.28,3.1l-42.51 0c-3.73,0 -6.83,-1.04 -9.21,-3.1 -2.42,-2.06 -3.62,-4.74 -3.62,-8l0 -37.48 15.4 0 0 36.83 37.37 0 0 -35.76 -47.79 -49.83c-3.32,-3.43 -4.98,-7.22 -4.98,-11.33l0 -29.91c0,-3.27 1.2,-5.94 3.62,-8 2.38,-2.05 5.47,-3.1 9.21,-3.1l42.51 0c3.81,0 6.91,1.05 9.28,3.1 2.38,2.06 3.55,4.73 3.55,8l0 34.35 -15.4 0 0 -33.7 -37.37 0 0 31.65 48.02 49.79c3.17,3.33 4.76,7.05 4.76,11.17l0 34.22z"/>
    </g>
    <g>
     <g>
      <path class="fil5" d="M2279.74 4951.31c38.27,0 60.5,4.92 89.41,30.47 17.24,15.23 34.61,34.58 51.25,51.22l258.11 258.11c26.09,26.09 33.48,39.15 74.92,39.15 28.73,0 46.47,-20.36 61.38,-35.29l120.84 -120.84c5.17,-5.18 25.94,-32.94 45.6,-13.7 21.73,21.25 -6.37,40.2 -27.23,61.07 -27.92,27.92 -120.81,124.41 -141.01,137.4 -29.66,19.07 -83.76,26.63 -94.42,12 -1.94,-2.67 -4.1,-8.7 -6.55,-12.79 -7.29,-12.17 -16.66,-22.93 -27.91,-32.03 -15.2,-12.29 -33.16,-21.92 -54.95,-26.25 -18.85,-3.75 -24.55,-14.93 -44.44,-34.83 -13.68,-13.68 -25.95,-25.95 -39.63,-39.63l-200.11 -200.11c-34.42,-34.45 -49.92,-29.65 -99.47,-23.1l-89.21 11.43c-42.48,5.68 -40.86,-39.78 -12.82,-45.79l89.26 -11.27c13.9,-1.83 30.87,-5.21 46.99,-5.21zm204.2 -386.69l11.2 0c4.35,0.59 8.66,1.85 12.8,3.81 17.95,8.55 117.39,112.66 135.76,131.04 13.81,13.81 83.22,79.01 86.52,91.36 17.38,-11.64 41.39,-46.56 58.9,-55.17 34.86,-17.14 57.4,13.9 74.02,30.52l171.11 171.11c18.48,18.48 47.73,41.96 49.79,64.1l0 9.32c-1.36,14.44 -9.06,24.22 -16.89,31.98l-83.65 84.56c11.13,5.89 14.23,5.97 22.67,16 5.89,7 10.27,15.11 11.72,25.03 1.94,13.34 -0.38,24.32 -4.63,33.19 -4.6,9.57 -9.69,13.03 -16.71,20.03 -44.79,44.75 -107.37,110.19 -150.77,150.84 -32.35,30.29 -72.84,35.25 -115.55,35.25 0,10.05 2.22,9.68 2.01,19.28 -0.31,13.45 -5.23,36.38 -10.98,49.08 -21.64,47.79 -62.83,74.26 -105.96,78.58l-25.29 0c-28.2,-2.83 -55.77,-15.15 -77.77,-37.22 -54.28,-54.42 -23.42,-72.41 -8.18,-63.46 5.26,3.09 10.98,19.27 15,25.71 21.57,34.62 68.78,54.05 111.83,41.37 64.07,-18.88 92.11,-96.59 51.04,-153.97 -37.03,-51.73 -119.57,-54.99 -160.57,1.91 -21.81,30.28 -6.2,44.52 -36.68,44.52 -3.97,-5.93 -9.5,-9.04 -7.08,-20.4 3.76,-17.68 16.27,-40.21 28.82,-52.6 40.09,-39.57 45.89,-29.92 69.14,-41.07 -6.05,-9.04 -25.31,-26.27 -34.32,-35.29 -12.07,-12.07 -22.73,-22.73 -34.8,-34.8l-139.21 -139.21c-12.07,-12.07 -22.73,-22.73 -34.8,-34.8 -11.73,-11.73 -19.25,-24.88 -40.48,-27.22 -11.38,-1.25 -102.37,12.02 -122.25,14.34 -28.49,3.31 -37.46,3.71 -56.3,-9.77 -10.34,-7.39 -17.6,-20.92 -19.27,-35.64l0 -12.87c1.82,-15.65 10.51,-31.04 28.94,-40.56 19.74,-10.19 156.28,-23.14 183.74,-23.14 -6.28,-9.37 -26.86,-27.83 -36.25,-37.22 -17.58,-17.59 -47.54,-38.6 -39.98,-67.96 3.28,-12.71 6.15,-14.9 13.45,-23.33 10.16,-11.72 11.34,-10.4 18.86,-17.88 9.51,-9.47 -1.55,-1.07 17.32,-17.49 7.35,-6.39 10.63,-12.08 17.64,-19.09l28.29 -27.78c1.86,-2.05 2.28,-2.56 4.62,-5.05 33.8,-35.96 41.26,-1.67 34.55,7.38l-55.12 54.22 173.04 172.07 103.45 -104.41 -171.6 -170.61c-4.86,3.26 -7.31,8.19 -15.05,7.38 -9.31,-0.98 -22.61,-14.26 -5.22,-29.58l63.92 -63.69c7.05,-7.16 15.93,-11.48 25.21,-12.72zm299.94 591.15l-45.09 -44.83c-2.89,-3.19 -3.86,-4.45 -6.67,-6.86l-32.12 -31.68c-3.04,-2.83 -4.18,-3.57 -6.96,-6.57 -1.75,-1.89 -0.98,-1.23 -2.7,-3.1 -0.27,-0.29 -0.66,-0.72 -0.93,-1l-9.45 -9.89 212.19 -213.16 105.36 104.41 -213.64 212.67zm-477.07 -235.4l0 0zm342.22 127.61c0,21.15 12.49,26.99 28.52,43.02l67.67 67.67c45.22,45.22 40.64,37.67 101.5,-23.2 14.8,-14.8 162.85,-164.77 171.59,-170.62 6.61,4.43 33.2,30.17 35.56,38.04 3.64,12.11 -17.75,28.25 -31.21,41.71l-203.98 203.97c-27.39,27.41 -24.97,20.46 -69.6,-24.17l-109.23 -109.24c-2.82,-2.82 -30.81,-38.67 -41.4,-11.2 -5.13,13.32 16.5,28.84 28.83,41.17l122.77 122.77c21.07,21.07 12.06,11.06 26.59,23.68 -6.49,1.73 -6.18,3.87 -12.95,6.39 -24.71,9.18 -38.97,-3.19 -54.24,-18.47 -22.47,-22.49 -207.06,-205.03 -213.16,-214.12 17.5,-11.72 19.07,-18.48 29,-25.13 5.3,7.92 32.13,40.38 44.27,40.08 11.51,-0.27 13.74,-9.04 13.74,-18.82 0,-9.21 -32.87,-28.57 -32.87,-40.6 0,-10.57 17.75,-24.53 28.52,-35.29l160.47 -160.47c8.13,-8.13 60.11,-63.32 66.22,-63.32 16.39,0 23.13,12.5 35.29,24.65 8.2,8.2 22.78,20.92 28.52,29.49 -1.97,7.41 -20.31,23.22 -26.59,29.49 -9.81,9.81 -18.22,18.22 -28.04,28.04 -19.48,19.48 -37.54,37.54 -57.03,57.03 -19.16,19.16 -36.9,36.91 -56.07,56.07 -11.3,11.3 -52.68,47.07 -52.68,61.38zm-210.74 -406.02c1.85,-6.92 41.6,-47.02 50.55,-47.76 8.78,-0.73 14.43,7.32 19.54,12.48l166.27 166.28c43.84,43.84 44.43,30.01 -23.2,97.63 -19.49,19.49 -37.55,37.56 -57.04,57.04 -8.63,8.63 -107.41,112.62 -117.45,112.62 -10.97,0 -23.68,-16.92 -30.45,-23.68l-135.34 -135.34c-9.75,-9.76 -50.75,-45.93 -50.75,-57.52 0,-10.15 22.98,-30.78 29,-34.8 9.14,6.13 139.82,138.85 161.92,160.96 15.46,15.47 15.18,18.85 35.29,18.85 14.14,0 59.33,-50.63 71.05,-62.35 14.3,-14.3 60.42,-53.6 60.42,-72.99 0,-15.92 -26.02,-36.66 -41.09,-51.73l-92.8 -92.8c-11.29,-11.29 -38.52,-35.84 -45.92,-46.89z"/>
      <path class="fil5" d="M2577.49 5428.86c0,-39.8 50.26,-37.86 50.26,0 0,28.46 -50.26,31.6 -50.26,0zm-30.94 -5.8c0,33.22 25.13,58.01 50.26,58.01 14.35,0 18.07,1.02 31.02,-5.72 55.6,-28.92 26.8,-104.49 -19.42,-104.49 -17.53,0 -31.93,1.83 -45.99,15.88 -6.66,6.67 -15.88,23.67 -15.88,36.32z"/>
      <path class="fil5" d="M2409.28 4823.7c12.91,0 24.61,-17.84 37.22,-30.45 8.82,-8.82 47.27,-39.52 18.75,-48.83 -14.14,-4.62 -27.97,15.52 -40.98,28.54 -7.72,7.72 -17.41,16.17 -24.16,24.18 -9.05,10.75 -7.49,26.57 9.18,26.57z"/>
      <path class="fil5" d="M2832.69 4937.78c0,10.94 25.89,32.65 37.22,43.98 11.44,11.44 21.83,27.37 34.41,22.03 27.44,-11.64 -10.55,-40.7 -19.91,-50.07 -10.69,-10.69 -25.68,-29.49 -36.25,-29.49 -8.28,0 -15.47,5.96 -15.47,13.54z"/>
      <path class="fil5" d="M2447.94 4862.37c0,9.35 6.12,15.46 15.47,15.46 9.6,0 14.45,-7.64 19.82,-13.05 9.67,-9.74 45.92,-40.87 45.92,-52.69 0,-9.16 -7.86,-15.46 -15.46,-15.46 -7.79,0 -65.74,57.95 -65.74,65.73z"/>
      <path class="fil5" d="M2946.76 4957.11c0,-11.82 -36.25,-42.96 -45.92,-52.69 -5.37,-5.41 -10.21,-13.05 -19.82,-13.05 -16.13,0 -18.92,16.33 -9.29,26.68l48.35 48.34c12.51,11.65 26.67,3.51 26.67,-9.28z"/>
      <path class="fil5" d="M2376.41 4790.83c11.82,0 42.95,-36.24 52.69,-45.91 7.33,-7.28 24.67,-25.97 3.22,-33.42 -13.83,-4.81 -27.06,14.72 -40.93,28.58 -8.28,8.29 -16.45,15.68 -24.27,24.08 -9.63,10.35 -6.83,26.67 9.29,26.67z"/>
      <path class="fil5" d="M2844.29 5057.64c13.97,0 15.47,-5.6 15.47,-17.4 0,-5.26 -56.61,-61.87 -61.87,-61.87 -17.45,0 -21.93,10.6 -17.02,20.7 3.28,6.75 32.38,34.29 39.74,41.65 5.97,5.97 13.3,16.91 23.68,16.91z"/>
      <path class="fil5" d="M2726.36 5046.05c0,11.59 57.51,65.73 63.8,65.73 11.6,0 17.4,-8.36 17.4,-15.47 0,-7.79 -57.95,-65.73 -65.73,-65.73 -9.35,0 -15.46,6.12 -15.46,15.47z"/>
     </g>
     <polygon class="fil6" points="2339.86,5788.56 2283.01,5788.56 2283.01,5638.87 2339.18,5638.87 2339.18,5650.63 2298.42,5650.63 2298.42,5706.47 2335.56,5706.47 2335.56,5718.42 2298.42,5718.42 2298.42,5776.8 2339.86,5776.8 "/>
     <path id="_1_52" class="fil6" d="M2431.36 5777.46c0,3.26 -1.17,5.94 -3.55,8 -2.38,2.05 -5.47,3.1 -9.29,3.1l-42.51 0c-3.73,0 -6.83,-1.04 -9.21,-3.1 -2.41,-2.06 -3.62,-4.74 -3.62,-8l0 -37.48 15.4 0 0 36.83 37.37 0 0 -35.76 -47.79 -49.83c-3.32,-3.42 -4.98,-7.21 -4.98,-11.33l0 -29.91c0,-3.27 1.21,-5.94 3.62,-8 2.38,-2.05 5.47,-3.1 9.21,-3.1l42.51 0c3.81,0 6.91,1.05 9.29,3.1 2.38,2.06 3.55,4.73 3.55,8l0 34.35 -15.4 0 0 -33.7 -37.37 0 0 31.65 48.02 49.79c3.17,3.33 4.76,7.05 4.76,11.17l0 34.22z"/>
     <polygon id="_2_53" class="fil6" points="2518.1,5650.63 2491.38,5650.63 2491.38,5788.56 2475.97,5788.56 2475.97,5650.63 2449.02,5650.63 2449.02,5638.87 2518.1,5638.87 "/>
     <path id="_3_54" class="fil6" d="M2609.33 5777.46c0,3.26 -1.2,5.94 -3.62,8 -2.38,2.05 -5.47,3.1 -9.21,3.1l-47.49 0c-3.77,0 -6.87,-1.04 -9.25,-3.1 -2.38,-2.06 -3.58,-4.74 -3.58,-8l0 -127.48c0,-3.27 1.2,-5.94 3.58,-8 2.38,-2.05 5.48,-3.1 9.25,-3.1l47.49 0c3.73,0 6.83,1.05 9.21,3.1 2.42,2.06 3.62,4.73 3.62,8l0 127.48zm-15.4 -0.65l0 -126.17 -42.35 0 0 126.17 42.35 0z"/>
     <path id="_4_55" class="fil6" d="M2721.85 5788.75l-1.32 0 -11.32 -8.03c-1.43,5.22 -5.39,7.83 -11.97,7.83l-47.48 0c-3.78,0 -6.87,-1.04 -9.25,-3.1 -2.38,-2.06 -3.59,-4.73 -3.59,-8l0 -127.48c0,-3.27 1.21,-5.94 3.59,-8 2.38,-2.05 5.47,-3.1 9.25,-3.1l47.48 0c3.81,0 6.91,1.04 9.29,3.1 2.38,2.06 3.55,4.73 3.55,8l0 117.42 11.77 8.23 0 13.13zm-27.18 -11.95l0 -5.81 -18.34 -13.19 0 -13.13 1.43 0 16.91 12.14 0 -106.19 -42.35 0 0 126.17 42.35 0z"/>
     <path id="_5_56" class="fil6" d="M2810.67 5777.46c0,3.26 -1.21,5.94 -3.62,8 -2.38,2.05 -5.47,3.1 -9.21,3.1l-46.12 0c-3.78,0 -6.87,-1.04 -9.25,-3.1 -2.38,-2.06 -3.59,-4.74 -3.59,-8l0 -138.58 15.4 0 0 137.93 40.99 0 0 -137.93 15.4 0 0 138.58z"/>
     <polygon id="_6_57" class="fil6" points="2895.15,5788.56 2838.3,5788.56 2838.3,5638.87 2894.47,5638.87 2894.47,5650.63 2853.7,5650.63 2853.7,5706.47 2890.85,5706.47 2890.85,5718.42 2853.7,5718.42 2853.7,5776.8 2895.15,5776.8 "/>
    </g>
   </g>
  </g>
 </g>
</svg>
